<?xml version="1.0" encoding="UTF-8"?>
<svg width="160px" height="149px" viewBox="0 0 160 149" version="1.1" xmlns="http://www.w3.org/2000/svg" xmlns:xlink="http://www.w3.org/1999/xlink">
    <!-- Generator: sketchtool 52.6 (67491) - http://www.bohemiancoding.com/sketch -->
    <title>CA00EC5D-16BA-4428-81DF-B73B4F84EF3D</title>
    <desc>Created with sketchtool.</desc>
    <g id="Landingpage" stroke="none" stroke-width="1" fill="none" fill-rule="evenodd">
        <g id="Fundabit-–-0.6" transform="translate(-260.000000, -1045.000000)">
            <g id="How-it-works" transform="translate(-214.000000, 868.000000)">
                <g id="recurring-revenue" transform="translate(379.000000, 177.000000)">
                    <g id="icon/pig" transform="translate(95.000000, 0.000000)">
                        <g>
                            <circle id="Oval" fill="#ADEDC5" cx="52.5" cy="41.5" r="27.5"></circle>
                            <g id="Group" fill="#303030">
                                <path d="M118.62069,66.2222222 C113.931034,66.2222222 110.344828,69.8092593 110.344828,74.5 C110.344828,79.1907407 113.931034,82.7777778 118.62069,82.7777778 C123.310345,82.7777778 126.896552,79.1907407 126.896552,74.5 C126.896552,69.8092593 123.310345,66.2222222 118.62069,66.2222222 Z M118.62069,77.2592593 C116.965517,77.2592593 115.862069,76.1555556 115.862069,74.5 C115.862069,72.8444444 116.965517,71.7407407 118.62069,71.7407407 C120.275862,71.7407407 121.37931,72.8444444 121.37931,74.5 C121.37931,76.1555556 120.275862,77.2592593 118.62069,77.2592593 Z" id="Shape" fill-rule="nonzero"></path>
                                <path d="M80,132.444444 C51.5862069,132.444444 27.5862069,113.405556 27.5862069,91.0555556 C27.5862069,89.4 26.4827586,88.2962963 24.8275862,88.2962963 C23.1724138,88.2962963 22.0689655,89.4 22.0689655,91.0555556 C22.0689655,116.440741 48.5517241,137.962963 80,137.962963 C81.6551724,137.962963 82.7586207,136.859259 82.7586207,135.203704 C82.7586207,133.548148 81.6551724,132.444444 80,132.444444 Z" id="Path"></path>
                                <path d="M52.4137931,60.7037037 C69.2413793,60.7037037 82.7586207,47.1833333 82.7586207,30.3518519 C82.7586207,13.5203704 69.2413793,0 52.4137931,0 C35.5862069,0 22.0689655,13.5203704 22.0689655,30.3518519 C22.0689655,47.1833333 35.5862069,60.7037037 52.4137931,60.7037037 Z M52.4137931,5.51851852 C66.2068966,5.51851852 77.2413793,16.5555556 77.2413793,30.3518519 C77.2413793,44.1481481 66.2068966,55.1851852 52.4137931,55.1851852 C38.6206897,55.1851852 27.5862069,44.1481481 27.5862069,30.3518519 C27.5862069,16.5555556 38.6206897,5.51851852 52.4137931,5.51851852 Z" id="Shape" fill-rule="nonzero"></path>
                                <path d="M151.724138,77.2592593 L148.965517,77.2592593 C147.862069,77.2592593 146.758621,76.4314815 146.482759,75.3277778 C141.793103,61.2555556 130.758621,49.1148148 115.862069,41.3888889 L115.862069,24.8333333 C115.862069,23.7296296 115.310345,22.6259259 114.206897,22.35 C113.103448,21.7981481 112,22.0740741 111.172414,22.9018519 L98.7586207,35.3185185 C96.2758621,34.7666667 93.5172414,34.2148148 91.0344828,33.9388889 C89.6551724,33.662963 88.2758621,34.7666667 88,36.1462963 C84.9655172,53.5296296 70.0689655,66.2222222 52.4137931,66.2222222 C43.3103448,66.2222222 34.7586207,62.9111111 28.137931,56.8407407 C27.5862069,56.2888889 26.7586207,56.012963 26.2068966,56.012963 C25.3793103,56.012963 24.8275862,56.2888889 24.2758621,56.8407407 C16.2758621,66.2222222 11.862069,76.9833333 11.0344828,88.2962963 C9.93103448,88.0203704 8.55172414,87.4685185 7.72413793,86.3648148 C6.34482759,84.9851852 5.51724138,82.7777778 5.51724138,80.0185185 L5.51724138,68.9814815 C5.51724138,68.9814815 5.51724138,68.9814815 5.51724138,68.7055556 C5.51724138,68.4296296 5.51724138,65.1185185 7.44827586,62.6351852 C8.82758621,61.5314815 11.0344828,60.7037037 13.7931034,60.7037037 C15.4482759,60.7037037 16.5517241,59.6 16.5517241,57.9444444 C16.5517241,56.2888889 15.4482759,55.1851852 13.7931034,55.1851852 C9.37931034,55.1851852 6.06896552,56.5648148 3.5862069,59.0481481 C0,62.9111111 0,68.1537037 0,68.9814815 L0,80.0185185 C0,84.4333333 1.37931034,87.7444444 3.86206897,90.2277778 C6.06896552,92.4351852 9.10344828,93.262963 11.0344828,93.5388889 C11.5862069,105.127778 16.2758621,116.440741 24.5517241,125.822222 L22.0689655,134.375926 C21.7931034,135.47963 22.0689655,136.307407 22.8965517,137.135185 L33.9310345,148.172222 C35.0344828,149.275926 36.6896552,149.275926 37.7931034,148.172222 L44.9655172,140.998148 C55.7241379,146.240741 67.5862069,149 80,149 C92.4137931,149 104.275862,146.240741 115.034483,140.998148 L122.206897,148.172222 C122.758621,148.724074 123.586207,149 124.137931,149 C124.689655,149 125.517241,148.724074 126.068966,148.172222 L137.103448,137.135185 C137.931034,136.307407 138.206897,135.47963 137.931034,134.375926 L135.172414,125.822222 C140.413793,120.027778 144,113.681481 146.482759,106.783333 C146.758621,105.67963 147.862069,104.851852 148.965517,104.851852 L151.724138,104.851852 C156.413793,104.851852 160,101.264815 160,96.5740741 L160,85.537037 C160,80.8462963 156.413793,77.2592593 151.724138,77.2592593 Z M154.482759,96.5740741 C154.482759,98.2296296 153.37931,99.3333333 151.724138,99.3333333 L148.965517,99.3333333 C145.37931,99.3333333 142.344828,101.540741 141.241379,104.851852 C139.034483,111.474074 135.172414,117.544444 130.206897,123.062963 C129.655172,123.890741 129.37931,124.718519 129.655172,125.822222 L132.137931,134.375926 L124.137931,142.377778 L117.517241,135.755556 C116.689655,134.927778 115.310345,134.651852 114.206897,135.203704 C104,140.722222 92.137931,143.481481 80,143.481481 C67.862069,143.481481 56,140.722222 45.7931034,135.203704 C45.5172414,134.927778 44.9655172,134.927778 44.4137931,134.927778 C43.5862069,134.927778 43.0344828,135.203704 42.4827586,135.755556 L35.862069,142.377778 L27.862069,134.375926 L30.3448276,125.822222 C30.6206897,124.994444 30.3448276,123.890741 29.7931034,123.062963 C21.2413793,113.957407 16.5517241,102.92037 16.5517241,91.0555556 C16.5517241,80.8462963 20.137931,71.1888889 26.7586207,62.6351852 C34.2068966,68.4296296 43.0344828,71.7407407 52.4137931,71.7407407 C71.7241379,71.7407407 88.2758621,58.4962963 92.6896552,39.7333333 C94.8965517,40.0092593 96.8275862,40.5611111 98.7586207,41.112963 C99.5862069,41.3888889 100.689655,41.112963 101.517241,40.2851852 L110.344828,31.4555556 L110.344828,43.3203704 C110.344828,44.4240741 110.896552,45.2518519 112,45.8037037 C126.344828,52.7018519 136.827586,64.0148148 141.241379,77.2592593 C142.344828,80.5703704 145.37931,82.7777778 148.965517,82.7777778 L151.724138,82.7777778 C153.37931,82.7777778 154.482759,83.8814815 154.482759,85.537037 L154.482759,96.5740741 Z" id="Shape" fill-rule="nonzero"></path>
                                <path d="M89.1034483,89.1240741 L78.0689655,100.161111 C76.9655172,101.264815 76.9655172,102.92037 78.0689655,104.024074 C78.6206897,104.575926 79.4482759,104.851852 80,104.851852 C80.5517241,104.851852 81.3793103,104.575926 81.9310345,104.024074 L92.9655172,92.987037 C94.0689655,91.8833333 94.0689655,90.2277778 92.9655172,89.1240741 C91.862069,88.0203704 90.2068966,88.0203704 89.1034483,89.1240741 Z" id="Path"></path>
                                <path d="M89.1034483,78.087037 L67.0344828,100.161111 C65.9310345,101.264815 65.9310345,102.92037 67.0344828,104.024074 C67.5862069,104.575926 68.4137931,104.851852 68.9655172,104.851852 C69.5172414,104.851852 70.3448276,104.575926 70.8965517,104.024074 L92.9655172,81.95 C94.0689655,80.8462963 94.0689655,79.1907407 92.9655172,78.087037 C91.862069,76.9833333 90.2068966,76.9833333 89.1034483,78.087037 Z" id="Path"></path>
                                <path d="M68.9655172,93.8148148 C69.7931034,93.8148148 70.3448276,93.5388889 70.8965517,92.987037 L81.9310345,81.95 C83.0344828,80.8462963 83.0344828,79.1907407 81.9310345,78.087037 C80.8275862,76.9833333 79.1724138,76.9833333 78.0689655,78.087037 L67.0344828,89.1240741 C65.9310345,90.2277778 65.9310345,91.8833333 67.0344828,92.987037 C67.5862069,93.5388889 68.137931,93.8148148 68.9655172,93.8148148 Z" id="Path"></path>
                                <path d="M52.4137931,49.6666667 C63.1724138,49.6666667 71.7241379,41.112963 71.7241379,30.3518519 C71.7241379,28.6962963 70.6206897,27.5925926 68.9655172,27.5925926 C67.3103448,27.5925926 66.2068966,28.6962963 66.2068966,30.3518519 C66.2068966,38.0777778 60.137931,44.1481481 52.4137931,44.1481481 C50.7586207,44.1481481 49.6551724,45.2518519 49.6551724,46.9074074 C49.6551724,48.562963 50.7586207,49.6666667 52.4137931,49.6666667 Z" id="Path"></path>
                            </g>
                        </g>
                    </g>
                </g>
            </g>
        </g>
    </g>
</svg>