<?xml version="1.0" encoding="UTF-8"?>
<svg width="160px" height="160px" viewBox="0 0 160 160" version="1.1" xmlns="http://www.w3.org/2000/svg" xmlns:xlink="http://www.w3.org/1999/xlink">
    <!-- Generator: sketchtool 52.6 (67491) - http://www.bohemiancoding.com/sketch -->
    <title>A8D22205-A496-4CE3-AF2D-7E28D194C18F</title>
    <desc>Created with sketchtool.</desc>
    <g id="Landingpage" stroke="none" stroke-width="1" fill="none" fill-rule="evenodd">
        <g id="Fundabit-–-0.6" transform="translate(-640.000000, -1039.000000)">
            <g id="How-it-works" transform="translate(-214.000000, 868.000000)">
                <g id="community-acces" transform="translate(759.000000, 171.000000)">
                    <g id="icon/acces" transform="translate(95.000000, 0.000000)">
                        <g id="Group">
                            <g transform="translate(58.000000, 25.000000)" fill="#ADEDC5">
                                <path d="M7.7,106.7 C9.9,108.9 12.65,110 15.4,110 L28.325,110 C31.35,110 34.1,108.9 36.025,106.7 L44,99 L0,99 L7.7,106.7 Z" id="Path"></path>
                                <circle id="Oval" cx="22" cy="11" r="11"></circle>
                            </g>
                            <g fill="#303030">
                                <path d="M77.2413793,135.172414 L77.2413793,157.241379 C77.2413793,158.896552 78.3448276,160 80,160 C81.6551724,160 82.7586207,158.896552 82.7586207,157.241379 L82.7586207,135.172414 C82.7586207,133.517241 81.6551724,132.413793 80,132.413793 C78.3448276,132.413793 77.2413793,133.517241 77.2413793,135.172414 Z" id="Path"></path>
                                <path d="M71.7241379,135.172414 C71.7241379,133.517241 70.6206897,132.413793 68.9655172,132.413793 C67.3103448,132.413793 66.2068966,133.517241 66.2068966,135.172414 L66.2068966,146.206897 C66.2068966,147.862069 67.3103448,148.965517 68.9655172,148.965517 C70.6206897,148.965517 71.7241379,147.862069 71.7241379,146.206897 L71.7241379,135.172414 Z" id="Path"></path>
                                <path d="M88.2758621,135.172414 L88.2758621,146.206897 C88.2758621,147.862069 89.3793103,148.965517 91.0344828,148.965517 C92.6896552,148.965517 93.7931034,147.862069 93.7931034,146.206897 L93.7931034,135.172414 C93.7931034,133.517241 92.6896552,132.413793 91.0344828,132.413793 C89.3793103,132.413793 88.2758621,133.517241 88.2758621,135.172414 Z" id="Path"></path>
                                <path d="M80,38.6206897 C87.7241379,38.6206897 93.7931034,32.5517241 93.7931034,24.8275862 C93.7931034,17.1034483 87.7241379,11.0344828 80,11.0344828 C72.2758621,11.0344828 66.2068966,17.1034483 66.2068966,24.8275862 C66.2068966,32.5517241 72.2758621,38.6206897 80,38.6206897 Z M80,16.5517241 C84.6896552,16.5517241 88.2758621,20.137931 88.2758621,24.8275862 C88.2758621,29.5172414 84.6896552,33.1034483 80,33.1034483 C75.3103448,33.1034483 71.7241379,29.5172414 71.7241379,24.8275862 C71.7241379,20.137931 75.3103448,16.5517241 80,16.5517241 Z" id="Shape" fill-rule="nonzero"></path>
                                <path d="M68.9655172,82.7586207 C69.7931034,82.7586207 70.3448276,82.4827586 70.8965517,81.9310345 L92.9655172,59.862069 C94.0689655,58.7586207 94.0689655,57.1034483 92.9655172,56 C91.862069,54.8965517 90.2068966,54.8965517 89.1034483,56 L67.0344828,78.0689655 C65.9310345,79.1724138 65.9310345,80.8275862 67.0344828,81.9310345 C67.5862069,82.4827586 68.137931,82.7586207 68.9655172,82.7586207 Z" id="Path"></path>
                                <path d="M68.9655172,71.7241379 C69.7931034,71.7241379 70.3448276,71.4482759 70.8965517,70.8965517 L81.9310345,59.862069 C83.0344828,58.7586207 83.0344828,57.1034483 81.9310345,56 C80.8275862,54.8965517 79.1724138,54.8965517 78.0689655,56 L67.0344828,67.0344828 C65.9310345,68.137931 65.9310345,69.7931034 67.0344828,70.8965517 C67.5862069,71.4482759 68.137931,71.7241379 68.9655172,71.7241379 Z" id="Path"></path>
                                <path d="M89.1034483,67.0344828 L78.0689655,78.0689655 C76.9655172,79.1724138 76.9655172,80.8275862 78.0689655,81.9310345 C78.6206897,82.4827586 79.4482759,82.7586207 80,82.7586207 C80.5517241,82.7586207 81.3793103,82.4827586 81.9310345,81.9310345 L92.9655172,70.8965517 C94.0689655,69.7931034 94.0689655,68.137931 92.9655172,67.0344828 C91.862069,65.9310345 90.2068966,65.9310345 89.1034483,67.0344828 Z" id="Path"></path>
                                <path d="M22.0689655,102.068966 C22.0689655,103.724138 23.1724138,104.827586 24.8275862,104.827586 L44.4137931,104.827586 C45.5172414,110.62069 50.4827586,115.310345 56.5517241,115.862069 L63.7241379,123.034483 C66.2068966,125.517241 69.7931034,127.172414 73.3793103,127.172414 L86.3448276,127.172414 C89.9310345,127.172414 93.5172414,125.793103 96,123.034483 L103.172414,115.862069 C109.241379,115.310345 114.206897,110.896552 115.310345,104.827586 L135.172414,104.827586 C136.827586,104.827586 137.931034,103.724138 137.931034,102.068966 C137.931034,88 127.448276,76.4137931 113.655172,74.7586207 L112.827586,74.7586207 L107.310345,24.2758621 C105.655172,10.4827586 94.0689655,0 80,0 C65.9310345,0 54.3448276,10.4827586 52.6896552,24.2758621 L47.1724138,74.7586207 L46.3448276,74.7586207 C32.5517241,76.4137931 22.0689655,88 22.0689655,102.068966 Z M86.3448276,121.37931 L73.3793103,121.37931 C71.1724138,121.37931 68.9655172,120.551724 67.5862069,118.896552 L64.5517241,115.862069 L95.4482759,115.862069 L92.4137931,118.896552 C90.7586207,120.551724 88.5517241,121.37931 86.3448276,121.37931 Z M132.137931,99.3103448 L115.586207,99.3103448 L113.37931,80.2758621 C123.310345,81.6551724 131.034483,89.6551724 132.137931,99.3103448 Z M58.2068966,25.1034483 C59.5862069,13.7931034 68.6896552,5.51724138 80,5.51724138 C91.3103448,5.51724138 100.413793,13.7931034 101.793103,25.1034483 L110.344828,102.068966 C110.344828,106.482759 106.482759,110.344828 102.068966,110.344828 L57.9310345,110.344828 C54.3448276,110.344828 51.3103448,108.137931 50.2068966,104.827586 L102.068966,104.827586 C103.724138,104.827586 104.827586,103.724138 104.827586,102.068966 C104.827586,100.413793 103.724138,99.3103448 102.068966,99.3103448 L49.9310345,99.3103448 L58.2068966,25.1034483 Z M46.6206897,80.2758621 L44.4137931,99.3103448 L27.862069,99.3103448 C28.9655172,89.6551724 36.6896552,81.6551724 46.6206897,80.2758621 Z" id="Shape" fill-rule="nonzero"></path>
                                <path d="M0,140.689655 C0,151.448276 8.55172414,160 19.3103448,160 L52.4137931,160 C54.8965517,160 57.1034483,158.896552 58.7586207,156.965517 C60.4137931,155.034483 60.9655172,152.551724 60.6896552,150.344828 C60.137931,146.482759 56.2758621,143.448276 52.137931,143.448276 C50.7586207,143.448276 49.6551724,142.344828 49.6551724,140.965517 L49.6551724,140.689655 C49.6551724,136 46.0689655,132.413793 41.3793103,132.413793 C40,132.413793 38.3448276,132.689655 37.2413793,133.517241 C34.4827586,126.344828 27.3103448,121.37931 19.3103448,121.37931 C8.55172414,121.37931 0,129.931034 0,140.689655 Z M33.1034483,140.689655 C33.1034483,142.344828 34.2068966,143.448276 35.862069,143.448276 C37.5172414,143.448276 38.6206897,142.344828 38.6206897,140.689655 C38.6206897,139.034483 39.7241379,137.931034 41.3793103,137.931034 C43.0344828,137.931034 44.137931,139.034483 44.137931,140.689655 C44.137931,142.344828 43.0344828,143.448276 41.3793103,143.448276 C39.7241379,143.448276 38.6206897,144.551724 38.6206897,146.206897 C38.6206897,147.862069 39.7241379,148.965517 41.3793103,148.965517 C43.5862069,148.965517 45.2413793,148.137931 46.8965517,147.034483 C48.2758621,148.413793 50.2068966,148.965517 52.137931,148.965517 C53.5172414,148.965517 54.8965517,150.068966 55.1724138,151.172414 C55.1724138,152 55.1724138,152.827586 54.6206897,153.37931 C54.0689655,154.206897 53.2413793,154.482759 52.4137931,154.482759 L19.3103448,154.482759 C11.5862069,154.482759 5.51724138,148.413793 5.51724138,140.689655 C5.51724138,132.965517 11.5862069,126.896552 19.3103448,126.896552 C27.0344828,126.896552 33.1034483,132.965517 33.1034483,140.689655 Z" id="Shape" fill-rule="nonzero"></path>
                                <path d="M11.0344828,140.689655 C11.0344828,142.344828 12.137931,143.448276 13.7931034,143.448276 C15.4482759,143.448276 16.5517241,142.344828 16.5517241,140.689655 C16.5517241,139.034483 17.6551724,137.931034 19.3103448,137.931034 C20.9655172,137.931034 22.0689655,136.827586 22.0689655,135.172414 C22.0689655,133.517241 20.9655172,132.413793 19.3103448,132.413793 C14.6206897,132.413793 11.0344828,136 11.0344828,140.689655 Z" id="Path"></path>
                                <path d="M140.689655,121.37931 C132.689655,121.37931 125.517241,126.344828 122.758621,133.517241 C121.655172,132.689655 120,132.413793 118.62069,132.413793 C113.931034,132.413793 110.344828,136 110.344828,140.689655 L110.344828,140.965517 C110.344828,142.344828 109.241379,143.448276 107.862069,143.448276 C103.724138,143.448276 100.137931,146.482759 99.3103448,150.344828 C99.0344828,152.827586 99.5862069,155.310345 101.241379,156.965517 C102.896552,158.62069 105.103448,160 107.586207,160 L140.689655,160 C151.448276,160 160,151.448276 160,140.689655 C160,129.931034 151.448276,121.37931 140.689655,121.37931 Z M140.689655,154.482759 L107.586207,154.482759 C106.758621,154.482759 105.931034,154.206897 105.37931,153.37931 C104.827586,152.827586 104.827586,152 104.827586,151.172414 C105.103448,149.793103 106.482759,148.965517 107.862069,148.965517 C109.793103,148.965517 111.724138,148.137931 113.103448,147.034483 C114.482759,148.413793 116.413793,148.965517 118.62069,148.965517 C120.275862,148.965517 121.37931,147.862069 121.37931,146.206897 C121.37931,144.551724 120.275862,143.448276 118.62069,143.448276 C116.965517,143.448276 115.862069,142.344828 115.862069,140.689655 C115.862069,139.034483 116.965517,137.931034 118.62069,137.931034 C120.275862,137.931034 121.37931,139.034483 121.37931,140.689655 C121.37931,142.344828 122.482759,143.448276 124.137931,143.448276 C125.793103,143.448276 126.896552,142.344828 126.896552,140.689655 C126.896552,132.965517 132.965517,126.896552 140.689655,126.896552 C148.413793,126.896552 154.482759,132.965517 154.482759,140.689655 C154.482759,148.413793 148.413793,154.482759 140.689655,154.482759 Z" id="Shape" fill-rule="nonzero"></path>
                                <path d="M146.206897,137.931034 C144.551724,137.931034 143.448276,139.034483 143.448276,140.689655 C143.448276,142.344828 142.344828,143.448276 140.689655,143.448276 L135.172414,143.448276 C133.517241,143.448276 132.413793,144.551724 132.413793,146.206897 C132.413793,147.862069 133.517241,148.965517 135.172414,148.965517 L140.689655,148.965517 C145.37931,148.965517 148.965517,145.37931 148.965517,140.689655 C148.965517,139.034483 147.862069,137.931034 146.206897,137.931034 Z" id="Path"></path>
                            </g>
                        </g>
                    </g>
                </g>
            </g>
        </g>
    </g>
</svg>