<svg xmlns="http://www.w3.org/2000/svg" viewBox="0 0 416 361">
  <defs>
    <linearGradient id="broadcast-a" x1="50%" x2="50%" y1="0%" y2="100%">
      <stop offset="0%" stop-color="#DEFFFC"/>
      <stop offset="100%" stop-color="#BAFDF8"/>
    </linearGradient>
    <linearGradient id="broadcast-b" x1="50%" x2="50%" y1="0%" y2="100%">
      <stop offset="0%" stop-color="#B56DEF"/>
      <stop offset="100%" stop-color="#7E3BDB"/>
    </linearGradient>
    <linearGradient id="broadcast-c" x1="50%" x2="50%" y1="0%" y2="100%">
      <stop offset="0%" stop-color="#DEFFFC"/>
      <stop offset="100%" stop-color="#BAFDF8"/>
    </linearGradient>
    <linearGradient id="broadcast-d" x1="50%" x2="50%" y1="0%" y2="100%">
      <stop offset="0%" stop-color="#B56DEF"/>
      <stop offset="100%" stop-color="#7E3BDB"/>
    </linearGradient>
    <linearGradient id="broadcast-e" x1="50%" x2="50%" y1="0%" y2="100%">
      <stop offset="0%" stop-color="#DEFFFC"/>
      <stop offset="100%" stop-color="#BAFDF8"/>
    </linearGradient>
    <linearGradient id="broadcast-f" x1="50%" x2="50%" y1="0%" y2="100%">
      <stop offset="0%" stop-color="#B56DEF"/>
      <stop offset="100%" stop-color="#7E3BDB"/>
    </linearGradient>
    <linearGradient id="broadcast-g" x1="50%" x2="50%" y1="0%" y2="100%">
      <stop offset="0%" stop-color="#DEFFFC"/>
      <stop offset="100%" stop-color="#BAFDF8"/>
    </linearGradient>
    <linearGradient id="broadcast-h" x1="50%" x2="50%" y1="0%" y2="100%">
      <stop offset="0%" stop-color="#B56DEF"/>
      <stop offset="100%" stop-color="#7E3BDB"/>
    </linearGradient>
    <linearGradient id="broadcast-i" x1="50%" x2="50%" y1="0%" y2="100%">
      <stop offset="0%" stop-color="#DEFFFC"/>
      <stop offset="100%" stop-color="#BAFDF8"/>
    </linearGradient>
    <linearGradient id="broadcast-j" x1="50%" x2="50%" y1="0%" y2="100%">
      <stop offset="0%" stop-color="#B56DEF"/>
      <stop offset="100%" stop-color="#7E3BDB"/>
    </linearGradient>
    <linearGradient id="broadcast-k" x1="50%" x2="50%" y1="0%" y2="98.907%">
      <stop offset="0%" stop-color="#B56DEF"/>
      <stop offset="100%" stop-color="#944FE3"/>
    </linearGradient>
  </defs>
  <g fill="none" fill-rule="evenodd">
    <polygon fill="url(#broadcast-a)" points="0 121.927 31.223 33.172 121.71 0 205.586 22.734 234.547 94.516 248.535 193.844 247 289.278 228.934 336.141 175.406 361 128.293 336.781 103.812 289.278 94.895 240.885 36.316 223.035"/>
    <path fill="#FFF" stroke="url(#broadcast-b)" stroke-width="6" d="M118.964844,30.8398437 C165.710938,30.8398437 206.402344,62.2890625 208.640625,99.5390625 C210.878906,136.789062 221.539062,206.085937 221.34375,250.144531 C220.949219,276.179688 223.242188,321.714844 173.59375,319.8125 C123.945313,317.910156 137.048828,247.27832 133.642578,235.75 C131.923828,211.421875 100.248047,211.636719 75.8066406,196.587891 C51.3652344,181.539063 37.8867187,169.412109 37.479719,118.966797 C42.5039063,64.1777344 72.21875,30.8398437 118.964844,30.8398437 Z"/>
    <polygon fill="url(#broadcast-c)" points="269.824 116.941 269.824 166.648 282.555 182.555 295.129 166.648 295.129 116.941 282.477 104.289"/>
    <path stroke="url(#broadcast-d)" stroke-width="6" d="M269.824219,179.226949 L269.824219,206.508769 C270.689383,215.631285 273.857283,219.554688 279.554688,219.554688 C285.241303,219.554688 288.356368,215.64561 289.128907,206.523647 L289.128906,179.226949 C287.766158,172.301131 284.688211,169.289062 279.476562,169.289062 C274.264914,169.289062 271.186967,172.301131 269.824219,179.226949 Z M269.824219,206.508769 L269.824219,206.648437 L269.811645,206.374052 C269.81578,206.41908 269.819971,206.463983 269.824218,206.50876 Z"/>
    <polygon fill="url(#broadcast-e)" points="310.824 102.941 310.824 162.648 323.555 178.555 336.129 162.648 336.129 102.941 323.477 90.289"/>
    <path stroke="url(#broadcast-f)" stroke-width="6" d="M309.824219,179.226949 L309.824219,226.508769 C310.689383,235.631285 313.857283,239.554688 319.554687,239.554688 C325.241303,239.554688 328.356368,235.64561 329.128907,226.523647 L329.128906,179.226949 C327.766158,172.301131 324.688211,169.289062 319.476562,169.289062 C314.264914,169.289062 311.186967,172.301131 309.824219,179.226949 Z M309.824219,226.508769 L309.824219,226.648437 L309.811645,226.374052 C309.81578,226.41908 309.819971,226.463983 309.824218,226.50876 Z"/>
    <polygon fill="url(#broadcast-g)" points="349.824 83.941 349.824 163.648 362.555 179.555 375.129 163.648 375.129 83.941 362.477 71.289"/>
    <path stroke="url(#broadcast-h)" stroke-width="6" d="M349.824219,179.226949 L349.824219,256.508769 C350.689383,265.631285 353.857283,269.554687 359.554688,269.554687 C365.241303,269.554687 368.356368,265.64561 369.128907,256.523647 L369.128906,179.226949 C367.766158,172.301131 364.688211,169.289062 359.476562,169.289062 C354.264914,169.289062 351.186967,172.301131 349.824219,179.226949 Z M349.824219,256.508769 L349.824219,256.648437 L349.811645,256.374052 C349.81578,256.41908 349.819971,256.463983 349.824218,256.50876 Z"/>
    <polygon fill="url(#broadcast-i)" points="389.824 58.941 389.824 168.648 402.555 184.555 415.129 168.648 415.129 58.941 402.477 46.289"/>
    <path stroke="url(#broadcast-j)" stroke-width="6" d="M389.824219,179.226949 L389.824219,276.508769 C390.689383,285.631285 393.857283,289.554687 399.554687,289.554687 C405.241303,289.554687 408.356368,285.64561 409.128907,276.523647 L409.128906,179.226949 C407.766158,172.301131 404.688211,169.289062 399.476562,169.289062 C394.264914,169.289062 391.186967,172.301131 389.824219,179.226949 Z M389.824219,276.508769 L389.824219,276.648437 L389.811645,276.374052 C389.81578,276.41908 389.819971,276.463983 389.824218,276.50876 Z"/>
    <path stroke="url(#broadcast-k)" stroke-linecap="round" stroke-width="6" d="M60.2041016,113.227977 C54.4824219,133.839844 67.1992188,159.884766 87.9296875,170.251953 C108.660156,180.619141 114.894531,182.855469 128.679687,188.376953 C142.464844,193.898437 162.923828,206.1875 158.320312,238.212891"/>
  </g>
</svg>
