<?xml version="1.0" encoding="UTF-8"?>
<svg width="160px" height="124px" viewBox="0 0 160 124" version="1.1" xmlns="http://www.w3.org/2000/svg" xmlns:xlink="http://www.w3.org/1999/xlink">
    <!-- Generator: sketchtool 52.6 (67491) - http://www.bohemiancoding.com/sketch -->
    <title>1A5BF8C5-256B-4F3E-A82E-7F4100D7B53D</title>
    <desc>Created with sketchtool.</desc>
    <g id="Landingpage" stroke="none" stroke-width="1" fill="none" fill-rule="evenodd">
        <g id="Fundabit-–-0.6" transform="translate(-1020.000000, -1057.000000)">
            <g id="How-it-works" transform="translate(-214.000000, 868.000000)">
                <g id="fan-exclusives" transform="translate(1139.000000, 189.000000)">
                    <g id="icon/diamond" transform="translate(95.000000, 0.000000)">
                        <g>
                            <polygon id="Path" fill="#ADEDC5" points="36 14 3 47 80 124 157 47 124 14"></polygon>
                            <g id="Group" fill="#303030">
                                <path d="M0.206896552,37.1750742 C0.482758621,37.4504451 0.482758621,37.725816 0.75862069,38.0011869 L78,115.105045 C78,115.105045 78,115.105045 78.2758621,115.105045 C78.5517241,115.380415 78.5517241,115.380415 78.8275862,115.655786 L79.1034483,115.655786 C79.3793103,115.655786 79.6551724,115.931157 79.9310345,115.931157 C80.2068966,115.931157 80.4827586,115.931157 80.7586207,115.655786 L81.0344828,115.655786 C81.3103448,115.655786 81.5862069,115.380415 81.5862069,115.105045 C81.5862069,115.105045 81.5862069,115.105045 81.862069,115.105045 L159.103448,38.0011869 C159.37931,37.725816 159.655172,37.4504451 159.655172,37.1750742 C159.931034,36.6243323 159.931034,35.7982196 159.655172,34.9721068 C159.37931,34.6967359 159.37931,34.421365 159.103448,34.1459941 L126,1.10148368 C125.448276,0.55074184 124.896552,0.27537092 124.068966,0.27537092 L35.7931034,0.27537092 C34.9655172,0.27537092 34.4137931,0.55074184 33.862069,1.10148368 L0.75862069,34.1459941 C0.482758621,34.421365 0.206896552,34.6967359 0.206896552,34.9721068 C-0.0689655172,35.7982196 -0.0689655172,36.3489614 0.206896552,37.1750742 Z M150.551724,33.3198813 L124.068966,33.3198813 C122.413793,33.3198813 121.310345,34.421365 121.310345,36.0735905 C121.310345,37.725816 122.413793,38.8272997 124.068966,38.8272997 L150.551724,38.8272997 L88.2068966,101.061128 L115.793103,37.1750742 C115.793103,36.8997033 116.068966,36.6243323 116.068966,36.3489614 C116.068966,36.3489614 116.068966,36.3489614 116.068966,36.0735905 C116.068966,35.7982196 116.068966,35.5228487 115.793103,35.2474777 L115.793103,34.9721068 C115.793103,34.6967359 115.517241,34.421365 115.241379,34.1459941 L86.5517241,5.78278932 L122.965517,5.78278932 L150.551724,33.3198813 Z M36.8965517,5.78278932 L78.8275862,5.78278932 L106.413793,33.3198813 L102,33.3198813 C100.344828,33.3198813 99.2413793,34.421365 99.2413793,36.0735905 C99.2413793,37.725816 100.344828,38.8272997 102,38.8272997 L108.896552,38.8272997 L79.9310345,106.293175 L50.9655172,38.8272997 L90.9655172,38.8272997 C92.6206897,38.8272997 93.7241379,37.725816 93.7241379,36.0735905 C93.7241379,34.421365 92.6206897,33.3198813 90.9655172,33.3198813 L53.4482759,33.3198813 L70.8275862,15.9715134 C71.9310345,14.8700297 71.9310345,13.2178042 70.8275862,12.1163205 C69.7241379,11.0148368 68.0689655,11.0148368 66.9655172,12.1163205 L44.8965517,34.1459941 C44.6206897,34.421365 44.6206897,34.6967359 44.3448276,34.9721068 L44.3448276,35.2474777 C44.3448276,35.5228487 44.3448276,35.7982196 44.0689655,36.0735905 C44.0689655,36.0735905 44.0689655,36.0735905 44.0689655,36.3489614 C44.0689655,36.6243323 44.0689655,36.8997033 44.3448276,37.1750742 L71.9310345,101.061128 L9.31034483,38.8272997 L35.7931034,38.8272997 C37.4482759,38.8272997 38.5517241,37.725816 38.5517241,36.0735905 C38.5517241,34.421365 37.4482759,33.3198813 35.7931034,33.3198813 L9.31034483,33.3198813 L36.8965517,5.78278932 Z" id="Shape" fill-rule="nonzero"></path>
                                <path d="M33.862069,26.9863501 C34.4137931,27.537092 35.2413793,27.8124629 35.7931034,27.8124629 C36.3448276,27.8124629 37.1724138,27.537092 37.7241379,26.9863501 L48.7586207,15.9715134 C49.862069,14.8700297 49.862069,13.2178042 48.7586207,12.1163205 C47.6551724,11.0148368 46,11.0148368 44.8965517,12.1163205 L33.862069,23.1311573 C32.7586207,24.2326409 32.7586207,25.8848665 33.862069,26.9863501 Z" id="Path"></path>
                                <path d="M111.103448,15.9715134 L122.137931,26.9863501 C122.689655,27.537092 123.517241,27.8124629 124.068966,27.8124629 C124.62069,27.8124629 125.448276,27.537092 126,26.9863501 C127.103448,25.8848665 127.103448,24.2326409 126,23.1311573 L114.965517,12.1163205 C113.862069,11.0148368 112.206897,11.0148368 111.103448,12.1163205 C110,13.2178042 110,14.8700297 111.103448,15.9715134 Z" id="Path"></path>
                                <path d="M79.9310345,66.3643917 C78.2758621,66.3643917 77.1724138,67.4658754 77.1724138,69.1181009 L77.1724138,80.1329377 C77.1724138,81.7851632 78.2758621,82.8866469 79.9310345,82.8866469 C81.5862069,82.8866469 82.6896552,81.7851632 82.6896552,80.1329377 L82.6896552,69.1181009 C82.6896552,67.4658754 81.5862069,66.3643917 79.9310345,66.3643917 Z" id="Path"></path>
                            </g>
                        </g>
                    </g>
                </g>
            </g>
        </g>
    </g>
</svg>