<svg xmlns="http://www.w3.org/2000/svg" viewBox="0 0 368 333">
  <g fill="none" fill-rule="evenodd">
    <polygon fill="#BAFDF8" points="0 88.586 49.397 23.849 145.73 .932 231.9 43.271 337.084 55.244 367.377 150.273 331.098 222.76 357.227 270.48 333.891 332.656 213.129 321.752 149.939 301.309 89.67 300.418 35.023 280.857 48.623 225.072 12.967 173.326"/>
    <g stroke="#000" stroke-linecap="round" stroke-linejoin="round" stroke-width="10" transform="translate(205 69)">
      <path fill="#FFF" d="M66.6247156,162 C96.4419465,162 125.30539,201.106633 122.854227,225.792694 C111.501953,230.537109 85.7243416,234.430208 60.6353892,234.967712 C34.2832833,235.532278 8.7064778,228.542479 0.0232328117,225.792694 C-1.07242849,194.455685 36.8074846,162 66.6247156,162 Z"/>
      <path fill="#FFF" d="M66.2097995,0.179713414 C127.15949,-0.178533781 123.807012,82.7200173 122.01874,99.7988383 C120.230469,116.877659 109.75,156.346409 61.265625,155.998753 C11.4100933,155.641265 8.81110134,102.568607 0.106464442,99.7988383 C-0.981001828,68.5471582 5.26010894,0.537960608 66.2097995,0.179713414 Z" transform="matrix(1 0 0 -1 0 156.178)"/>
      <path d="M46,125.073916 C47.754791,133.221792 53.5077068,136.8126 63.2587473,135.846339 C73.0097878,134.880077 78.256872,131.264631 79,125"/>
    </g>
    <g stroke="#000" stroke-linecap="round" stroke-linejoin="round" stroke-width="10" transform="translate(44 33)">
      <path fill="#FFF" d="M87.6247156,168 C117.441947,168 146.30539,207.106633 143.854227,231.792694 C131.740234,236.820313 106.724342,240.430208 81.6353892,240.967712 C55.2832833,241.532278 29.7064778,234.542479 21.0232328,231.792694 C19.9275715,200.455685 57.8074846,168 87.6247156,168 Z"/>
      <path fill="#FFF" d="M87.2097995,49.0012729 C148.15949,48.6430257 145.45157,124.001555 143.01874,148.620398 C131.917028,149.235703 106.362033,161.431911 81.7165905,161.977827 C55.2929532,162.563132 29.8111013,151.390167 21.1064644,148.620398 C20.0189982,117.368718 26.2601089,49.3595201 87.2097995,49.0012729 Z" transform="matrix(1 0 0 -1 0 211)"/>
      <path d="M67,131.073916 C68.754791,139.221792 74.5077068,142.8126 84.2587473,141.846339 C94.0097878,140.880077 99.256872,137.264631 100,131"/>
      <path fill="#FFF" d="M87.3544836,0.00226211125 C138.665254,-0.312450764 161.499471,31.2648036 169.033252,62.9437231 C169.446265,64.6804085 173.537276,113.564285 169.868085,141.747116 C158.966797,145.323242 152.386719,148.72168 141.002825,140.911185 C137.630354,112.827182 142.900391,92.1220703 138.801758,66.6767578 C132.282227,58.1455078 124.024677,54.0978507 82.389859,52.5742318 C40.7550405,51.0506128 33.8603516,59.3320312 30.7148438,71.3232422 C29.926004,100.76203 30.0297144,109.812888 28.6293429,140.676465 C20.9755859,144.337891 13.1894531,146.055664 1.00185822,140.132904 C0.943961723,96.9362491 -1.390625,85.4287109 2.65552692,59.422281 C12.5377353,30.3005706 36.0437131,0.316974986 87.3544836,0.00226211125 Z"/>
    </g>
  </g>
</svg>
