<svg xmlns="http://www.w3.org/2000/svg" width="368" height="333" viewBox="0 0 368 333">
  <g fill="none" fill-rule="evenodd">
    <polygon fill="#35BFF7" points="0 88.586 49.397 23.849 145.73 .932 231.9 43.271 337.084 55.244 367.377 150.273 331.098 222.76 357.227 270.48 333.891 332.656 213.129 321.752 149.939 301.309 89.67 300.418 35.023 280.857 48.623 225.072 12.967 173.326"/>
    <g stroke="#000" stroke-linecap="round" stroke-linejoin="round" stroke-width="10" transform="translate(205 69)">
      <path fill="#FFF" d="M66.6247156,162 C96.4419465,162 125.30539,201.106633 122.854227,225.792694 C111.501953,230.537109 85.7243416,234.430208 60.6353892,234.967712 C34.2832833,235.532278 8.7064778,228.542479 0.0232328117,225.792694 C-1.07242849,194.455685 36.8074846,162 66.6247156,162 Z"/>
      <path fill="#FFF" d="M66.2097995,0.179713414 C127.15949,-0.178533781 123.807012,82.7200173 122.01874,99.7988383 C120.230469,116.877659 109.75,156.346409 61.265625,155.998753 C11.4100933,155.641265 8.81110134,102.568607 0.106464442,99.7988383 C-0.981001828,68.5471582 5.26010894,0.537960608 66.2097995,0.179713414 Z" transform="matrix(1 0 0 -1 0 156.178)"/>
      <path d="M46,125.073916 C47.754791,133.221792 53.5077068,136.8126 63.2587473,135.846339 C73.0097878,134.880077 78.256872,131.264631 79,125"/>
    </g>
    <g transform="translate(44 36)">
      <path fill="#FFF" stroke="#000" stroke-linecap="round" stroke-linejoin="round" stroke-width="10" d="M87.6247156,165 C117.441947,165 146.30539,204.106633 143.854227,228.792694 C131.740234,233.820313 106.724342,237.430208 81.6353892,237.967712 C55.2832833,238.532278 29.7064778,231.542479 21.0232328,228.792694 C19.9275715,197.455685 57.8074846,165 87.6247156,165 Z"/>
      <path fill="#FFF" d="M87.2097995,45.9844688 C148.15949,45.6262216 140.832031,113.500774 138.355469,140.928508 C130.695312,155.487102 106.362033,158.415107 81.7165905,158.961023 C55.2929532,159.546328 36.2539062,153.619915 31.0488281,137.352337 C29.349571,88.51897 26.2601089,46.342716 87.2097995,45.9844688 Z" transform="matrix(1 0 0 -1 0 204.983)"/>
      <path fill="#FFF" stroke="#000" stroke-linecap="round" stroke-linejoin="round" stroke-width="10" d="M39.1050994,56.7952912 C117.839474,51.9886506 134.437131,66.1175568 134.516114,113.896854 C134.593381,161.676151 55.3590057,165.312381 41.114865,160.921756" transform="matrix(0 1 1 0 -22.297 22.297)"/>
      <path stroke="#000" stroke-linecap="round" stroke-linejoin="round" stroke-width="10" d="M67,128.073916 C68.754791,136.221792 74.5077068,139.8126 84.2587473,138.846339 C94.0097878,137.880077 99.256872,134.264631 100,128"/>
      <path fill="#FFF" stroke="#000" stroke-linecap="round" stroke-linejoin="round" stroke-width="10" d="M86.0058594,0.23046875 C137.31663,-0.0842441252 161.499471,28.2648036 169.033252,59.9437231 C169.446265,61.6804085 173.537276,110.564285 169.868085,138.747116 C158.966797,142.323242 152.386719,145.72168 141.002825,137.911185 C137.630354,109.827182 142.900391,89.1220703 138.801758,63.6767578 C135.001953,53.9311523 124.646537,46.9982283 83.0117188,45.4746094 C41.3769003,43.9509905 33.8603516,56.3320312 30.7148438,68.3232422 C29.926004,97.7620301 30.0297144,106.812888 28.6293429,137.676465 C20.9755859,141.337891 13.1894531,143.055664 1.00185822,137.132904 C0.943961723,93.9362491 -1.390625,82.4287109 2.65552692,56.422281 C12.5377353,27.3005706 34.6950888,0.545181625 86.0058594,0.23046875 Z"/>
    </g>
  </g>
</svg>
