<svg xmlns="http://www.w3.org/2000/svg" viewBox="0 0 487 313">
  <g fill="none" fill-rule="evenodd">
    <g stroke="#FFF" stroke-linejoin="round" stroke-width="2" transform="translate(197 43)">
      <polygon points="39 126 78 72 39 94.708"/>
      <polygon points="39 87 78 63.877 39 47"/>
      <polygon points="0 87 39 63.877 0 47" transform="matrix(-1 0 0 1 39 0)"/>
      <polygon points="0 46.806 39 63 0 0" transform="matrix(-1 0 0 1 39 0)"/>
      <polygon points="39 46.806 78 63 39 0"/>
      <polygon points="0 126 39 72 0 94.708" transform="matrix(-1 0 0 1 39 0)"/>
    </g>
    <g stroke="#FFF" stroke-linecap="round" stroke-linejoin="round" stroke-width="2" transform="translate(102.563 52.402)">
      <path d="M89.4814453,28.072753 C33.8173828,1.79736238 27.5791016,-9.80810637 10.0458984,9.90087801"/>
      <polygon points="0 9.651 0 22.833 13.869 18.969"/>
    </g>
    <g stroke="#FFF" stroke-linecap="round" stroke-linejoin="round" stroke-width="2" transform="translate(124.563 157.402)">
      <path d="M77.4814453,0.0727530051 C55.5185547,49.166503 28.4482422,21.744628 10.9150391,41.4536124"/>
      <polygon points="0 41.651 0 54.833 13.869 50.969"/>
    </g>
    <g stroke="#FFF" stroke-width="2" transform="translate(48.111 88.827)">
      <g transform="translate(5)">
        <path stroke-linecap="round" stroke-linejoin="round" d="M29.4921875 2.07677521C12.8085937-4.93201385.190429688 7.14513459 2.84217094e-14 18.2740408M44.2529297 17.7320487L12.0556641 17.760369"/>
        <circle cx="37.889" cy="8.173" r="1"/>
      </g>
      <g transform="rotate(180 22.5 22.5)">
        <path stroke-linecap="round" stroke-linejoin="round" d="M29.4921875 2.07677521C12.8085937-4.93201385.190429688 7.14513459 2.84217094e-14 18.2740408M44.2529297 17.7320487L12.0556641 17.760369"/>
        <circle cx="37.889" cy="8.173" r="1"/>
      </g>
    </g>
    <path fill="#FFF" fill-rule="nonzero" d="M412.799075,79.253317 L410.742434,79.253317 L410.742434,86.0135709 C410.742434,86.4028958 410.655684,86.6917113 410.48218,86.880026 C410.308677,87.0683407 410.084395,87.1624967 409.809329,87.1624967 C409.53003,87.1624967 409.302575,87.0672828 409.126956,86.8768522 C408.951336,86.6864215 408.863528,86.398664 408.863528,86.0135709 L408.863528,79.253317 L406.806887,79.253317 C406.485271,79.253317 406.246178,79.1824356 406.089602,79.0406705 C405.933026,78.8989055 405.854739,78.7116515 405.854739,78.478903 C405.854739,78.2376908 405.9362,78.047263 406.099124,77.9076139 C406.262048,77.7679648 406.497966,77.6981412 406.806887,77.6981412 L412.799075,77.6981412 C413.124923,77.6981412 413.367189,77.7700806 413.525881,77.9139616 C413.684574,78.0578425 413.763918,78.2461544 413.763918,78.478903 C413.763918,78.7116515 413.683516,78.8989055 413.522708,79.0406705 C413.361899,79.1824356 413.120691,79.253317 412.799075,79.253317 Z M415.344485,81.1956998 L416.474368,85.0677701 L417.502688,81.4686491 C417.612715,81.0920196 417.694175,80.8349421 417.747073,80.6974088 C417.79997,80.5598756 417.899416,80.428692 418.045413,80.3038541 C418.191409,80.1790163 418.391359,80.1165983 418.645266,80.1165983 C418.903405,80.1165983 419.10547,80.1790163 419.251467,80.3038541 C419.397464,80.428692 419.500084,80.5641073 419.559329,80.7101041 C419.618574,80.856101 419.701092,81.1089467 419.806887,81.4686491 L420.835208,85.0677701 L421.977786,81.1956998 C422.053958,80.9164016 422.115318,80.7143365 422.161868,80.5894987 C422.208417,80.4646608 422.286704,80.3546359 422.396731,80.2594205 C422.506758,80.1642052 422.665447,80.1165983 422.872805,80.1165983 C423.080163,80.1165983 423.260011,80.1885377 423.412356,80.3324186 C423.5647,80.4762995 423.640872,80.6455687 423.640872,80.8402311 C423.640872,81.0179663 423.57528,81.2866811 423.444094,81.6463834 L422.028567,85.7977506 C421.905845,86.1489893 421.810631,86.4028931 421.742922,86.5594694 C421.675214,86.7160457 421.568363,86.8556927 421.422366,86.9784147 C421.276369,87.1011366 421.07642,87.1624967 420.822512,87.1624967 C420.560141,87.1624967 420.353844,87.0969049 420.203616,86.9657194 C420.053387,86.8345338 419.942304,86.6737281 419.870364,86.4832975 C419.798423,86.2928668 419.720136,86.0453107 419.635501,85.7406217 L418.645266,82.3636686 L417.68677,85.7406217 C417.559816,86.2103506 417.422285,86.5647579 417.274172,86.8038541 C417.12606,87.0429504 416.865808,87.1624967 416.493411,87.1624967 C416.30298,87.1624967 416.141116,87.1254691 416.007815,87.0514127 C415.874514,86.9773564 415.763431,86.8715632 415.674563,86.7340299 C415.585695,86.5964967 415.507408,86.4335751 415.4397,86.2452604 C415.371991,86.0569456 415.319094,85.9077772 415.281008,85.7977506 L413.878176,81.6463834 C413.738527,81.2570586 413.668704,80.9883438 413.668704,80.8402311 C413.668704,80.6540322 413.742759,80.486879 413.890872,80.3387662 C414.038984,80.1906535 414.220949,80.1165983 414.43677,80.1165983 C414.724532,80.1165983 414.919191,80.198059 415.020754,80.360983 C415.122317,80.523907 415.230226,80.8021432 415.344485,81.1956998 Z M426.567141,81.100485 L426.567141,86.1087858 C426.567141,86.4557927 426.484622,86.7181599 426.319583,86.8958951 C426.154543,87.0736304 425.945072,87.1624967 425.691165,87.1624967 C425.437257,87.1624967 425.23096,87.0715145 425.072268,86.8895475 C424.913576,86.7075804 424.834231,86.4473291 424.834231,86.1087858 L424.834231,81.1512662 C424.834231,80.8084911 424.913576,80.5503556 425.072268,80.3768522 C425.23096,80.2033487 425.437257,80.1165983 425.691165,80.1165983 C425.945072,80.1165983 426.154543,80.2033487 426.319583,80.3768522 C426.484622,80.5503556 426.567141,80.7915642 426.567141,81.100485 Z M425.710208,79.3104459 C425.468995,79.3104459 425.262699,79.2363907 425.091311,79.088278 C424.919923,78.9401652 424.834231,78.7306947 424.834231,78.45986 C424.834231,78.2144161 424.922039,78.012351 425.097659,77.8536588 C425.273278,77.6949666 425.477459,77.6156217 425.710208,77.6156217 C425.934493,77.6156217 426.133384,77.6875611 426.306887,77.831442 C426.480391,77.9753229 426.567141,78.1847935 426.567141,78.45986 C426.567141,78.7264629 426.482507,78.9348755 426.313235,79.0851041 C426.143963,79.2353327 425.942956,79.3104459 425.710208,79.3104459 Z M428.452395,80.268942 L428.642825,80.268942 L428.642825,79.2279264 C428.642825,78.9486281 428.65023,78.7296362 428.665042,78.570944 C428.679853,78.4122518 428.721112,78.2757785 428.788821,78.1615201 C428.856529,78.04303 428.953859,77.9467581 429.080813,77.8727018 C429.207767,77.7986454 429.34953,77.7616178 429.506106,77.7616178 C429.726159,77.7616178 429.92505,77.8441365 430.102786,78.0091764 C430.221276,78.119203 430.296389,78.2535604 430.328127,78.4122526 C430.359866,78.5709448 430.375735,78.7962843 430.375735,79.088278 L430.375735,80.268942 L431.010501,80.268942 C431.255944,80.268942 431.443198,80.3271283 431.572268,80.4435026 C431.701338,80.5598768 431.765872,80.7090453 431.765872,80.8910123 C431.765872,81.1237609 431.673832,81.2866824 431.489749,81.3797819 C431.305666,81.4728813 431.042241,81.5194303 430.699465,81.5194303 L430.375735,81.5194303 L430.375735,84.7059537 C430.375735,84.9767884 430.385256,85.1852011 430.404299,85.3311979 C430.423342,85.4771947 430.474123,85.5956831 430.556643,85.6866666 C430.639163,85.7776502 430.77352,85.8231412 430.959719,85.8231412 C431.061282,85.8231412 431.198813,85.8051564 431.372317,85.7691862 C431.54582,85.7332159 431.681236,85.7152311 431.778567,85.7152311 C431.918216,85.7152311 432.04411,85.7713015 432.156252,85.883444 C432.268395,85.9955865 432.324465,86.1341756 432.324465,86.2992155 C432.324465,86.5785137 432.172123,86.792216 431.867434,86.9403287 C431.562745,87.0884415 431.124761,87.1624967 430.553469,87.1624967 C430.0118,87.1624967 429.601322,87.0715145 429.322024,86.8895475 C429.042726,86.7075804 428.859703,86.4557926 428.772952,86.1341764 C428.6862,85.8125602 428.642825,85.3830398 428.642825,84.8456022 L428.642825,81.5194303 L428.414309,81.5194303 C428.164633,81.5194303 427.974206,81.4601861 427.84302,81.3416959 C427.711834,81.2232058 427.646243,81.0729794 427.646243,80.8910123 C427.646243,80.7090453 427.715008,80.5598768 427.852542,80.4435026 C427.990075,80.3271283 428.190024,80.268942 428.452395,80.268942 Z M433.054446,80.268942 L433.244876,80.268942 L433.244876,79.2279264 C433.244876,78.9486281 433.252281,78.7296362 433.267092,78.570944 C433.281904,78.4122518 433.323163,78.2757785 433.390872,78.1615201 C433.45858,78.04303 433.55591,77.9467581 433.682864,77.8727018 C433.809818,77.7986454 433.95158,77.7616178 434.108157,77.7616178 C434.32821,77.7616178 434.527101,77.8441365 434.704836,78.0091764 C434.823327,78.119203 434.89844,78.2535604 434.930178,78.4122526 C434.961917,78.5709448 434.977786,78.7962843 434.977786,79.088278 L434.977786,80.268942 L435.612551,80.268942 C435.857995,80.268942 436.045249,80.3271283 436.174319,80.4435026 C436.303389,80.5598768 436.367922,80.7090453 436.367922,80.8910123 C436.367922,81.1237609 436.275882,81.2866824 436.091799,81.3797819 C435.907716,81.4728813 435.644291,81.5194303 435.301516,81.5194303 L434.977786,81.5194303 L434.977786,84.7059537 C434.977786,84.9767884 434.987307,85.1852011 435.00635,85.3311979 C435.025393,85.4771947 435.076174,85.5956831 435.158694,85.6866666 C435.241214,85.7776502 435.375571,85.8231412 435.56177,85.8231412 C435.663333,85.8231412 435.800864,85.8051564 435.974368,85.7691862 C436.147871,85.7332159 436.283286,85.7152311 436.380618,85.7152311 C436.520267,85.7152311 436.646161,85.7713015 436.758303,85.883444 C436.870446,85.9955865 436.926516,86.1341756 436.926516,86.2992155 C436.926516,86.5785137 436.774174,86.792216 436.469485,86.9403287 C436.164796,87.0884415 435.726812,87.1624967 435.15552,87.1624967 C434.613851,87.1624967 434.203373,87.0715145 433.924075,86.8895475 C433.644776,86.7075804 433.461754,86.4557926 433.375002,86.1341764 C433.288251,85.8125602 433.244876,85.3830398 433.244876,84.8456022 L433.244876,81.5194303 L433.01636,81.5194303 C432.766684,81.5194303 432.576256,81.4601861 432.445071,81.3416959 C432.313885,81.2232058 432.248293,81.0729794 432.248293,80.8910123 C432.248293,80.7090453 432.317059,80.5598768 432.454592,80.4435026 C432.592126,80.3271283 432.792075,80.268942 433.054446,80.268942 Z M442.398196,84.0648405 L439.008547,84.0648405 C439.012779,84.4583971 439.092124,84.8053989 439.246584,85.1058561 C439.401045,85.4063133 439.606284,85.6327108 439.862307,85.7850553 C440.118331,85.9373998 440.400798,86.0135709 440.709719,86.0135709 C440.917077,86.0135709 441.106447,85.9892385 441.277834,85.9405729 C441.449222,85.8919073 441.615317,85.8157362 441.776126,85.7120573 C441.936934,85.6083784 442.085044,85.4972955 442.220461,85.3788053 C442.355879,85.2603151 442.531496,85.0995094 442.747317,84.8963834 C442.836185,84.8202112 442.963136,84.7821256 443.128176,84.7821256 C443.305912,84.7821256 443.44979,84.8307905 443.559817,84.9281217 C443.669844,85.0254529 443.724856,85.1629841 443.724856,85.3407194 C443.724856,85.4972957 443.663496,85.6803179 443.540774,85.8897916 C443.418052,86.0992653 443.232914,86.3002724 442.985354,86.492819 C442.737794,86.6853655 442.426762,86.8451133 442.052249,86.972067 C441.677735,87.0990208 441.247157,87.1624967 440.760501,87.1624967 C439.647539,87.1624967 438.782151,86.8451171 438.164309,86.2103483 C437.546467,85.5755795 437.237551,84.7144227 437.237551,83.6268522 C437.237551,83.1148053 437.313722,82.6397938 437.466067,82.2018033 C437.618411,81.7638129 437.840577,81.388247 438.132571,81.0750944 C438.424564,80.7619418 438.784261,80.5217912 439.211672,80.3546354 C439.639083,80.1874796 440.113037,80.103903 440.633547,80.103903 C441.310634,80.103903 441.891439,80.2467238 442.375979,80.5323698 C442.860519,80.8180157 443.22339,81.187234 443.464602,81.6400358 C443.705814,82.0928375 443.826418,82.5540959 443.826418,83.0238248 C443.826418,83.4596994 443.701582,83.7421673 443.451907,83.8712369 C443.202231,84.0003066 442.850998,84.0648405 442.398196,84.0648405 Z M439.008547,83.0809537 L442.150637,83.0809537 C442.108319,82.4885029 441.948572,82.0452293 441.671389,81.7511198 C441.394207,81.4570102 441.02922,81.3099576 440.576418,81.3099576 C440.144776,81.3099576 439.790368,81.4591261 439.513186,81.7574674 C439.236004,82.0558087 439.067792,82.4969664 439.008547,83.0809537 Z M447.006594,84.6615201 L447.006594,86.1087858 C447.006594,86.4600245 446.924076,86.7234496 446.759036,86.899069 C446.593996,87.0746883 446.384525,87.1624967 446.130618,87.1624967 C445.880942,87.1624967 445.675703,87.0736304 445.514895,86.8958951 C445.354087,86.7181599 445.273684,86.4557927 445.273684,86.1087858 L445.273684,81.284567 C445.273684,80.5059173 445.555094,80.1165983 446.117922,80.1165983 C446.405684,80.1165983 446.613039,80.2075804 446.739993,80.3895475 C446.866946,80.5715145 446.93677,80.8402293 446.949465,81.1956998 C447.156823,80.8402293 447.369468,80.5715145 447.587405,80.3895475 C447.805342,80.2075804 448.096273,80.1165983 448.460208,80.1165983 C448.824142,80.1165983 449.177491,80.2075804 449.520266,80.3895475 C449.863041,80.5715145 450.034426,80.8127231 450.034426,81.1131803 C450.034426,81.3247699 449.961429,81.4993287 449.815432,81.6368619 C449.669435,81.7743952 449.511803,81.8431608 449.342532,81.8431608 C449.279055,81.8431608 449.125655,81.8040173 448.882327,81.7257291 C448.638999,81.647441 448.424238,81.6082975 448.23804,81.6082975 C447.984132,81.6082975 447.776777,81.6749472 447.615969,81.8082487 C447.455161,81.9415501 447.330325,82.1393834 447.241458,82.4017545 C447.15259,82.6641256 447.09123,82.9762156 447.057376,83.3380338 C447.023521,83.699852 447.006594,84.1410097 447.006594,84.6615201 Z" transform="rotate(-5 427.945 82.39)"/>
    <g stroke="#FFF" stroke-linecap="round" stroke-linejoin="round" stroke-width="2" transform="matrix(-1 0 0 1 353.563 40.017)">
      <path d="M87.6650391,12.8600296 C32.0009766,-13.4153611 44.2919922,9.54167018 16.2275391,11.1686233"/>
      <polygon points="2.694 6.983 2.694 20.166 16.563 16.301" transform="rotate(40 9.629 13.574)"/>
    </g>
    <g stroke="#FFF" stroke-linecap="round" stroke-linejoin="round" stroke-width="2" transform="matrix(-1 0 0 1 360.563 113.017)">
      <path d="M70.6652041,0.860029557 C8.79589844,5.42643581 68.1826172,17.3893264 15.9521484,36.5299514"/>
      <polygon points="2.694 32.983 2.694 46.166 16.563 42.301" transform="rotate(31 9.629 39.574)"/>
    </g>
    <g stroke="#FFF" stroke-linecap="round" stroke-linejoin="round" stroke-width="2" transform="matrix(-1 0 0 1 292.563 161.017)">
      <path d="M34.1201172,0.0182326815 C7.76660156,24.5963577 61.3564453,39.1197952 15.8349609,71.3209671"/>
      <polygon points="2.694 66.983 2.694 80.166 16.563 76.301" transform="rotate(40 9.629 73.574)"/>
    </g>
    <path stroke="#979797"/>
    <path stroke="#FFF" stroke-linejoin="round" stroke-width="2" d="M365,78.445971 C379.179048,85.5284776 391.744531,84.3498544 402.696449,74.9101012 C409.750281,68.5324672 413.357082,60.3082411 413.516853,50.2374232 L419,44.1963625 L412.609115,45.6324089 C415.602051,43.8892958 417.16062,41.9571427 417.284822,39.8359496 L410.315189,42.3281953 C408.034035,40.4916307 405.830221,39.4198561 403.703746,39.1128716 C399.879194,38.5607475 396.743597,40.1745647 395.676912,40.9202583 C393.217259,42.6397414 390.508831,46.109776 390.836094,52.4442596 C383.412201,52.0182621 375.918896,48.2368869 368.356179,41.100134 C364.391186,46.8208951 368.832904,53.9939766 371.525068,55.6765969 C369.244243,55.1228741 367.606733,54.6816712 366.612538,54.3529882 C367.483927,59.1126043 368.260932,62.9462121 375.218614,65.4682932 C373.884669,65.6488675 372.361628,65.7531683 370.649489,65.7811955 C372.343556,70.5463184 375.680841,73.0789201 380.661346,73.3790005 C376.28255,76.7508165 371.062101,78.4398066 365,78.445971 Z"/>
    <path fill="#FFF" fill-rule="nonzero" d="M103.571533,133.207031 C103.571533,133.76986 103.426597,134.275551 103.136719,134.724121 C102.846841,135.172691 102.42261,135.523925 101.864014,135.777832 C101.305417,136.03174 100.643152,136.158691 99.8771973,136.158691 C98.9588984,136.158691 98.201419,135.985191 97.6047363,135.638184 C97.1815571,135.388508 96.8377292,135.055259 96.5732422,134.638428 C96.3087552,134.221596 96.1765137,133.816408 96.1765137,133.422852 C96.1765137,133.194335 96.2558586,132.998617 96.4145508,132.835693 C96.573243,132.672769 96.775308,132.591309 97.020752,132.591309 C97.2196462,132.591309 97.3878574,132.654785 97.5253906,132.781738 C97.6629239,132.908692 97.7803543,133.097004 97.8776855,133.34668 C97.9961757,133.642905 98.1241855,133.890461 98.2617188,134.089355 C98.399252,134.28825 98.5928536,134.452229 98.8425293,134.581299 C99.092205,134.710368 99.420164,134.774902 99.826416,134.774902 C100.385013,134.774902 100.838865,134.644777 101.187988,134.384521 C101.537111,134.124266 101.71167,133.799481 101.71167,133.410156 C101.71167,133.101235 101.617514,132.850506 101.429199,132.657959 C101.240884,132.465412 100.99756,132.31836 100.699219,132.216797 C100.400877,132.115234 100.002037,132.007325 99.5026855,131.893066 C98.8340624,131.73649 98.2744163,131.553468 97.8237305,131.343994 C97.3730446,131.13452 97.0154636,130.848879 96.7509766,130.487061 C96.4864896,130.125242 96.354248,129.675621 96.354248,129.138184 C96.354248,128.626137 96.4938951,128.171226 96.7731934,127.773438 C97.0524916,127.375649 97.4566217,127.069907 97.9855957,126.856201 C98.5145697,126.642496 99.1366338,126.535645 99.8518066,126.535645 C100.423099,126.535645 100.917153,126.606526 101.333984,126.748291 C101.750816,126.890056 102.09676,127.078368 102.371826,127.313232 C102.646893,127.548097 102.8479,127.794595 102.974854,128.052734 C103.101807,128.310874 103.165283,128.562662 103.165283,128.808105 C103.165283,129.03239 103.085938,129.234455 102.927246,129.414307 C102.768554,129.594158 102.570721,129.684082 102.33374,129.684082 C102.117919,129.684082 101.953939,129.630127 101.841797,129.522217 C101.729654,129.414306 101.607992,129.237631 101.476807,128.992188 C101.307535,128.640949 101.104412,128.366944 100.867432,128.170166 C100.630451,127.973388 100.249596,127.875 99.7248535,127.875 C99.2381974,127.875 98.8457046,127.981851 98.5473633,128.195557 C98.2490219,128.409262 98.0998535,128.66634 98.0998535,128.966797 C98.0998535,129.152996 98.1506343,129.313801 98.2521973,129.449219 C98.3537603,129.584636 98.4934073,129.701009 98.6711426,129.79834 C98.8488778,129.895671 99.0287263,129.971842 99.2106934,130.026855 C99.3926604,130.081869 99.6931131,130.162272 100.112061,130.268066 C100.636803,130.390788 101.111814,130.526204 101.537109,130.674316 C101.962404,130.822429 102.324217,131.002278 102.622559,131.213867 C102.9209,131.425457 103.153645,131.693114 103.320801,132.016846 C103.487957,132.340578 103.571533,132.737302 103.571533,133.207031 Z M109.887451,133.061035 L106.497803,133.061035 C106.502035,133.454592 106.581379,133.801594 106.73584,134.102051 C106.8903,134.402508 107.095539,134.628905 107.351562,134.78125 C107.607586,134.933595 107.890054,135.009766 108.198975,135.009766 C108.406332,135.009766 108.595702,134.985433 108.76709,134.936768 C108.938477,134.888102 109.104573,134.811931 109.265381,134.708252 C109.426189,134.604573 109.574299,134.49349 109.709717,134.375 C109.845134,134.25651 110.020751,134.095704 110.236572,133.892578 C110.32544,133.816406 110.452392,133.77832 110.617432,133.77832 C110.795167,133.77832 110.939046,133.826985 111.049072,133.924316 C111.159099,134.021648 111.214111,134.159179 111.214111,134.336914 C111.214111,134.49349 111.152751,134.676513 111.030029,134.885986 C110.907307,135.09546 110.722169,135.296467 110.474609,135.489014 C110.22705,135.68156 109.916017,135.841308 109.541504,135.968262 C109.16699,136.095215 108.736412,136.158691 108.249756,136.158691 C107.136795,136.158691 106.271406,135.841312 105.653564,135.206543 C105.035723,134.571774 104.726807,133.710617 104.726807,132.623047 C104.726807,132.111 104.802978,131.635989 104.955322,131.197998 C105.107667,130.760008 105.329833,130.384442 105.621826,130.071289 C105.91382,129.758136 106.273517,129.517986 106.700928,129.35083 C107.128339,129.183674 107.602292,129.100098 108.122803,129.100098 C108.799889,129.100098 109.380694,129.242918 109.865234,129.528564 C110.349775,129.81421 110.712645,130.183429 110.953857,130.63623 C111.19507,131.089032 111.315674,131.550291 111.315674,132.02002 C111.315674,132.455894 111.190838,132.738362 110.941162,132.867432 C110.691486,132.996501 110.340253,133.061035 109.887451,133.061035 Z M106.497803,132.077148 L109.639893,132.077148 C109.597575,131.484698 109.437827,131.041424 109.160645,130.747314 C108.883462,130.453205 108.518476,130.306152 108.065674,130.306152 C107.634031,130.306152 107.279624,130.455321 107.002441,130.753662 C106.725259,131.052003 106.557048,131.493161 106.497803,132.077148 Z M118.977295,130.382324 L118.977295,135.416016 C118.977295,135.991539 118.915935,136.486652 118.793213,136.901367 C118.670491,137.316083 118.473716,137.658853 118.202881,137.929688 C117.932046,138.200522 117.577639,138.401529 117.139648,138.532715 C116.701658,138.6639 116.156823,138.729492 115.505127,138.729492 C114.908444,138.729492 114.375246,138.645916 113.905518,138.47876 C113.435789,138.311604 113.073976,138.095786 112.820068,137.831299 C112.566161,137.566812 112.439209,137.294923 112.439209,137.015625 C112.439209,136.804035 112.511148,136.631592 112.655029,136.498291 C112.79891,136.36499 112.972411,136.29834 113.175537,136.29834 C113.429445,136.29834 113.65161,136.410481 113.842041,136.634766 C113.93514,136.749024 114.031412,136.864339 114.130859,136.980713 C114.230306,137.097087 114.340331,137.196533 114.460938,137.279053 C114.581544,137.361573 114.72648,137.422933 114.895752,137.463135 C115.065024,137.503337 115.259683,137.523438 115.479736,137.523438 C115.928306,137.523438 116.276366,137.46102 116.523926,137.336182 C116.771486,137.211344 116.944986,137.036785 117.044434,136.8125 C117.143881,136.588215 117.202067,136.348064 117.218994,136.092041 C117.235921,135.836018 117.248616,135.424482 117.25708,134.857422 C116.990477,135.22982 116.682619,135.513345 116.333496,135.708008 C115.984373,135.90267 115.568606,136 115.086182,136 C114.506426,136 113.999677,135.85189 113.565918,135.555664 C113.132159,135.259439 112.798911,134.844729 112.566162,134.311523 C112.333414,133.778318 112.217041,133.162601 112.217041,132.464355 C112.217041,131.943845 112.287922,131.474123 112.429688,131.055176 C112.571453,130.636228 112.773518,130.282879 113.035889,129.995117 C113.29826,129.707355 113.600828,129.490479 113.943604,129.344482 C114.286379,129.198486 114.663003,129.125488 115.073486,129.125488 C115.564374,129.125488 115.989663,129.219644 116.349365,129.407959 C116.709068,129.596274 117.043374,129.891437 117.352295,130.293457 L117.352295,130.058594 C117.352295,129.758137 117.42635,129.525391 117.574463,129.360352 C117.722576,129.195312 117.913003,129.112793 118.145752,129.112793 C118.480064,129.112793 118.702229,129.22176 118.812256,129.439697 C118.922282,129.657635 118.977295,129.97184 118.977295,130.382324 Z M113.956299,132.578613 C113.956299,133.281091 114.109699,133.812173 114.416504,134.171875 C114.723309,134.531577 115.120033,134.711426 115.606689,134.711426 C115.894451,134.711426 116.16634,134.634197 116.422363,134.479736 C116.678387,134.325276 116.886799,134.092531 117.047607,133.781494 C117.208416,133.470457 117.288818,133.092776 117.288818,132.648438 C117.288818,131.941728 117.133302,131.391604 116.822266,130.998047 C116.511229,130.60449 116.101809,130.407715 115.593994,130.407715 C115.098874,130.407715 114.70215,130.596027 114.403809,130.972656 C114.105467,131.349286 113.956299,131.884599 113.956299,132.578613 Z M126.49292,132.762695 L126.49292,135.066895 C126.49292,135.430829 126.410401,135.703775 126.245361,135.885742 C126.080321,136.067709 125.862387,136.158691 125.591553,136.158691 C125.329182,136.158691 125.116537,136.067709 124.953613,135.885742 C124.790689,135.703775 124.709229,135.430829 124.709229,135.066895 L124.709229,132.305664 C124.709229,131.869789 124.694417,131.531251 124.664795,131.290039 C124.635172,131.048827 124.55477,130.850994 124.423584,130.696533 C124.292398,130.542073 124.085044,130.464844 123.801514,130.464844 C123.234454,130.464844 122.861004,130.659503 122.681152,131.048828 C122.501301,131.438153 122.411377,131.996741 122.411377,132.724609 L122.411377,135.066895 C122.411377,135.426597 122.329916,135.698485 122.166992,135.882568 C122.004068,136.066651 121.789308,136.158691 121.522705,136.158691 C121.260334,136.158691 121.045574,136.066651 120.878418,135.882568 C120.711262,135.698485 120.627686,135.426597 120.627686,135.066895 L120.627686,130.109375 C120.627686,129.783527 120.702799,129.535971 120.853027,129.366699 C121.003256,129.197428 121.201089,129.112793 121.446533,129.112793 C121.683514,129.112793 121.881347,129.192138 122.040039,129.35083 C122.198731,129.509522 122.278076,129.728514 122.278076,130.007812 L122.278076,130.172852 C122.578533,129.813149 122.900145,129.548666 123.24292,129.379395 C123.585695,129.210123 123.966551,129.125488 124.385498,129.125488 C124.821373,129.125488 125.195881,129.212239 125.509033,129.385742 C125.822186,129.559246 126.080321,129.821613 126.283447,130.172852 C126.575441,129.817381 126.888589,129.553956 127.2229,129.382568 C127.557212,129.211181 127.927488,129.125488 128.33374,129.125488 C128.807701,129.125488 129.216063,129.218586 129.558838,129.404785 C129.901613,129.590984 130.157633,129.857583 130.326904,130.20459 C130.475017,130.517742 130.549072,131.010739 130.549072,131.683594 L130.549072,135.066895 C130.549072,135.430829 130.466554,135.703775 130.301514,135.885742 C130.136474,136.067709 129.91854,136.158691 129.647705,136.158691 C129.385334,136.158691 129.170574,136.066651 129.003418,135.882568 C128.836262,135.698485 128.752686,135.426597 128.752686,135.066895 L128.752686,132.15332 C128.752686,131.780923 128.736817,131.482586 128.705078,131.258301 C128.67334,131.034016 128.587647,130.845704 128.447998,130.693359 C128.308349,130.541015 128.096762,130.464844 127.813232,130.464844 C127.584716,130.464844 127.36784,130.532551 127.162598,130.667969 C126.957356,130.803386 126.797608,130.98535 126.68335,131.213867 C126.556396,131.505861 126.49292,132.022132 126.49292,132.762695 Z M137.068115,133.061035 L133.678467,133.061035 C133.682699,133.454592 133.762043,133.801594 133.916504,134.102051 C134.070964,134.402508 134.276203,134.628905 134.532227,134.78125 C134.78825,134.933595 135.070718,135.009766 135.379639,135.009766 C135.586996,135.009766 135.776366,134.985433 135.947754,134.936768 C136.119141,134.888102 136.285237,134.811931 136.446045,134.708252 C136.606853,134.604573 136.754964,134.49349 136.890381,134.375 C137.025798,134.25651 137.201415,134.095704 137.417236,133.892578 C137.506104,133.816406 137.633056,133.77832 137.798096,133.77832 C137.975831,133.77832 138.11971,133.826985 138.229736,133.924316 C138.339763,134.021648 138.394775,134.159179 138.394775,134.336914 C138.394775,134.49349 138.333415,134.676513 138.210693,134.885986 C138.087971,135.09546 137.902833,135.296467 137.655273,135.489014 C137.407714,135.68156 137.096682,135.841308 136.722168,135.968262 C136.347654,136.095215 135.917076,136.158691 135.43042,136.158691 C134.317459,136.158691 133.45207,135.841312 132.834229,135.206543 C132.216387,134.571774 131.907471,133.710617 131.907471,132.623047 C131.907471,132.111 131.983642,131.635989 132.135986,131.197998 C132.288331,130.760008 132.510497,130.384442 132.80249,130.071289 C133.094484,129.758136 133.454181,129.517986 133.881592,129.35083 C134.309003,129.183674 134.782956,129.100098 135.303467,129.100098 C135.980554,129.100098 136.561358,129.242918 137.045898,129.528564 C137.530439,129.81421 137.893309,130.183429 138.134521,130.63623 C138.375734,131.089032 138.496338,131.550291 138.496338,132.02002 C138.496338,132.455894 138.371502,132.738362 138.121826,132.867432 C137.87215,132.996501 137.520917,133.061035 137.068115,133.061035 Z M133.678467,132.077148 L136.820557,132.077148 C136.778239,131.484698 136.618491,131.041424 136.341309,130.747314 C136.064126,130.453205 135.69914,130.306152 135.246338,130.306152 C134.814695,130.306152 134.460288,130.455321 134.183105,130.753662 C133.905923,131.052003 133.737712,131.493161 133.678467,132.077148 Z M141.530518,130.071289 L141.530518,130.280762 C141.835207,129.878741 142.168455,129.583578 142.530273,129.395264 C142.892092,129.206949 143.307859,129.112793 143.777588,129.112793 C144.234621,129.112793 144.642983,129.212239 145.002686,129.411133 C145.362388,129.610027 145.631103,129.891437 145.808838,130.255371 C145.923096,130.466961 145.997152,130.695474 146.031006,130.940918 C146.06486,131.186362 146.081787,131.49951 146.081787,131.880371 L146.081787,135.10498 C146.081787,135.451987 146.002442,135.714355 145.84375,135.89209 C145.685058,136.069825 145.478761,136.158691 145.224854,136.158691 C144.966714,136.158691 144.757244,136.067709 144.596436,135.885742 C144.435627,135.703775 144.355225,135.443524 144.355225,135.10498 L144.355225,132.216797 C144.355225,131.645505 144.27588,131.208579 144.117188,130.906006 C143.958495,130.603433 143.642174,130.452148 143.168213,130.452148 C142.859292,130.452148 142.577882,130.544189 142.323975,130.728271 C142.070067,130.912354 141.883871,131.1652 141.765381,131.486816 C141.680745,131.744956 141.638428,132.227373 141.638428,132.934082 L141.638428,135.10498 C141.638428,135.456219 141.556967,135.719644 141.394043,135.895264 C141.231119,136.070883 141.02059,136.158691 140.762451,136.158691 C140.512775,136.158691 140.307537,136.067709 140.146729,135.885742 C139.98592,135.703775 139.905518,135.443524 139.905518,135.10498 L139.905518,130.09668 C139.905518,129.7666 139.977457,129.520102 140.121338,129.357178 C140.265219,129.194254 140.461994,129.112793 140.71167,129.112793 C140.864014,129.112793 141.001546,129.148763 141.124268,129.220703 C141.24699,129.292644 141.345377,129.400553 141.419434,129.544434 C141.49349,129.688315 141.530518,129.863931 141.530518,130.071289 Z M147.903564,129.265137 L148.093994,129.265137 L148.093994,128.224121 C148.093994,127.944823 148.1014,127.725831 148.116211,127.567139 C148.131022,127.408446 148.172282,127.271973 148.23999,127.157715 C148.307699,127.039225 148.405029,126.942953 148.531982,126.868896 C148.658936,126.79484 148.800699,126.757812 148.957275,126.757812 C149.177329,126.757812 149.37622,126.840331 149.553955,127.005371 C149.672445,127.115398 149.747558,127.249755 149.779297,127.408447 C149.811035,127.567139 149.826904,127.792479 149.826904,128.084473 L149.826904,129.265137 L150.46167,129.265137 C150.707114,129.265137 150.894368,129.323323 151.023438,129.439697 C151.152507,129.556072 151.217041,129.70524 151.217041,129.887207 C151.217041,130.119956 151.125001,130.282877 150.940918,130.375977 C150.756835,130.469076 150.49341,130.515625 150.150635,130.515625 L149.826904,130.515625 L149.826904,133.702148 C149.826904,133.972983 149.836426,134.181396 149.855469,134.327393 C149.874512,134.473389 149.925293,134.591878 150.007812,134.682861 C150.090332,134.773845 150.22469,134.819336 150.410889,134.819336 C150.512452,134.819336 150.649983,134.801351 150.823486,134.765381 C150.99699,134.729411 151.132405,134.711426 151.229736,134.711426 C151.369385,134.711426 151.495279,134.767496 151.607422,134.879639 C151.719564,134.991781 151.775635,135.13037 151.775635,135.29541 C151.775635,135.574708 151.623293,135.788411 151.318604,135.936523 C151.013914,136.084636 150.575931,136.158691 150.004639,136.158691 C149.462969,136.158691 149.052492,136.067709 148.773193,135.885742 C148.493895,135.703775 148.310873,135.451987 148.224121,135.130371 C148.137369,134.808755 148.093994,134.379234 148.093994,133.841797 L148.093994,130.515625 L147.865479,130.515625 C147.615803,130.515625 147.425375,130.456381 147.294189,130.337891 C147.163004,130.2194 147.097412,130.069174 147.097412,129.887207 C147.097412,129.70524 147.166178,129.556072 147.303711,129.439697 C147.441244,129.323323 147.641193,129.265137 147.903564,129.265137 Z" transform="rotate(-8 123.976 132.633)"/>
  </g>
</svg>
