<svg xmlns="http://www.w3.org/2000/svg" viewBox="0 0 487 313">
  <g fill="none" fill-rule="evenodd">
    <g stroke="#FFF" stroke-linejoin="round" stroke-width="2" transform="translate(207 21)">
      <polygon points="39 126 78 72 39 94.708"/>
      <polygon points="39 87 78 63.877 39 47"/>
      <polygon points="0 87 39 63.877 0 47" transform="matrix(-1 0 0 1 39 0)"/>
      <polygon points="0 46.806 39 63 0 0" transform="matrix(-1 0 0 1 39 0)"/>
      <polygon points="39 46.806 78 63 39 0"/>
      <polygon points="0 126 39 72 0 94.708" transform="matrix(-1 0 0 1 39 0)"/>
    </g>
    <path stroke="#FFF" stroke-linecap="round" stroke-linejoin="round" stroke-width="2" d="M202.044922,58.4746094 C146.380859,32.1992188 140.142578,20.59375 122.609375,40.3027344"/>
    <g stroke="#FFF" stroke-width="2" transform="translate(58.111 66.827)">
      <g transform="translate(5)">
        <path stroke-linecap="round" stroke-linejoin="round" d="M29.4921875 2.07677521C12.8085937-4.93201385.190429688 7.14513459 2.84217094e-14 18.2740408M44.2529297 17.7320487L12.0556641 17.760369"/>
        <circle cx="37.889" cy="8.173" r="1"/>
      </g>
      <g transform="rotate(180 22.5 22.5)">
        <path stroke-linecap="round" stroke-linejoin="round" d="M29.4921875 2.07677521C12.8085937-4.93201385.190429688 7.14513459 2.84217094e-14 18.2740408M44.2529297 17.7320487L12.0556641 17.760369"/>
        <circle cx="37.889" cy="8.173" r="1"/>
      </g>
    </g>
    <path fill="#FFF" fill-rule="nonzero" d="M115.569164,104.670136 L114.369457,105.381073 C114.145172,104.991749 113.93147,104.737845 113.728344,104.619355 C113.516754,104.483937 113.243808,104.41623 112.909496,104.41623 C112.499013,104.41623 112.158358,104.532602 111.887524,104.765351 C111.616689,104.993868 111.481274,105.281625 111.481274,105.628632 C111.481274,106.106824 111.836739,106.491912 112.54768,106.783905 L113.525219,107.183808 C114.320796,107.505424 114.902659,107.897917 115.270825,108.361298 C115.63899,108.824679 115.823071,109.392789 115.823071,110.065644 C115.823071,110.967015 115.522618,111.7118 114.921703,112.300019 C114.316557,112.89247 113.565425,113.188691 112.668285,113.188691 C111.817695,113.188691 111.115228,112.936903 110.560864,112.433319 C110.014962,111.929736 109.674308,111.220922 109.538891,110.306855 L111.036938,109.976777 C111.104646,110.5523 111.223135,110.950083 111.392407,111.170136 C111.697096,111.593315 112.141427,111.804902 112.725414,111.804902 C113.18668,111.804902 113.569651,111.650443 113.87434,111.341523 C114.179029,111.032602 114.331371,110.641167 114.331371,110.167206 C114.331371,109.976776 114.304923,109.802217 114.252026,109.643525 C114.199128,109.484832 114.11661,109.338838 114.004467,109.205536 C113.892325,109.072235 113.747388,108.947399 113.569653,108.831025 C113.391917,108.71465 113.180331,108.603567 112.934887,108.497773 L111.989086,108.104218 C110.647608,107.537158 109.976879,106.707739 109.976879,105.615937 C109.976879,104.879605 110.258289,104.263888 110.821117,103.768769 C111.383946,103.269417 112.084297,103.019745 112.922192,103.019745 C114.05208,103.019745 114.934396,103.56987 115.569164,104.670136 Z M122.964184,110.256073 L118.53352,110.256073 C118.571606,110.763888 118.736643,111.168019 119.028637,111.468476 C119.320631,111.764701 119.695139,111.912812 120.152172,111.912812 C120.507643,111.912812 120.801748,111.828177 121.034496,111.658905 C121.263013,111.489634 121.523264,111.176486 121.815258,110.719452 L123.021313,111.392304 C122.835114,111.709688 122.638339,111.981577 122.430981,112.207978 C122.223623,112.434379 122.001457,112.620575 121.764477,112.766571 C121.527496,112.912568 121.271477,113.019419 120.99641,113.087128 C120.721344,113.154837 120.423007,113.188691 120.101391,113.188691 C119.17886,113.188691 118.438308,112.89247 117.879711,112.300019 C117.321115,111.703336 117.041821,110.912003 117.041821,109.925995 C117.041821,108.948451 117.312651,108.157118 117.854321,107.551972 C118.400222,106.955289 119.123847,106.656952 120.025219,106.656952 C120.935054,106.656952 121.654448,106.946826 122.183422,107.526581 C122.708164,108.102105 122.970532,108.899786 122.970532,109.919648 L122.964184,110.256073 Z M121.497875,109.088105 C121.298981,108.326382 120.81868,107.945527 120.056957,107.945527 C119.883454,107.945527 119.720532,107.971975 119.568188,108.024872 C119.415843,108.07777 119.277254,108.153941 119.152416,108.253388 C119.027578,108.352835 118.920727,108.472381 118.83186,108.61203 C118.742992,108.75168 118.675284,108.910369 118.628735,109.088105 L121.497875,109.088105 Z M130.5052,112.86496 C130.5052,113.156952 130.495678,113.414031 130.476635,113.6362 C130.457592,113.858369 130.431144,114.054087 130.397289,114.223359 C130.295726,114.688856 130.096835,115.088754 129.80061,115.423066 C129.242013,116.066298 128.473954,116.387909 127.49641,116.387909 C126.671211,116.387909 125.992019,116.165744 125.458813,115.721405 C124.90868,115.264372 124.5913,114.631728 124.506664,113.823456 L125.941235,113.823456 C125.996248,114.128145 126.08723,114.363006 126.214184,114.528046 C126.510409,114.913139 126.942046,115.105683 127.509106,115.105683 C128.554358,115.105683 129.076977,114.464576 129.076977,113.182343 L129.076977,112.319062 C128.509917,112.898817 127.856115,113.188691 127.115551,113.188691 C126.273424,113.188691 125.583653,112.884006 125.046215,112.274628 C124.504546,111.656786 124.233715,110.884496 124.233715,109.957734 C124.233715,109.056362 124.485503,108.290419 124.989086,107.659882 C125.530756,106.991259 126.245918,106.656952 127.134594,106.656952 C127.913244,106.656952 128.560698,106.946826 129.076977,107.526581 L129.076977,106.828339 L130.5052,106.828339 L130.5052,112.86496 Z M129.134106,109.932343 C129.134106,109.331428 128.9733,108.851127 128.651684,108.491425 C128.325836,108.123259 127.909011,107.939179 127.401196,107.939179 C126.859526,107.939179 126.432122,108.140186 126.118969,108.542206 C125.835439,108.901909 125.693676,109.367399 125.693676,109.938691 C125.693676,110.501519 125.835439,110.962777 126.118969,111.32248 C126.42789,111.716036 126.855294,111.912812 127.401196,111.912812 C127.947097,111.912812 128.378733,111.71392 128.696117,111.316132 C128.988111,110.95643 129.134106,110.495171 129.134106,109.932343 Z M132.307934,106.828339 L133.736157,106.828339 L133.736157,107.399628 C134.011223,107.111866 134.246084,106.917207 134.440746,106.815644 C134.648104,106.709849 134.908355,106.656952 135.221508,106.656952 C135.919754,106.656952 136.471994,106.961637 136.878246,107.571015 C137.326816,106.961637 137.934069,106.656952 138.700024,106.656952 C140.092283,106.656952 140.788403,107.501182 140.788403,109.189667 L140.788403,113.010956 L139.353832,113.010956 L139.353832,109.576874 C139.353832,108.984423 139.281893,108.565482 139.138012,108.320038 C138.989899,108.070363 138.746575,107.945527 138.408032,107.945527 C138.014475,107.945527 137.727775,108.093637 137.547924,108.389862 C137.368073,108.686088 137.278149,109.162157 137.278149,109.818085 L137.278149,113.010956 L135.843578,113.010956 L135.843578,109.595917 C135.843578,108.495651 135.526199,107.945527 134.89143,107.945527 C134.48941,107.945527 134.196363,108.095753 134.01228,108.39621 C133.828197,108.696667 133.736157,109.170621 133.736157,109.818085 L133.736157,113.010956 L132.307934,113.010956 L132.307934,106.828339 Z M148.221508,110.256073 L143.790844,110.256073 C143.82893,110.763888 143.993968,111.168019 144.285961,111.468476 C144.577955,111.764701 144.952463,111.912812 145.409496,111.912812 C145.764967,111.912812 146.059072,111.828177 146.291821,111.658905 C146.520337,111.489634 146.780589,111.176486 147.072582,110.719452 L148.278637,111.392304 C148.092438,111.709688 147.895663,111.981577 147.688305,112.207978 C147.480947,112.434379 147.258781,112.620575 147.021801,112.766571 C146.784821,112.912568 146.528801,113.019419 146.253735,113.087128 C145.978668,113.154837 145.680331,113.188691 145.358715,113.188691 C144.436184,113.188691 143.695632,112.89247 143.137035,112.300019 C142.578439,111.703336 142.299145,110.912003 142.299145,109.925995 C142.299145,108.948451 142.569975,108.157118 143.111645,107.551972 C143.657546,106.955289 144.381172,106.656952 145.282543,106.656952 C146.192379,106.656952 146.911772,106.946826 147.440746,107.526581 C147.965489,108.102105 148.227856,108.899786 148.227856,109.919648 L148.221508,110.256073 Z M146.7552,109.088105 C146.556305,108.326382 146.076004,107.945527 145.314282,107.945527 C145.140778,107.945527 144.977857,107.971975 144.825512,108.024872 C144.673167,108.07777 144.534578,108.153941 144.409741,108.253388 C144.284903,108.352835 144.178052,108.472381 144.089184,108.61203 C144.000316,108.75168 143.932609,108.910369 143.886059,109.088105 L146.7552,109.088105 Z M149.783032,106.828339 L151.217602,106.828339 L151.217602,107.399628 C151.716953,106.904508 152.279773,106.656952 152.906078,106.656952 C153.625483,106.656952 154.186187,106.88335 154.588207,107.336152 C154.935214,107.721245 155.108715,108.349656 155.108715,109.221405 L155.108715,113.010956 L153.674145,113.010956 L153.674145,109.557831 C153.674145,108.948453 153.58951,108.527396 153.420239,108.294648 C153.255199,108.057667 152.954746,107.939179 152.518871,107.939179 C152.044911,107.939179 151.708488,108.095753 151.509594,108.408905 C151.314932,108.717826 151.217602,109.257372 151.217602,110.027558 L151.217602,113.010956 L149.783032,113.010956 L149.783032,106.828339 Z M158.384106,108.161347 L158.384106,113.010956 L156.955883,113.010956 L156.955883,108.161347 L156.346508,108.161347 L156.346508,106.828339 L156.955883,106.828339 L156.955883,104.562226 L158.384106,104.562226 L158.384106,106.828339 L159.494946,106.828339 L159.494946,108.161347 L158.384106,108.161347 Z" transform="rotate(6 134.517 109.704)"/>
    <path fill="#FFF" fill-rule="nonzero" d="M422.572271,56.5969661 L422.572271,65.0076106 L421.093267,65.0076106 L421.093267,56.5969661 L418.839849,56.5969661 L418.839849,55.2068294 L424.819341,55.2068294 L424.819341,56.5969661 L422.572271,56.5969661 Z M426.057134,58.8249934 L427.675786,62.3542903 L429.421392,58.260052 L431.179692,62.3542903 L432.779302,58.8249934 L434.378911,58.8249934 L431.141606,65.4709895 L429.421392,61.491009 L427.682134,65.4709895 L424.451177,58.8249934 L426.057134,58.8249934 Z M436.771978,58.8249934 L436.771978,65.0076106 L435.343755,65.0076106 L435.343755,58.8249934 L436.771978,58.8249934 Z M435.127935,56.2541926 C435.127935,56.0045169 435.218917,55.7886988 435.400884,55.6067317 C435.582851,55.4247646 435.800785,55.3337825 436.054692,55.3337825 C436.312832,55.3337825 436.532882,55.4247646 436.714849,55.6067317 C436.896816,55.784467 436.987798,56.002401 436.987798,56.2605403 C436.987798,56.5186796 436.896816,56.7387295 436.714849,56.9206965 C436.537113,57.1026636 436.319179,57.1936458 436.06104,57.1936458 C435.802901,57.1936458 435.582851,57.1026636 435.400884,56.9206965 C435.218917,56.7387295 435.127935,56.5165637 435.127935,56.2541926 Z M440.053716,60.1580012 L440.053716,65.0076106 L438.625493,65.0076106 L438.625493,60.1580012 L438.016118,60.1580012 L438.016118,58.8249934 L438.625493,58.8249934 L438.625493,56.5588801 L440.053716,56.5588801 L440.053716,58.8249934 L441.164556,58.8249934 L441.164556,60.1580012 L440.053716,60.1580012 Z M443.608403,60.1580012 L443.608403,65.0076106 L442.180181,65.0076106 L442.180181,60.1580012 L441.570806,60.1580012 L441.570806,58.8249934 L442.180181,58.8249934 L442.180181,56.5588801 L443.608403,56.5588801 L443.608403,58.8249934 L444.719243,58.8249934 L444.719243,60.1580012 L443.608403,60.1580012 Z M451.435064,62.2527278 L447.004399,62.2527278 C447.042486,62.7605428 447.207523,63.1646729 447.499517,63.4651301 C447.79151,63.7613556 448.166018,63.9094661 448.623052,63.9094661 C448.978522,63.9094661 449.272627,63.8248315 449.505376,63.6555598 C449.733893,63.4862881 449.994144,63.1731402 450.286138,62.7161067 L451.492192,63.3889583 C451.305994,63.7063427 451.109218,63.9782312 450.90186,64.2046321 C450.694503,64.431033 450.472337,64.617229 450.235356,64.7632258 C449.998376,64.9092227 449.742357,65.0160738 449.46729,65.0837825 C449.192224,65.1514912 448.893887,65.185345 448.572271,65.185345 C447.64974,65.185345 446.909187,64.889124 446.350591,64.2966731 C445.791994,63.6999904 445.5127,62.9086572 445.5127,61.9226497 C445.5127,60.9451057 445.783531,60.1537725 446.3252,59.5486262 C446.871101,58.9519436 447.594727,58.6536067 448.496099,58.6536067 C449.405934,58.6536067 450.125328,58.9434801 450.654302,59.5232356 C451.179044,60.0987593 451.441411,60.8964401 451.441411,61.916302 L451.435064,62.2527278 Z M449.968755,61.084759 C449.769861,60.3230365 449.28956,59.9421809 448.527837,59.9421809 C448.354333,59.9421809 448.191412,59.9686292 448.039067,60.0215266 C447.886723,60.074424 447.748134,60.1505951 447.623296,60.2500422 C447.498458,60.3494894 447.391607,60.4690357 447.302739,60.6086848 C447.213872,60.748334 447.146164,60.9070238 447.099614,61.084759 L449.968755,61.084759 Z M452.996587,58.8249934 L454.42481,58.8249934 L454.42481,59.3772395 C454.687181,59.102173 454.919926,58.9138611 455.123052,58.8122981 C455.33041,58.7065033 455.57585,58.6536067 455.85938,58.6536067 C456.236009,58.6536067 456.62956,58.7763268 457.040044,59.0217708 L456.386235,60.3293879 C456.115401,60.1347255 455.850918,60.0373958 455.592778,60.0373958 C454.814129,60.0373958 454.42481,60.625606 454.42481,61.8020442 L454.42481,65.0076106 L452.996587,65.0076106 L452.996587,58.8249934 Z" transform="rotate(-5 437.94 60.339)"/>
    <polygon stroke="#FFF" stroke-linecap="round" stroke-linejoin="round" stroke-width="2" points="112.563 40.053 112.563 53.235 126.433 49.371"/>
    <g stroke="#FFF" stroke-linecap="round" stroke-linejoin="round" stroke-width="2" transform="matrix(-1 0 0 1 363.563 18.017)">
      <path d="M87.6650391,12.8600296 C32.0009766,-13.4153611 44.2919922,9.54167018 16.2275391,11.1686233"/>
      <polygon points="2.694 6.983 2.694 20.166 16.563 16.301" transform="rotate(40 9.629 13.574)"/>
    </g>
    <path stroke="#979797"/>
    <path stroke="#FFF" stroke-linejoin="round" stroke-width="2" d="M375,56.445971 C389.179048,63.5284776 401.744531,62.3498544 412.696449,52.9101012 C419.750281,46.5324672 423.357082,38.3082411 423.516853,28.2374232 L429,22.1963625 L422.609115,23.6324089 C425.602051,21.8892958 427.16062,19.9571427 427.284822,17.8359496 L420.315189,20.3281953 C418.034035,18.4916307 415.830221,17.4198561 413.703746,17.1128716 C409.879194,16.5607475 406.743597,18.1745647 405.676912,18.9202583 C403.217259,20.6397414 400.508831,24.109776 400.836094,30.4442596 C393.412201,30.0182621 385.918896,26.2368869 378.356179,19.100134 C374.391186,24.8208951 378.832904,31.9939766 381.525068,33.6765969 C379.244243,33.1228741 377.606733,32.6816712 376.612538,32.3529882 C377.483927,37.1126043 378.260932,40.9462121 385.218614,43.4682932 C383.884669,43.6488675 382.361628,43.7531683 380.649489,43.7811955 C382.343556,48.5463184 385.680841,51.0789201 390.661346,51.3790005 C386.28255,54.7508165 381.062101,56.4398066 375,56.445971 Z"/>
  </g>
</svg>
