<svg xmlns="http://www.w3.org/2000/svg" viewBox="0 0 488 308">
  <g fill="none" fill-rule="evenodd">
    <g stroke="#FFF" stroke-linejoin="round" stroke-width="2" transform="translate(185.69 14.455)">
      <polygon points="43.365 140.101 86.729 80.058 43.365 105.307"/>
      <polygon points="43.365 96.736 86.729 71.026 43.365 52.26"/>
      <polygon points="0 96.736 43.365 71.026 0 52.26" transform="matrix(-1 0 0 1 43.365 0)"/>
      <polygon points="0 52.044 43.365 70.051 0 0" transform="matrix(-1 0 0 1 43.365 0)"/>
      <polygon points="43.365 52.044 86.729 70.051 43.365 0"/>
      <polygon points="0 140.101 43.365 80.058 0 105.307" transform="matrix(-1 0 0 1 43.365 0)"/>
    </g>
    <g stroke="#FFF" stroke-linecap="round" stroke-linejoin="round" stroke-width="2" transform="translate(80.684 24.909)">
      <path d="M99.4956143,31.214469 C37.6019997,1.99851124 30.6655714,-10.9057645 11.1701687,11.0089185"/>
      <polyline points="0 25.018 0 10.731 14.782 20.965 .535 24.926 1.409 13.674 11.155 20.389 2.367 22.984 2.702 16.566 7.647 19.907 3.911 20.965 4.092 19.011"/>
    </g>
    <g stroke="#FFF" stroke-linecap="round" stroke-linejoin="round" stroke-width="2" transform="translate(105.146 141.66)">
      <path d="M86.152654,0.0808950381 C61.7318225,54.6688914 31.6319805,24.1781423 12.1365777,46.0928253"/>
      <polyline points="2.224 60.599 2.224 46.312 17.006 56.546 2.759 60.507 3.633 49.255 13.379 55.97 4.591 58.565 4.925 52.147 9.871 55.488 6.134 56.546 6.316 54.593"/>
    </g>
    <g stroke="#FFF" stroke-width="2" transform="translate(20.138 65.41)">
      <g transform="translate(5.56)">
        <path stroke-linecap="round" stroke-linejoin="round" d="M32.7927572 2.3091941C14.2420465-5.48397208.211741313 7.94477059 2.84217094e-14 20.3191501M49.2054236 19.7165017L13.4048539 19.7479915"/>
        <circle cx="42.129" cy="9.088" r="1.224"/>
      </g>
      <g transform="rotate(180 25.018 25.018)">
        <path stroke-linecap="round" stroke-linejoin="round" d="M32.7927572 2.3091941C14.2420465-5.48397208.211741313 7.94477059 2.84217094e-14 20.3191501M49.2054236 19.7165017L13.4048539 19.7479915"/>
        <circle cx="42.129" cy="9.088" r="1.224"/>
      </g>
    </g>
    <path fill="#FFF" fill-rule="nonzero" d="M425.639404,54.7654211 L423.352598,54.7654211 L423.352598,62.2822377 C423.352598,62.7151332 423.256139,63.036271 423.063218,63.2456607 C422.870298,63.4550504 422.620916,63.5597436 422.315066,63.5597436 C422.00451,63.5597436 421.7516,63.453874 421.556326,63.2421317 C421.361053,63.0303893 421.263417,62.7104278 421.263417,62.2822377 L421.263417,54.7654211 L418.976611,54.7654211 C418.619002,54.7654211 418.353151,54.6866071 418.179052,54.5289766 C418.004953,54.3713462 417.917905,54.163136 417.917905,53.9043398 C417.917905,53.6361327 418.008482,53.4243936 418.189639,53.2691158 C418.370797,53.1138381 418.633118,53.0362004 418.976611,53.0362004 L425.639404,53.0362004 C426.001719,53.0362004 426.271098,53.1161907 426.44755,53.2761739 C426.624002,53.436157 426.712227,53.6455435 426.712227,53.9043398 C426.712227,54.163136 426.622826,54.3713462 426.444021,54.5289766 C426.265217,54.6866071 425.997014,54.7654211 425.639404,54.7654211 Z M428.46968,56.9251825 L429.726012,61.2305892 L430.869415,57.2286784 C430.991755,56.809899 431.082332,56.5240511 431.14115,56.371126 C431.199967,56.218201 431.310542,56.0723362 431.472878,55.9335273 C431.635213,55.7947184 431.85754,55.725315 432.139863,55.725315 C432.426891,55.725315 432.65157,55.7947184 432.813906,55.9335273 C432.976242,56.0723362 433.090346,56.2229063 433.156221,56.3852421 C433.222096,56.547578 433.31385,56.8287206 433.431485,57.2286784 L434.574888,61.2305892 L435.845336,56.9251825 C435.930033,56.614627 435.99826,56.3899482 436.050019,56.2511393 C436.101778,56.1123304 436.188827,55.9899922 436.311167,55.884121 C436.433507,55.7782498 436.609956,55.725315 436.84052,55.725315 C437.071084,55.725315 437.27106,55.8053054 437.440454,55.9652885 C437.609847,56.1252717 437.694543,56.3134843 437.694543,56.529932 C437.694543,56.7275582 437.621611,57.0263458 437.475744,57.4263036 L435.9018,62.0422642 C435.765344,62.4328113 435.659474,62.7151302 435.584188,62.8892295 C435.508902,63.0633288 435.390093,63.2186042 435.227757,63.3550604 C435.065421,63.4915166 434.843095,63.5597436 434.560772,63.5597436 C434.269038,63.5597436 434.039654,63.4868112 433.872612,63.3409443 C433.705571,63.1950773 433.582057,63.0162753 433.502065,62.8045329 C433.422074,62.5927906 433.335025,62.3175296 433.240918,61.9787418 L432.139863,58.2238625 L431.074098,61.9787418 C430.932937,62.5010397 430.780014,62.8951098 430.615325,63.1609642 C430.450637,63.4268185 430.16126,63.5597436 429.747186,63.5597436 C429.535443,63.5597436 429.355465,63.5185721 429.207246,63.4362279 C429.059026,63.3538836 428.935511,63.2362507 428.836698,63.0833257 C428.737885,62.9304006 428.650837,62.749246 428.575551,62.5398563 C428.500264,62.3304666 428.441448,62.1646043 428.3991,62.0422642 L426.839272,57.4263036 C426.683994,56.9934081 426.606356,56.6946205 426.606356,56.529932 C426.606356,56.322895 426.688699,56.1370351 426.853388,55.9723466 C427.018076,55.8076581 427.220405,55.725315 427.46038,55.725315 C427.780346,55.725315 427.99679,55.8158924 428.10972,55.9970497 C428.222649,56.1782071 428.342635,56.4875816 428.46968,56.9251825 Z M440.948301,56.8193118 L440.948301,62.3881084 C440.948301,62.77395 440.856548,63.0656796 440.673038,63.2633058 C440.489528,63.460932 440.256614,63.5597436 439.974291,63.5597436 C439.691968,63.5597436 439.462584,63.4585793 439.286132,63.2562477 C439.10968,63.0539162 439.021455,62.7645392 439.021455,62.3881084 L439.021455,56.8757762 C439.021455,56.4946399 439.10968,56.2076157 439.286132,56.0146948 C439.462584,55.821774 439.691968,55.725315 439.974291,55.725315 C440.256614,55.725315 440.489528,55.821774 440.673038,56.0146948 C440.856548,56.2076157 440.948301,56.4758186 440.948301,56.8193118 Z M439.995465,54.8289435 C439.727258,54.8289435 439.497874,54.7466005 439.307306,54.581912 C439.116738,54.4172234 439.021455,54.1843103 439.021455,53.8831656 C439.021455,53.6102532 439.119091,53.3855744 439.314364,53.2091224 C439.509638,53.0326705 439.736669,52.9444458 439.995465,52.9444458 C440.244851,52.9444458 440.466001,53.0244362 440.658922,53.1844193 C440.851842,53.3444024 440.948301,53.5773155 440.948301,53.8831656 C440.948301,54.1796049 440.854195,54.4113417 440.66598,54.5783829 C440.477764,54.7454241 440.254262,54.8289435 439.995465,54.8289435 Z M443.04454,55.8947081 L443.256282,55.8947081 L443.256282,54.7371889 C443.256282,54.4266334 443.264516,54.1831334 443.280985,54.0066814 C443.297454,53.8302294 443.34333,53.678483 443.418617,53.5514376 C443.493903,53.4196868 443.602125,53.3126408 443.743287,53.2302966 C443.884448,53.1479523 444.042076,53.1067808 444.216176,53.1067808 C444.460856,53.1067808 444.682005,53.1985345 444.879632,53.3820445 C445.011383,53.5043845 445.094902,53.6537783 445.130192,53.8302303 C445.165483,54.0066823 445.183128,54.2572403 445.183128,54.581912 L445.183128,55.8947081 L445.888932,55.8947081 C446.161844,55.8947081 446.370055,55.9594062 446.513569,56.0888043 C446.657083,56.2182024 446.728839,56.3840648 446.728839,56.5863964 C446.728839,56.8451926 446.626499,57.0263473 446.421814,57.1298658 C446.21713,57.2333842 445.924224,57.2851427 445.543088,57.2851427 L445.183128,57.2851427 L445.183128,60.8282807 C445.183128,61.1294254 445.193715,61.3611622 445.214889,61.523498 C445.236063,61.6858338 445.292527,61.8175827 445.384282,61.9187485 C445.476037,62.0199143 445.625431,62.0704964 445.832468,62.0704964 C445.945397,62.0704964 446.09832,62.0504988 446.29124,62.010503 C446.484161,61.9705072 446.634731,61.9505097 446.742955,61.9505097 C446.898233,61.9505097 447.038216,62.0128551 447.162909,62.1375478 C447.287602,62.2622405 447.349947,62.4163396 447.349947,62.5998497 C447.349947,62.9104052 447.180556,63.1480236 446.841768,63.3127121 C446.50298,63.4774006 446.01598,63.5597436 445.380753,63.5597436 C444.778463,63.5597436 444.322048,63.4585793 444.011492,63.2562477 C443.700937,63.0539162 443.497432,62.7739499 443.400972,62.4163405 C443.304511,62.0587312 443.256282,61.5811417 443.256282,60.9835577 L443.256282,57.2851427 L443.002192,57.2851427 C442.724574,57.2851427 442.512835,57.2192683 442.366968,57.0875175 C442.221101,56.9557667 442.148169,56.788728 442.148169,56.5863964 C442.148169,56.3840648 442.22463,56.2182024 442.377555,56.0888043 C442.53048,55.9594062 442.752806,55.8947081 443.04454,55.8947081 Z M448.161622,55.8947081 L448.373363,55.8947081 L448.373363,54.7371889 C448.373363,54.4266334 448.381598,54.1831334 448.398067,54.0066814 C448.414535,53.8302294 448.460412,53.678483 448.535698,53.5514376 C448.610985,53.4196868 448.719207,53.3126408 448.860368,53.2302966 C449.00153,53.1479523 449.159158,53.1067808 449.333257,53.1067808 C449.577937,53.1067808 449.799087,53.1985345 449.996713,53.3820445 C450.128464,53.5043845 450.211984,53.6537783 450.247274,53.8302303 C450.282564,54.0066823 450.300209,54.2572403 450.300209,54.581912 L450.300209,55.8947081 L451.006014,55.8947081 C451.278926,55.8947081 451.487136,55.9594062 451.630651,56.0888043 C451.774165,56.2182024 451.845921,56.3840648 451.845921,56.5863964 C451.845921,56.8451926 451.74358,57.0263473 451.538896,57.1298658 C451.334212,57.2333842 451.041306,57.2851427 450.66017,57.2851427 L450.300209,57.2851427 L450.300209,60.8282807 C450.300209,61.1294254 450.310796,61.3611622 450.331971,61.523498 C450.353145,61.6858338 450.409609,61.8175827 450.501364,61.9187485 C450.593119,62.0199143 450.742512,62.0704964 450.949549,62.0704964 C451.062479,62.0704964 451.215401,62.0504988 451.408322,62.010503 C451.601243,61.9705072 451.751813,61.9505097 451.860037,61.9505097 C452.015315,61.9505097 452.155298,62.0128551 452.279991,62.1375478 C452.404683,62.2622405 452.467029,62.4163396 452.467029,62.5998497 C452.467029,62.9104052 452.297637,63.1480236 451.95885,63.3127121 C451.620062,63.4774006 451.133062,63.5597436 450.497835,63.5597436 C449.895545,63.5597436 449.43913,63.4585793 449.128574,63.2562477 C448.818019,63.0539162 448.614514,62.7739499 448.518053,62.4163405 C448.421593,62.0587312 448.373363,61.5811417 448.373363,60.9835577 L448.373363,57.2851427 L448.119274,57.2851427 C447.841656,57.2851427 447.629917,57.2192683 447.48405,57.0875175 C447.338183,56.9557667 447.265251,56.788728 447.265251,56.5863964 C447.265251,56.3840648 447.341712,56.2182024 447.494637,56.0888043 C447.647562,55.9594062 447.869888,55.8947081 448.161622,55.8947081 Z M458.551062,60.1154183 L454.782067,60.1154183 C454.786773,60.5530192 454.874997,60.938855 455.046744,61.2729374 C455.21849,61.6070199 455.446698,61.8587542 455.731374,62.0281481 C456.01605,62.197542 456.33013,62.2822377 456.673623,62.2822377 C456.904187,62.2822377 457.11475,62.2551821 457.305318,62.2010702 C457.495886,62.1469583 457.68057,62.0622626 457.859374,61.9469806 C458.038179,61.8316987 458.202865,61.7081841 458.353437,61.5764333 C458.50401,61.4446825 458.69928,61.2658805 458.939255,61.040022 C459.038068,60.9553251 459.179227,60.9129772 459.362738,60.9129772 C459.560364,60.9129772 459.720344,60.9670883 459.842685,61.0753122 C459.965025,61.1835361 460.026194,61.3364589 460.026194,61.5340851 C460.026194,61.7081844 459.957967,61.9116892 459.82151,62.1446059 C459.685054,62.3775225 459.479197,62.6010249 459.203932,62.81512 C458.928666,63.0292151 458.582826,63.2068407 458.166399,63.3480023 C457.749972,63.4891639 457.271207,63.5597436 456.730087,63.5597436 C455.492571,63.5597436 454.530334,63.206845 453.843347,62.5010371 C453.156361,61.7952292 452.812873,60.8376975 452.812873,59.6284133 C452.812873,59.0590615 452.897569,58.5308899 453.066962,58.0438824 C453.236356,57.556875 453.483385,57.1392782 453.808057,56.7910797 C454.132729,56.4428811 454.532681,56.1758544 455.007925,55.9899917 C455.483169,55.8041289 456.010164,55.711199 456.588926,55.711199 C457.341788,55.711199 457.987593,55.8700034 458.526359,56.1876169 C459.065126,56.5052305 459.468607,56.9157692 459.736814,57.4192456 C460.005021,57.9227219 460.139122,58.4356012 460.139122,58.9578991 C460.139122,59.4425539 460.000316,59.7566337 459.722698,59.9001479 C459.44508,60.0436622 459.054539,60.1154183 458.551062,60.1154183 Z M454.782067,59.0214215 L458.275799,59.0214215 C458.228745,58.3626674 458.051119,57.8697856 457.742916,57.5427613 C457.434714,57.215737 457.02888,57.0522273 456.525404,57.0522273 C456.045455,57.0522273 455.651384,57.2180896 455.343182,57.5498194 C455.034979,57.8815491 454.847943,58.3720782 454.782067,59.0214215 Z M463.675202,60.7788744 L463.675202,62.3881084 C463.675202,62.7786554 463.583449,63.0715613 463.399939,63.2668348 C463.216429,63.4621083 462.983515,63.5597436 462.701192,63.5597436 C462.423574,63.5597436 462.195367,63.460932 462.016562,63.2633058 C461.837757,63.0656796 461.748356,62.77395 461.748356,62.3881084 L461.748356,57.0239951 C461.748356,56.1582041 462.06126,55.725315 462.687076,55.725315 C463.007042,55.725315 463.237603,55.8264793 463.378764,56.0288109 C463.519926,56.2311425 463.597564,56.5299301 463.61168,56.9251825 C463.842244,56.5299301 464.078686,56.2311425 464.321013,56.0288109 C464.563341,55.8264793 464.886831,55.725315 465.291494,55.725315 C465.696158,55.725315 466.089051,55.8264793 466.470188,56.0288109 C466.851324,56.2311425 467.041889,56.4993455 467.041889,56.8334279 C467.041889,57.0686972 466.960722,57.2627915 466.798387,57.4157165 C466.636051,57.5686416 466.460778,57.645103 466.272562,57.645103 C466.201982,57.645103 466.031414,57.6015788 465.760854,57.5145291 C465.490295,57.4274795 465.2515,57.3839553 465.044463,57.3839553 C464.76214,57.3839553 464.531579,57.458064 464.352774,57.6062837 C464.17397,57.7545034 464.035163,57.9744769 463.93635,58.2662108 C463.837537,58.5579447 463.76931,58.9049618 463.731667,59.3072723 C463.694024,59.7095828 463.675202,60.2001119 463.675202,60.7788744 Z" transform="rotate(-5 442.48 58.252)"/>
    <g stroke="#FFF" stroke-linecap="round" stroke-linejoin="round" stroke-width="2" transform="matrix(-1 0 0 1 359.775 15.586)">
      <path d="M85.3143756,31.8292477 C53.7594906,10.9721854 48.8145166,9.76688869 24.3437359,8.59633927"/>
      <polyline points="6.671 17.663 6.671 3.376 21.454 13.609 7.207 17.571 8.081 6.318 17.827 13.034 9.039 15.629 9.373 9.21 14.319 12.551 10.582 13.609 10.764 11.656" transform="rotate(45 14.063 10.52)"/>
    </g>
    <g stroke="#FFF" stroke-linecap="round" stroke-linejoin="round" stroke-width="2" transform="matrix(-1 0 0 1 369.782 95.643)">
      <path d="M75.420084,0.769511655 C28.0508377,9.32603241 78.0369895,15.9996843 19.9612336,37.2824009"/>
      <polyline points="3.336 47.684 3.336 33.397 18.118 43.631 3.871 47.592 4.745 36.34 14.491 43.055 5.703 45.651 6.037 39.232 10.983 42.573 7.246 43.631 7.428 41.678" transform="rotate(45 10.727 40.54)"/>
    </g>
    <g stroke="#FFF" stroke-linecap="round" stroke-linejoin="round" stroke-width="2" transform="matrix(-1 0 0 1 291.948 140.12)">
      <path d="M27.9313938,0.0202731621 C-1.3714322,27.3490186 68.2230511,47.9454762 17.6071046,83.7503894"/>
      <polyline points="4.448 95.497 4.448 81.209 19.23 91.443 4.983 95.405 5.857 84.152 15.603 90.867 6.815 93.463 7.149 87.044 12.095 90.385 8.358 91.443 8.54 89.49" transform="rotate(15 11.839 88.353)"/>
    </g>
    <path stroke="#979797"/>
    <path stroke="#FFF" stroke-linejoin="round" stroke-width="2" d="M372.490975,53.8677223 C388.256847,61.742856 402.228575,60.432329 414.406159,49.9361414 C422.24941,42.8447649 426.25986,33.7001382 426.437512,22.5022611 L432.534296,15.7851251 L425.428186,17.3818843 C428.756071,15.4436935 430.489065,13.2953067 430.627167,10.9367237 L422.877538,13.707885 C420.341093,11.6657843 417.890643,10.4740638 415.526187,10.1327236 C411.273616,9.51880946 407.787105,11.3132344 406.601043,12.1423811 C403.866121,14.0542973 400.854584,17.9126751 401.218473,24.956072 C392.963747,24.4823997 384.631841,20.2778381 376.222755,12.3423872 C371.814026,18.703378 376.752832,26.6792231 379.746285,28.5501511 C377.210205,27.9344593 375.389436,27.4438799 374.283977,27.0784129 C375.252886,32.3706936 376.116849,36.6333333 383.853188,39.437669 C382.369957,39.638452 380.676467,39.7544254 378.772717,39.7855893 C380.656372,45.0839931 384.367145,47.9000267 389.905034,48.2336901 C385.036193,51.9828573 379.231506,53.860868 372.490975,53.8677223 Z"/>
    <path fill="#FFF" fill-rule="nonzero" d="M81.8051705,114.757277 C81.8051705,115.383093 81.6440134,115.945378 81.3216945,116.444149 C80.9993756,116.94292 80.5276677,117.333461 79.9065567,117.615784 C79.2854458,117.898108 78.5490639,118.039267 77.697389,118.039267 C76.6763202,118.039267 75.8340688,117.846349 75.1706093,117.460507 C74.7000707,117.18289 74.3177639,116.812346 74.0236772,116.348865 C73.7295906,115.885385 73.5825495,115.434851 73.5825495,114.99725 C73.5825495,114.743159 73.6707742,114.525538 73.8472261,114.344381 C74.0236781,114.163224 74.2483569,114.072646 74.5212693,114.072646 C74.7424225,114.072646 74.9294588,114.143226 75.0823838,114.284388 C75.2353088,114.425549 75.3658814,114.634936 75.4741052,114.912554 C75.605856,115.241931 75.7481918,115.517192 75.9011169,115.738345 C76.0540419,115.959498 76.2693101,116.141829 76.5469279,116.285343 C76.8245457,116.428857 77.1892076,116.500613 77.6409247,116.500613 C78.2620356,116.500613 78.7666807,116.355925 79.1548751,116.066544 C79.5430694,115.777163 79.7371637,115.41603 79.7371637,114.983134 C79.7371637,114.639641 79.6324704,114.360851 79.4230807,114.146756 C79.213691,113.932661 78.9431354,113.769151 78.6114057,113.656222 C78.279676,113.543293 77.8362,113.423307 77.2809644,113.296262 C76.5375134,113.122162 75.9152355,112.918657 75.4141119,112.685741 C74.9129882,112.452824 74.5153891,112.135215 74.2213025,111.732905 C73.9272158,111.330594 73.7801747,110.830655 73.7801747,110.233071 C73.7801747,109.663719 73.9354501,109.157897 74.2460056,108.715591 C74.5565611,108.273285 75.0059187,107.933326 75.594092,107.695704 C76.1822652,107.458082 76.8739466,107.339273 77.6691568,107.339273 C78.304384,107.339273 78.8537295,107.418087 79.3172101,107.575717 C79.7806906,107.733348 80.1653501,107.942734 80.4712002,108.203883 C80.7770503,108.465032 81.0005528,108.739117 81.1417144,109.026145 C81.282876,109.313174 81.3534557,109.59314 81.3534557,109.866052 C81.3534557,110.115438 81.265231,110.340117 81.0887791,110.540095 C80.9123271,110.740074 80.6923536,110.840062 80.428852,110.840062 C80.1888773,110.840062 80.0065463,110.78007 79.8818536,110.660082 C79.7571608,110.540095 79.621883,110.343648 79.476016,110.070736 C79.2878006,109.680189 79.0619455,109.375519 78.7984438,109.156719 C78.5349422,108.937918 78.1114638,108.82852 77.527996,108.82852 C76.9868766,108.82852 76.5504586,108.947329 76.2187288,109.184951 C75.8869991,109.422573 75.7211368,109.708421 75.7211368,110.042503 C75.7211368,110.24954 75.7776005,110.428342 75.8905298,110.578915 C76.0034591,110.729487 76.1587345,110.858883 76.3563607,110.967107 C76.5539869,111.075331 76.7539628,111.160027 76.9562944,111.221197 C77.158626,111.282367 77.4927034,111.371768 77.9585366,111.489402 C78.5420045,111.625859 79.0701762,111.776429 79.5430675,111.941117 C80.0159588,112.105806 80.4182632,112.305782 80.7499929,112.541051 C81.0817227,112.77632 81.340515,113.073931 81.5263778,113.433893 C81.7122405,113.793855 81.8051705,114.234979 81.8051705,114.757277 Z M88.827924,114.594942 L85.0589287,114.594942 C85.0636341,115.032543 85.1518587,115.418378 85.3236053,115.752461 C85.4953519,116.086543 85.7235597,116.338278 86.0082356,116.507671 C86.2929114,116.677065 86.6069912,116.761761 86.9504844,116.761761 C87.1810483,116.761761 87.3916112,116.734705 87.5821793,116.680594 C87.7727475,116.626482 87.9574311,116.541786 88.1362358,116.426504 C88.3150404,116.311222 88.4797265,116.187707 88.6302988,116.055957 C88.7808712,115.924206 88.9761418,115.745404 89.2161165,115.519545 C89.3149296,115.434848 89.456089,115.392501 89.6395991,115.392501 C89.8372253,115.392501 89.997206,115.446612 90.1195461,115.554836 C90.2418861,115.663059 90.3030552,115.815982 90.3030552,116.013608 C90.3030552,116.187708 90.2348281,116.391213 90.0983719,116.624129 C89.9619157,116.857046 89.7560582,117.080548 89.4807931,117.294643 C89.205528,117.508738 88.8596873,117.686364 88.4432607,117.827526 C88.026834,117.968687 87.5480681,118.039267 87.0069488,118.039267 C85.7694322,118.039267 84.8071952,117.686368 84.1202089,116.98056 C83.4332225,116.274753 83.0897345,115.317221 83.0897345,114.107937 C83.0897345,113.538585 83.1744301,113.010413 83.343824,112.523406 C83.5132179,112.036398 83.760247,111.618802 84.0849186,111.270603 C84.4095903,110.922404 84.8095421,110.655378 85.2847861,110.469515 C85.7600301,110.283652 86.2870254,110.190722 86.8657879,110.190722 C87.6186496,110.190722 88.2644542,110.349527 88.8032209,110.66714 C89.3419876,110.984754 89.7454684,111.395293 90.0136754,111.898769 C90.2818824,112.402245 90.4159839,112.915125 90.4159839,113.437422 C90.4159839,113.922077 90.2771771,114.236157 89.9995593,114.379671 C89.7219415,114.523186 89.3314004,114.594942 88.827924,114.594942 Z M85.0589287,113.500945 L88.5526603,113.500945 C88.5056065,112.842191 88.3279808,112.349309 88.019778,112.022285 C87.7115752,111.69526 87.3057418,111.531751 86.8022655,111.531751 C86.3223161,111.531751 85.9282459,111.697613 85.6200432,112.029343 C85.3118404,112.361072 85.1248041,112.851602 85.0589287,113.500945 Z M98.9350427,111.616447 L98.9350427,117.213476 C98.9350427,117.853408 98.8668157,118.40393 98.7303595,118.865058 C98.5939033,119.326186 98.3751061,119.707316 98.0739614,120.008461 C97.7728167,120.309606 97.3787465,120.533108 96.8917391,120.678975 C96.4047316,120.824842 95.7989222,120.897775 95.0742928,120.897775 C94.4108334,120.897775 93.8179636,120.804845 93.2956658,120.618982 C92.7733679,120.433119 92.3710634,120.193148 92.0887403,119.899062 C91.8064171,119.604975 91.6652576,119.302658 91.6652576,118.992103 C91.6652576,118.756834 91.745248,118.565092 91.9052311,118.416872 C92.0652143,118.268653 92.2581322,118.194544 92.4839907,118.194544 C92.7663139,118.194544 93.0133429,118.319235 93.2250853,118.56862 C93.3286038,118.695666 93.4356497,118.823886 93.5462263,118.953284 C93.6568029,119.082682 93.7791411,119.193257 93.9132446,119.285012 C94.0473481,119.376767 94.2085051,119.444994 94.3967206,119.489695 C94.584936,119.534396 94.8013805,119.556746 95.0460606,119.556746 C95.5448315,119.556746 95.9318437,119.487343 96.2071088,119.348534 C96.4823739,119.209725 96.6752918,119.015631 96.7858684,118.766245 C96.896445,118.51686 96.9611431,118.249833 96.9799646,117.965158 C96.9987861,117.680482 97.0129021,117.22289 97.0223129,116.592368 C96.7258735,117.006442 96.3835618,117.321698 95.9953675,117.538146 C95.6071731,117.754594 95.1448759,117.862816 94.6084619,117.862816 C93.963824,117.862816 93.4003625,117.69813 92.9180604,117.368753 C92.4357583,117.039376 92.0652148,116.578255 91.8064185,115.985376 C91.5476223,115.392498 91.4182261,114.707874 91.4182261,113.931486 C91.4182261,113.352723 91.4970401,112.830433 91.6546706,112.3646 C91.812301,111.898767 92.0369798,111.505873 92.3287138,111.185906 C92.6204477,110.86594 92.9568777,110.624793 93.338014,110.462457 C93.7191503,110.300121 94.1379234,110.218954 94.5943458,110.218954 C95.1401706,110.218954 95.6130548,110.323648 96.0130126,110.533037 C96.4129704,110.742427 96.7846903,111.070623 97.1281835,111.517635 L97.1281835,111.256487 C97.1281835,110.922405 97.2105265,110.663612 97.3752151,110.480102 C97.5399036,110.296592 97.7516428,110.204838 98.010439,110.204838 C98.3821645,110.204838 98.6291936,110.326 98.7515336,110.568328 C98.8738736,110.810655 98.9350427,111.160025 98.9350427,111.616447 Z M93.3521301,114.05853 C93.3521301,114.839624 93.5226978,115.430141 93.8638383,115.830099 C94.2049788,116.230057 94.6461021,116.430033 95.1872215,116.430033 C95.5071877,116.430033 95.8095043,116.344161 96.0941801,116.172414 C96.378856,116.000668 96.6105928,115.741875 96.7893974,115.39603 C96.9682021,115.050184 97.0576031,114.630234 97.0576031,114.136169 C97.0576031,113.350369 96.8846827,112.738678 96.5388369,112.301077 C96.192991,111.863476 95.7377517,111.644679 95.1731054,111.644679 C94.6225752,111.644679 94.1814519,111.854066 93.8497222,112.272845 C93.5179925,112.691625 93.3521301,113.286847 93.3521301,114.05853 Z M107.291767,114.263214 L107.291767,116.825283 C107.291767,117.229947 107.200013,117.533439 107.016503,117.735771 C106.832993,117.938103 106.590669,118.039267 106.289524,118.039267 C105.99779,118.039267 105.761348,117.938103 105.580191,117.735771 C105.399034,117.533439 105.308456,117.229947 105.308456,116.825283 L105.308456,113.755034 C105.308456,113.27038 105.291988,112.893954 105.25905,112.625747 C105.226112,112.35754 105.136711,112.137567 104.990844,111.96582 C104.844977,111.794074 104.614417,111.708202 104.299156,111.708202 C103.668634,111.708202 103.25339,111.924646 103.053411,112.357542 C102.853432,112.790437 102.753444,113.411539 102.753444,114.220865 L102.753444,116.825283 C102.753444,117.225241 102.662867,117.527558 102.48171,117.732242 C102.300552,117.936926 102.061758,118.039267 101.765318,118.039267 C101.473584,118.039267 101.23479,117.936926 101.048927,117.732242 C100.863064,117.527558 100.770134,117.225241 100.770134,116.825283 L100.770134,111.312951 C100.770134,110.950637 100.853653,110.675376 101.020695,110.48716 C101.187736,110.298945 101.407709,110.204838 101.680622,110.204838 C101.944123,110.204838 102.164097,110.293063 102.340549,110.469515 C102.517001,110.645967 102.605225,110.889467 102.605225,111.200023 L102.605225,111.383532 C102.939308,110.983574 103.296912,110.689492 103.678048,110.501276 C104.059184,110.313061 104.482663,110.218954 104.948496,110.218954 C105.433151,110.218954 105.849571,110.315413 106.19777,110.508334 C106.545968,110.701255 106.832993,110.992985 107.058851,111.383532 C107.383523,110.988279 107.731716,110.695373 108.103442,110.504805 C108.475167,110.314237 108.886882,110.218954 109.338599,110.218954 C109.865602,110.218954 110.319665,110.322471 110.700802,110.529508 C111.081938,110.736545 111.36661,111.03298 111.554825,111.418822 C111.719514,111.76702 111.801857,112.31519 111.801857,113.063346 L111.801857,116.825283 C111.801857,117.229947 111.710103,117.533439 111.526593,117.735771 C111.343083,117.938103 111.100759,118.039267 110.799614,118.039267 C110.50788,118.039267 110.269086,117.936926 110.083223,117.732242 C109.89736,117.527558 109.80443,117.225241 109.80443,116.825283 L109.80443,113.585641 C109.80443,113.171567 109.786785,112.839843 109.751495,112.590457 C109.716204,112.341072 109.620922,112.131685 109.465644,111.962291 C109.310366,111.792897 109.075101,111.708202 108.75984,111.708202 C108.505749,111.708202 108.264601,111.783487 108.03639,111.934059 C107.808179,112.084631 107.630553,112.28696 107.503508,112.541051 C107.362346,112.865723 107.291767,113.439771 107.291767,114.263214 Z M119.050467,114.594942 L115.281472,114.594942 C115.286177,115.032543 115.374402,115.418378 115.546149,115.752461 C115.717895,116.086543 115.946103,116.338278 116.230779,116.507671 C116.515455,116.677065 116.829535,116.761761 117.173028,116.761761 C117.403592,116.761761 117.614155,116.734705 117.804723,116.680594 C117.995291,116.626482 118.179975,116.541786 118.358779,116.426504 C118.537584,116.311222 118.70227,116.187707 118.852842,116.055957 C119.003415,115.924206 119.198685,115.745404 119.43866,115.519545 C119.537473,115.434848 119.678632,115.392501 119.862143,115.392501 C120.059769,115.392501 120.219749,115.446612 120.342089,115.554836 C120.46443,115.663059 120.525599,115.815982 120.525599,116.013608 C120.525599,116.187708 120.457372,116.391213 120.320915,116.624129 C120.184459,116.857046 119.978602,117.080548 119.703337,117.294643 C119.428071,117.508738 119.082231,117.686364 118.665804,117.827526 C118.249377,117.968687 117.770612,118.039267 117.229492,118.039267 C115.991976,118.039267 115.029739,117.686368 114.342752,116.98056 C113.655766,116.274753 113.312278,115.317221 113.312278,114.107937 C113.312278,113.538585 113.396974,113.010413 113.566367,112.523406 C113.735761,112.036398 113.98279,111.618802 114.307462,111.270603 C114.632134,110.922404 115.032086,110.655378 115.50733,110.469515 C115.982573,110.283652 116.509569,110.190722 117.088331,110.190722 C117.841193,110.190722 118.486998,110.349527 119.025764,110.66714 C119.564531,110.984754 119.968012,111.395293 120.236219,111.898769 C120.504426,112.402245 120.638527,112.915125 120.638527,113.437422 C120.638527,113.922077 120.499721,114.236157 120.222103,114.379671 C119.944485,114.523186 119.553944,114.594942 119.050467,114.594942 Z M115.281472,113.500945 L118.775204,113.500945 C118.72815,112.842191 118.550524,112.349309 118.242321,112.022285 C117.934119,111.69526 117.528285,111.531751 117.024809,111.531751 C116.54486,111.531751 116.150789,111.697613 115.842587,112.029343 C115.534384,112.361072 115.347348,112.851602 115.281472,113.500945 Z M124.012272,111.270603 L124.012272,111.503518 C124.35106,111.056507 124.721604,110.728311 125.123914,110.518921 C125.526225,110.309532 125.988522,110.204838 126.51082,110.204838 C127.019001,110.204838 127.473064,110.315413 127.873022,110.536566 C128.27298,110.75772 128.571768,111.070623 128.769394,111.475286 C128.896439,111.710556 128.978782,111.964643 129.016425,112.237555 C129.054068,112.510467 129.07289,112.858661 129.07289,113.282145 L129.07289,116.867632 C129.07289,117.253473 128.984665,117.545203 128.808213,117.742829 C128.631761,117.940455 128.402377,118.039267 128.120054,118.039267 C127.833025,118.039267 127.600112,117.938103 127.421307,117.735771 C127.242503,117.533439 127.153102,117.244063 127.153102,116.867632 L127.153102,113.656222 C127.153102,113.020995 127.064877,112.535171 126.888425,112.198736 C126.711973,111.862301 126.360251,111.694086 125.833248,111.694086 C125.489754,111.694086 125.176851,111.796426 124.894528,112.001111 C124.612205,112.205795 124.405171,112.486937 124.27342,112.844547 C124.179312,113.131575 124.132259,113.667981 124.132259,114.453781 L124.132259,116.867632 C124.132259,117.258179 124.041682,117.551085 123.860524,117.746358 C123.679367,117.941632 123.445278,118.039267 123.158249,118.039267 C122.880631,118.039267 122.652423,117.938103 122.473619,117.735771 C122.294814,117.533439 122.205413,117.244063 122.205413,116.867632 L122.205413,111.298835 C122.205413,110.931815 122.285403,110.65773 122.445387,110.476573 C122.60537,110.295416 122.824167,110.204838 123.101785,110.204838 C123.271179,110.204838 123.424101,110.244834 123.560557,110.324825 C123.697014,110.404817 123.806412,110.524802 123.888756,110.684785 C123.971101,110.844768 124.012272,111.040039 124.012272,111.270603 Z M131.098548,110.374231 L131.31029,110.374231 L131.31029,109.216712 C131.31029,108.906157 131.318524,108.662657 131.334993,108.486205 C131.351462,108.309753 131.397338,108.158006 131.472625,108.030961 C131.547911,107.89921 131.656133,107.792164 131.797295,107.70982 C131.938456,107.627476 132.096084,107.586304 132.270183,107.586304 C132.514864,107.586304 132.736013,107.678058 132.93364,107.861568 C133.06539,107.983908 133.14891,108.133302 133.1842,108.309754 C133.219491,108.486206 133.237135,108.736764 133.237135,109.061435 L133.237135,110.374231 L133.94294,110.374231 C134.215852,110.374231 134.424062,110.43893 134.567577,110.568328 C134.711091,110.697726 134.782847,110.863588 134.782847,111.06592 C134.782847,111.324716 134.680506,111.505871 134.475822,111.609389 C134.271138,111.712908 133.978232,111.764666 133.597096,111.764666 L133.237135,111.764666 L133.237135,115.307804 C133.237135,115.608949 133.247722,115.840686 133.268897,116.003021 C133.290071,116.165357 133.346535,116.297106 133.43829,116.398272 C133.530045,116.499438 133.679439,116.55002 133.886475,116.55002 C133.999405,116.55002 134.152328,116.530022 134.345248,116.490026 C134.538169,116.450031 134.688739,116.430033 134.796963,116.430033 C134.952241,116.430033 135.092224,116.492378 135.216917,116.617071 C135.341609,116.741764 135.403955,116.895863 135.403955,117.079373 C135.403955,117.389929 135.234564,117.627547 134.895776,117.792235 C134.556988,117.956924 134.069988,118.039267 133.434761,118.039267 C132.832471,118.039267 132.376056,117.938103 132.0655,117.735771 C131.754945,117.533439 131.55144,117.253473 131.454979,116.895864 C131.358519,116.538255 131.31029,116.060665 131.31029,115.463081 L131.31029,111.764666 L131.0562,111.764666 C130.778582,111.764666 130.566843,111.698792 130.420976,111.567041 C130.275109,111.43529 130.202177,111.268251 130.202177,111.06592 C130.202177,110.863588 130.278638,110.697726 130.431563,110.568328 C130.584488,110.43893 130.806814,110.374231 131.098548,110.374231 Z" transform="rotate(-8 104.493 114.119)"/>
    <path fill="#FFF" fill-rule="nonzero" d="M246.749484,294.891472 C246.749484,295.517288 246.588327,296.079573 246.266008,296.578344 C245.94369,297.077115 245.471982,297.467656 244.850871,297.749979 C244.22976,298.032303 243.493378,298.173462 242.641703,298.173462 C241.620634,298.173462 240.778383,297.980544 240.114923,297.594702 C239.644385,297.317085 239.262078,296.946541 238.967991,296.483061 C238.673905,296.01958 238.526863,295.569046 238.526863,295.131445 C238.526863,294.877354 238.615088,294.659733 238.79154,294.478576 C238.967992,294.297419 239.192671,294.206841 239.465583,294.206841 C239.686736,294.206841 239.873773,294.277421 240.026698,294.418583 C240.179623,294.559744 240.310195,294.769131 240.418419,295.046749 C240.55017,295.376126 240.692506,295.651387 240.845431,295.87254 C240.998356,296.093693 241.213624,296.276024 241.491242,296.419538 C241.76886,296.563052 242.133522,296.634809 242.585239,296.634809 C243.20635,296.634809 243.710995,296.49012 244.099189,296.200739 C244.487383,295.911358 244.681478,295.550225 244.681478,295.117329 C244.681478,294.773836 244.576784,294.495046 244.367395,294.280951 C244.158005,294.066856 243.887449,293.903346 243.55572,293.790417 C243.22399,293.677488 242.780514,293.557502 242.225278,293.430457 C241.481827,293.256357 240.859549,293.052852 240.358426,292.819936 C239.857302,292.587019 239.459703,292.26941 239.165616,291.8671 C238.87153,291.464789 238.724489,290.96485 238.724489,290.367266 C238.724489,289.797914 238.879764,289.292093 239.19032,288.849786 C239.500875,288.40748 239.950233,288.067521 240.538406,287.829899 C241.126579,287.592277 241.818261,287.473468 242.613471,287.473468 C243.248698,287.473468 243.798044,287.552282 244.261524,287.709912 C244.725005,287.867543 245.109664,288.076929 245.415514,288.338078 C245.721364,288.599227 245.944867,288.873312 246.086028,289.16034 C246.22719,289.447369 246.29777,289.727335 246.29777,290.000247 C246.29777,290.249633 246.209545,290.474312 246.033093,290.674291 C245.856641,290.874269 245.636668,290.974257 245.373166,290.974257 C245.133191,290.974257 244.95086,290.914265 244.826168,290.794277 C244.701475,290.67429 244.566197,290.477843 244.42033,290.204931 C244.232115,289.814384 244.006259,289.509714 243.742758,289.290914 C243.479256,289.072114 243.055778,288.962715 242.47231,288.962715 C241.931191,288.962715 241.494773,289.081524 241.163043,289.319146 C240.831313,289.556768 240.665451,289.842616 240.665451,290.176698 C240.665451,290.383735 240.721915,290.562537 240.834844,290.71311 C240.947773,290.863682 241.103048,290.993078 241.300675,291.101302 C241.498301,291.209526 241.698277,291.294222 241.900608,291.355392 C242.10294,291.416562 242.437017,291.505963 242.902851,291.623597 C243.486319,291.760054 244.01449,291.910624 244.487381,292.075312 C244.960273,292.240001 245.362577,292.439977 245.694307,292.675246 C246.026037,292.910515 246.284829,293.208126 246.470692,293.568088 C246.656555,293.928051 246.749484,294.369174 246.749484,294.891472 Z M252.021843,296.437183 L250.363203,289.84497 L250.363203,296.987711 C250.363203,297.382963 250.274978,297.679398 250.098526,297.877024 C249.922074,298.07465 249.687985,298.173462 249.396251,298.173462 C249.113928,298.173462 248.883367,298.075827 248.704563,297.880553 C248.525758,297.68528 248.436357,297.387669 248.436357,296.987711 L248.436357,288.80038 C248.436357,288.348663 248.55399,288.043994 248.789259,287.886363 C249.024528,287.728733 249.342137,287.649919 249.742095,287.649919 L250.391435,287.649919 C250.781982,287.649919 251.065477,287.685209 251.241929,287.755789 C251.418381,287.82637 251.548954,287.953414 251.633651,288.136924 C251.718348,288.320434 251.814807,288.619221 251.923031,289.033295 L253.426394,294.700905 L254.929757,289.033295 C255.037981,288.619221 255.13444,288.320434 255.219137,288.136924 C255.303834,287.953414 255.434406,287.82637 255.610858,287.755789 C255.78731,287.685209 256.070806,287.649919 256.461353,287.649919 L257.110693,287.649919 C257.510651,287.649919 257.828259,287.728733 258.063529,287.886363 C258.298798,288.043994 258.416431,288.348663 258.416431,288.80038 L258.416431,296.987711 C258.416431,297.382963 258.328206,297.679398 258.151754,297.877024 C257.975302,298.07465 257.73886,298.173462 257.442421,298.173462 C257.164803,298.173462 256.936595,298.07465 256.757791,297.877024 C256.578986,297.679398 256.489585,297.382963 256.489585,296.987711 L256.489585,289.84497 L254.830945,296.437183 C254.722721,296.865373 254.634496,297.179453 254.566268,297.379432 C254.49804,297.579411 254.372173,297.761742 254.188663,297.926431 C254.005153,298.091119 253.751066,298.173462 253.426394,298.173462 C253.181714,298.173462 252.97468,298.120527 252.805286,298.014656 C252.635892,297.908785 252.504143,297.773507 252.410036,297.608819 C252.315928,297.44413 252.241819,297.261799 252.187707,297.06182 C252.133595,296.861841 252.078308,296.653631 252.021843,296.437183 Z M268.431795,294.891472 C268.431795,295.517288 268.270638,296.079573 267.948319,296.578344 C267.626,297.077115 267.154292,297.467656 266.533181,297.749979 C265.91207,298.032303 265.175688,298.173462 264.324013,298.173462 C263.302945,298.173462 262.460693,297.980544 261.797234,297.594702 C261.326695,297.317085 260.944388,296.946541 260.650302,296.483061 C260.356215,296.01958 260.209174,295.569046 260.209174,295.131445 C260.209174,294.877354 260.297399,294.659733 260.473851,294.478576 C260.650303,294.297419 260.874981,294.206841 261.147894,294.206841 C261.369047,294.206841 261.556083,294.277421 261.709008,294.418583 C261.861933,294.559744 261.992506,294.769131 262.10073,295.046749 C262.232481,295.376126 262.374816,295.651387 262.527741,295.87254 C262.680666,296.093693 262.895935,296.276024 263.173552,296.419538 C263.45117,296.563052 263.815832,296.634809 264.267549,296.634809 C264.88866,296.634809 265.393305,296.49012 265.7815,296.200739 C266.169694,295.911358 266.363788,295.550225 266.363788,295.117329 C266.363788,294.773836 266.259095,294.495046 266.049705,294.280951 C265.840316,294.066856 265.56976,293.903346 265.23803,293.790417 C264.9063,293.677488 264.462824,293.557502 263.907589,293.430457 C263.164138,293.256357 262.54186,293.052852 262.040736,292.819936 C261.539613,292.587019 261.142014,292.26941 260.847927,291.8671 C260.55384,291.464789 260.406799,290.96485 260.406799,290.367266 C260.406799,289.797914 260.562075,289.292093 260.87263,288.849786 C261.183186,288.40748 261.632543,288.067521 262.220716,287.829899 C262.80889,287.592277 263.500571,287.473468 264.295781,287.473468 C264.931008,287.473468 265.480354,287.552282 265.943835,287.709912 C266.407315,287.867543 266.791975,288.076929 267.097825,288.338078 C267.403675,288.599227 267.627177,288.873312 267.768339,289.16034 C267.9095,289.447369 267.98008,289.727335 267.98008,290.000247 C267.98008,290.249633 267.891855,290.474312 267.715404,290.674291 C267.538952,290.874269 267.318978,290.974257 267.055476,290.974257 C266.815502,290.974257 266.633171,290.914265 266.508478,290.794277 C266.383785,290.67429 266.248507,290.477843 266.102641,290.204931 C265.914425,289.814384 265.68857,289.509714 265.425068,289.290914 C265.161567,289.072114 264.738088,288.962715 264.15462,288.962715 C263.613501,288.962715 263.177083,289.081524 262.845353,289.319146 C262.513624,289.556768 262.347761,289.842616 262.347761,290.176698 C262.347761,290.383735 262.404225,290.562537 262.517154,290.71311 C262.630084,290.863682 262.785359,290.993078 262.982985,291.101302 C263.180611,291.209526 263.380587,291.294222 263.582919,291.355392 C263.78525,291.416562 264.119328,291.505963 264.585161,291.623597 C265.168629,291.760054 265.696801,291.910624 266.169692,292.075312 C266.642583,292.240001 267.044888,292.439977 267.376617,292.675246 C267.708347,292.910515 267.967139,293.208126 268.153002,293.568088 C268.338865,293.928051 268.431795,294.369174 268.431795,294.891472 Z" transform="rotate(2 253.48 292.823)"/>
    <path fill="#FFF" fill-rule="nonzero" d="M344.235457,250.349243 L339.513625,250.349243 L339.513625,252.890139 L343.86138,252.890139 C344.181346,252.890139 344.420141,252.961895 344.577772,253.105409 C344.735402,253.248924 344.814216,253.438313 344.814216,253.673582 C344.814216,253.908851 344.736578,254.100593 344.581301,254.248812 C344.426023,254.397032 344.186052,254.471141 343.86138,254.471141 L339.513625,254.471141 L339.513625,257.414345 L344.397792,257.414345 C344.727169,257.414345 344.975374,257.490806 345.142415,257.643732 C345.309456,257.796657 345.392976,258.000161 345.392976,258.254252 C345.392976,258.498932 345.309456,258.697732 345.142415,258.850657 C344.975374,259.003582 344.727169,259.080043 344.397792,259.080043 L338.70195,259.080043 C338.245528,259.080043 337.917332,258.978879 337.717353,258.776548 C337.517374,258.574216 337.417386,258.247197 337.417386,257.795479 L337.417386,250.017515 C337.417386,249.716371 337.462087,249.470518 337.551489,249.27995 C337.640891,249.089382 337.780875,248.950575 337.971443,248.863525 C338.162011,248.776475 338.405511,248.732951 338.70195,248.732951 L344.235457,248.732951 C344.569539,248.732951 344.817744,248.80706 344.98008,248.95528 C345.142416,249.103499 345.223583,249.297594 345.223583,249.537568 C345.223583,249.782248 345.142416,249.978695 344.98008,250.126915 C344.817744,250.275135 344.569539,250.349243 344.235457,250.349243 Z M353.333275,255.480441 L353.333275,258.042511 C353.333275,258.447174 353.241521,258.750667 353.058011,258.952999 C352.874501,259.15533 352.632177,259.256495 352.331033,259.256495 C352.039299,259.256495 351.802857,259.15533 351.621699,258.952999 C351.440542,258.750667 351.349965,258.447174 351.349965,258.042511 L351.349965,254.972262 C351.349965,254.487607 351.333496,254.111182 351.300558,253.842975 C351.267621,253.574768 351.17822,253.354794 351.032353,253.183048 C350.886486,253.011301 350.655925,252.925429 350.340664,252.925429 C349.710143,252.925429 349.294899,253.141874 349.09492,253.574769 C348.894941,254.007665 348.794953,254.628766 348.794953,255.438093 L348.794953,258.042511 C348.794953,258.442469 348.704375,258.744785 348.523218,258.94947 C348.342061,259.154154 348.103266,259.256495 347.806827,259.256495 C347.515093,259.256495 347.276298,259.154154 347.090435,258.94947 C346.904572,258.744785 346.811643,258.442469 346.811643,258.042511 L346.811643,252.530179 C346.811643,252.167864 346.895162,251.892603 347.062203,251.704388 C347.229244,251.516172 347.449218,251.422066 347.72213,251.422066 C347.985632,251.422066 348.205605,251.510291 348.382057,251.686743 C348.558509,251.863195 348.646734,252.106695 348.646734,252.41725 L348.646734,252.600759 C348.980816,252.200801 349.33842,251.906719 349.719557,251.718504 C350.100693,251.530288 350.524171,251.436182 350.990004,251.436182 C351.474659,251.436182 351.89108,251.532641 352.239278,251.725562 C352.587477,251.918483 352.874501,252.210212 353.10036,252.600759 C353.425031,252.205507 353.773224,251.912601 354.14495,251.722033 C354.516675,251.531465 354.928391,251.436182 355.380108,251.436182 C355.907111,251.436182 356.361174,251.539699 356.74231,251.746736 C357.123446,251.953773 357.408118,252.250208 357.596333,252.636049 C357.761022,252.984248 357.843365,253.532417 357.843365,254.280574 L357.843365,258.042511 C357.843365,258.447174 357.751611,258.750667 357.568101,258.952999 C357.384591,259.15533 357.142267,259.256495 356.841123,259.256495 C356.549389,259.256495 356.310594,259.154154 356.124731,258.94947 C355.938869,258.744785 355.845939,258.442469 355.845939,258.042511 L355.845939,254.802869 C355.845939,254.388795 355.828294,254.05707 355.793003,253.807685 C355.757713,253.558299 355.66243,253.348913 355.507152,253.179519 C355.351875,253.010125 355.116609,252.925429 354.801348,252.925429 C354.547257,252.925429 354.30611,253.000714 354.077899,253.151287 C353.849687,253.301859 353.672062,253.504188 353.545016,253.758278 C353.403855,254.08295 353.333275,254.656999 353.333275,255.480441 Z M364.583797,258.169556 C364.117964,258.531871 363.66743,258.803602 363.232181,258.98476 C362.796933,259.165917 362.308757,259.256495 361.767637,259.256495 C361.273572,259.256495 360.839506,259.158859 360.465428,258.963586 C360.09135,258.768312 359.803149,258.503638 359.600818,258.169556 C359.398486,257.835473 359.297322,257.473164 359.297322,257.082617 C359.297322,256.555614 359.464361,256.106256 359.798443,255.734531 C360.132525,255.362805 360.591294,255.113423 361.174762,254.986378 C361.297102,254.958146 361.600594,254.894624 362.085249,254.795811 C362.569904,254.696998 362.985148,254.60642 363.330994,254.524076 C363.67684,254.441732 364.052089,254.341744 364.456752,254.224109 C364.433225,253.715928 364.330884,253.343031 364.149727,253.105409 C363.96857,252.867787 363.593321,252.748978 363.023969,252.748978 C362.534609,252.748978 362.166418,252.817205 361.919385,252.953661 C361.672352,253.090118 361.460613,253.294799 361.284161,253.567711 C361.107709,253.840624 360.983018,254.020602 360.910085,254.107652 C360.837151,254.194701 360.6807,254.238225 360.440725,254.238225 C360.224277,254.238225 360.037241,254.168822 359.879611,254.030013 C359.72198,253.891204 359.643166,253.713579 359.643166,253.497131 C359.643166,253.158343 359.763152,252.828971 360.003126,252.509005 C360.243101,252.189038 360.617174,251.925541 361.125355,251.718504 C361.633537,251.511467 362.266402,251.40795 363.023969,251.40795 C363.870939,251.40795 364.536741,251.507938 365.021395,251.707917 C365.50605,251.907896 365.848362,252.224328 366.048341,252.657224 C366.24832,253.090119 366.348308,253.664168 366.348308,254.379386 C366.348308,254.831103 366.347131,255.214587 366.344779,255.529847 C366.342426,255.845108 366.338897,256.195654 366.334192,256.581496 C366.334192,256.943811 366.394184,257.321412 366.514172,257.714312 C366.634159,258.107212 366.694152,258.360122 366.694152,258.473052 C366.694152,258.670678 366.601222,258.850656 366.415359,259.012992 C366.229496,259.175328 366.018933,259.256495 365.783664,259.256495 C365.586038,259.256495 365.390767,259.163565 365.197847,258.977702 C365.004926,258.791839 364.800244,258.52246 364.583797,258.169556 Z M364.456752,255.381629 C364.174429,255.485147 363.76389,255.594546 363.225123,255.709828 C362.686357,255.825109 362.31346,255.909805 362.106423,255.963917 C361.899386,256.018029 361.701763,256.123899 361.513548,256.281529 C361.325332,256.43916 361.231226,256.659133 361.231226,256.941456 C361.231226,257.23319 361.341801,257.481396 361.562954,257.68608 C361.784107,257.890764 362.073484,257.993105 362.431093,257.993105 C362.81223,257.993105 363.163952,257.909585 363.486271,257.742544 C363.80859,257.575503 364.045032,257.360235 364.195604,257.096733 C364.369704,256.804999 364.456752,256.325057 364.456752,255.656892 L364.456752,255.381629 Z M370.230232,252.516063 L370.230232,258.084859 C370.230232,258.470701 370.138478,258.76243 369.954968,258.960057 C369.771458,259.157683 369.538545,259.256495 369.256222,259.256495 C368.973899,259.256495 368.744514,259.15533 368.568062,258.952999 C368.39161,258.750667 368.303386,258.46129 368.303386,258.084859 L368.303386,252.572527 C368.303386,252.191391 368.39161,251.904367 368.568062,251.711446 C368.744514,251.518525 368.973899,251.422066 369.256222,251.422066 C369.538545,251.422066 369.771458,251.518525 369.954968,251.711446 C370.138478,251.904367 370.230232,252.17257 370.230232,252.516063 Z M369.277396,250.525694 C369.009189,250.525694 368.779805,250.443351 368.589237,250.278663 C368.398668,250.113974 368.303386,249.881061 368.303386,249.579917 C368.303386,249.307004 368.401021,249.082325 368.596295,248.905873 C368.791568,248.729421 369.0186,248.641197 369.277396,248.641197 C369.526781,248.641197 369.747931,248.721187 369.940852,248.88117 C370.133773,249.041153 370.230232,249.274066 370.230232,249.579917 C370.230232,249.876356 370.136125,250.108093 369.94791,250.275134 C369.759695,250.442175 369.536192,250.525694 369.277396,250.525694 Z M372.2206,258.084859 L372.2206,249.728135 C372.2206,249.342294 372.306472,249.050564 372.478219,248.852938 C372.649965,248.655312 372.881702,248.5565 373.173436,248.5565 C373.46517,248.5565 373.700436,248.654135 373.87924,248.849409 C374.058045,249.044683 374.147446,249.337588 374.147446,249.728135 L374.147446,258.084859 C374.147446,258.475406 374.056869,258.768312 373.875711,258.963586 C373.694554,259.158859 373.460465,259.256495 373.173436,259.256495 C372.891113,259.256495 372.661729,259.15533 372.485277,258.952999 C372.308825,258.750667 372.2206,258.46129 372.2206,258.084859 Z" transform="rotate(-3 355.782 253.906)"/>
    <path fill="#FFF" fill-rule="nonzero" d="M11.309975,262.225759 L16.6246819,255.866462 L12.0581276,255.866462 C11.7381613,255.866462 11.4970139,255.795882 11.3346781,255.654721 C11.1723423,255.513559 11.0911756,255.327699 11.0911756,255.097135 C11.0911756,254.85716 11.1723423,254.663066 11.3346781,254.514846 C11.4970139,254.366627 11.7381613,254.292518 12.0581276,254.292518 L17.9445361,254.292518 C18.7068086,254.292518 19.0879392,254.647769 19.0879392,255.358283 C19.0879392,255.69707 19.0244174,255.967626 18.897372,256.169958 C18.7703266,256.372289 18.5138869,256.699309 18.1280452,257.151026 L13.1591824,263.065666 L18.6362244,263.065666 C18.960896,263.065666 19.2032198,263.132717 19.3632029,263.266821 C19.523186,263.400924 19.6031764,263.587961 19.6031764,263.827935 C19.6031764,264.077321 19.523186,264.274944 19.3632029,264.420811 C19.2032198,264.566678 18.960896,264.63961 18.6362244,264.63961 L11.9169667,264.63961 C11.4605443,264.63961 11.1170562,264.53727 10.8864923,264.332585 C10.6559284,264.127901 10.5406482,263.853816 10.5406482,263.510323 C10.5406482,263.392689 10.5594694,263.284466 10.5971125,263.185653 C10.6347556,263.08684 10.6853378,262.99391 10.7488605,262.90686 C10.8123832,262.819811 10.9006079,262.709236 11.0135371,262.575132 C11.1264664,262.441029 11.225278,262.324572 11.309975,262.225759 Z M25.6589779,263.729123 C25.1931447,264.091437 24.7426108,264.363169 24.3073626,264.544327 C23.8721144,264.725484 23.3839379,264.816061 22.8428185,264.816061 C22.3487529,264.816061 21.9146876,264.718426 21.5406094,264.523153 C21.1665312,264.327879 20.8783306,264.063205 20.675999,263.729123 C20.4736674,263.39504 20.3725032,263.032731 20.3725032,262.642184 C20.3725032,262.115181 20.5395419,261.665823 20.8736243,261.294097 C21.2077067,260.922372 21.6664749,260.67299 22.2499428,260.545945 C22.3722828,260.517713 22.6757757,260.454191 23.1604304,260.355378 C23.6450852,260.256565 24.0603293,260.165987 24.4061752,260.083643 C24.752021,260.001299 25.12727,259.901311 25.5319332,259.783676 C25.5084062,259.275494 25.4060656,258.902598 25.2249083,258.664976 C25.0437509,258.427354 24.668502,258.308545 24.0991503,258.308545 C23.6097901,258.308545 23.2415992,258.376772 22.9945664,258.513228 C22.7475337,258.649684 22.5357945,258.854366 22.3593425,259.127278 C22.1828905,259.40019 22.0581996,259.580169 21.9852662,259.667218 C21.9123327,259.754268 21.7558809,259.797792 21.5159062,259.797792 C21.2994585,259.797792 21.1124222,259.728389 20.9547918,259.58958 C20.7971613,259.450771 20.7183473,259.273145 20.7183473,259.056698 C20.7183473,258.71791 20.8383328,258.388538 21.0783075,258.068571 C21.3182822,257.748605 21.6923548,257.485108 22.2005365,257.278071 C22.7087182,257.071034 23.3415831,256.967517 24.0991503,256.967517 C24.9461198,256.967517 25.6119219,257.067505 26.0965767,257.267484 C26.5812314,257.467462 26.9235431,257.783895 27.123522,258.21679 C27.3235009,258.649686 27.4234889,259.223734 27.4234889,259.938953 C27.4234889,260.39067 27.4223126,260.774153 27.4199599,261.089414 C27.4176072,261.404675 27.4140782,261.755221 27.4093728,262.141063 C27.4093728,262.503377 27.4693656,262.880979 27.5893529,263.273879 C27.7093403,263.666778 27.769333,263.919689 27.769333,264.032618 C27.769333,264.230245 27.6764031,264.410223 27.4905403,264.572559 C27.3046776,264.734895 27.0941147,264.816061 26.8588454,264.816061 C26.6612192,264.816061 26.4659486,264.723131 26.2730278,264.537269 C26.0801069,264.351406 25.8754257,264.082027 25.6589779,263.729123 Z M25.5319332,260.941195 C25.24961,261.044714 24.8390712,261.154112 24.3003045,261.269394 C23.7615378,261.384676 23.3886416,261.469372 23.1816046,261.523484 C22.9745676,261.577596 22.7769443,261.683465 22.5887289,261.841096 C22.4005135,261.998726 22.3064072,262.2187 22.3064072,262.501023 C22.3064072,262.792757 22.4169821,263.040962 22.6381352,263.245647 C22.8592884,263.450331 23.1486653,263.552671 23.5062746,263.552671 C23.8874109,263.552671 24.2391332,263.469152 24.5614521,263.302111 C24.8837711,263.13507 25.1202132,262.919802 25.2707855,262.6563 C25.4448848,262.364566 25.5319332,261.884624 25.5319332,261.216459 L25.5319332,260.941195 Z M30.9666269,258.061513 L30.9666269,258.294429 C31.3289416,257.847417 31.7053668,257.519221 32.0959139,257.309832 C32.4864609,257.100442 32.9287606,256.995749 33.4228261,256.995749 C34.0157047,256.995749 34.5615213,257.148672 35.0602922,257.454522 C35.5590632,257.760372 35.9531333,258.207377 36.2425146,258.79555 C36.5318958,259.383723 36.6765843,260.08011 36.6765843,260.884731 C36.6765843,261.47761 36.5930649,262.02225 36.4260237,262.518668 C36.2589825,263.015086 36.0295984,263.431507 35.7378645,263.767942 C35.4461305,264.104377 35.1014662,264.363169 34.703861,264.544327 C34.3062559,264.725484 33.8792485,264.816061 33.4228261,264.816061 C32.8722959,264.816061 32.4099987,264.705486 32.0359205,264.484333 C31.6618423,264.26318 31.3054147,263.938513 30.9666269,263.510323 L30.9666269,266.404121 C30.9666269,267.251091 30.6584287,267.674569 30.0420231,267.674569 C29.6797084,267.674569 29.4397373,267.56517 29.3221027,267.34637 C29.204468,267.12757 29.1456516,266.808784 29.1456516,266.390005 L29.1456516,258.07563 C29.1456516,257.708609 29.2256419,257.434525 29.3856251,257.253367 C29.5456082,257.07221 29.7644054,256.981633 30.0420231,256.981633 C30.3149355,256.981633 30.5372617,257.074563 30.7090083,257.260425 C30.8807549,257.446288 30.9666269,257.713315 30.9666269,258.061513 Z M34.7426803,260.863557 C34.7426803,260.355375 34.6650426,259.918957 34.5097648,259.55429 C34.3544871,259.189622 34.1392189,258.909656 33.8639538,258.714382 C33.5886887,258.519109 33.2840196,258.421474 32.9499372,258.421474 C32.4182285,258.421474 31.9700472,258.63086 31.6053798,259.04964 C31.2407124,259.468419 31.0583814,260.084815 31.0583814,260.898847 C31.0583814,261.665825 31.2395361,262.262224 31.6018508,262.688061 C31.9641655,263.113899 32.4135232,263.326814 32.9499372,263.326814 C33.2699034,263.326814 33.5663383,263.233884 33.8392507,263.048021 C34.1121631,262.862159 34.3309602,262.583369 34.4956487,262.211643 C34.6603373,261.839918 34.7426803,261.39056 34.7426803,260.863557 Z M40.1491418,258.07563 L40.1491418,263.644426 C40.1491418,264.030268 40.0573882,264.321997 39.8738781,264.519623 C39.690368,264.71725 39.4574549,264.816061 39.1751318,264.816061 C38.8928086,264.816061 38.6634245,264.714897 38.4869725,264.512565 C38.3105205,264.310234 38.2222959,264.020857 38.2222959,263.644426 L38.2222959,258.132094 C38.2222959,257.750958 38.3105205,257.463933 38.4869725,257.271013 C38.6634245,257.078092 38.8928086,256.981633 39.1751318,256.981633 C39.4574549,256.981633 39.690368,257.078092 39.8738781,257.271013 C40.0573882,257.463933 40.1491418,257.732136 40.1491418,258.07563 Z M39.1963059,256.085261 C38.9280989,256.085261 38.6987148,256.002918 38.5081466,255.83823 C38.3175785,255.673541 38.2222959,255.440628 38.2222959,255.139483 C38.2222959,254.866571 38.3199312,254.641892 38.5152047,254.46544 C38.7104782,254.288988 38.9375097,254.200763 39.1963059,254.200763 C39.4456914,254.200763 39.6668412,254.280754 39.859762,254.440737 C40.0526828,254.60072 40.1491418,254.833633 40.1491418,255.139483 C40.1491418,255.435923 40.0550355,255.667659 39.8668201,255.834701 C39.6786046,256.001742 39.4551021,256.085261 39.1963059,256.085261 Z M47.5177395,261.371736 L43.7487441,261.371736 C43.7534495,261.809337 43.8416742,262.195173 44.0134208,262.529255 C44.1851674,262.863338 44.4133752,263.115072 44.698051,263.284466 C44.9827269,263.45386 45.2968067,263.538555 45.6402999,263.538555 C45.8708638,263.538555 46.0814266,263.5115 46.2719948,263.457388 C46.4625629,263.403276 46.6472465,263.31858 46.8260512,263.203298 C47.0048559,263.088016 47.1695419,262.964502 47.3201143,262.832751 C47.4706866,262.701 47.6659572,262.522198 47.9059319,262.29634 C48.004745,262.211643 48.1459045,262.169295 48.3294145,262.169295 C48.5270408,262.169295 48.6870215,262.223406 48.8093615,262.33163 C48.9317016,262.439854 48.9928707,262.592777 48.9928707,262.790403 C48.9928707,262.964502 48.9246436,263.168007 48.7881874,263.400924 C48.6517312,263.63384 48.4458736,263.857343 48.1706086,264.071438 C47.8953435,264.285533 47.5495028,264.463158 47.1330761,264.60432 C46.7166495,264.745482 46.2378836,264.816061 45.6967642,264.816061 C44.4592477,264.816061 43.4970107,264.463163 42.8100243,263.757355 C42.1230379,263.051547 41.7795499,262.094015 41.7795499,260.884731 C41.7795499,260.315379 41.8642456,259.787208 42.0336395,259.3002 C42.2030334,258.813193 42.4500625,258.395596 42.7747341,258.047397 C43.0994057,257.699199 43.4993575,257.432172 43.9746015,257.246309 C44.4498455,257.060447 44.9768409,256.967517 45.5556033,256.967517 C46.3084651,256.967517 46.9542697,257.126321 47.4930364,257.443935 C48.0318031,257.761548 48.4352839,258.172087 48.7034909,258.675563 C48.9716979,259.17904 49.1057994,259.691919 49.1057994,260.214217 C49.1057994,260.698872 48.9669926,261.012951 48.6893748,261.156466 C48.411757,261.29998 48.0212158,261.371736 47.5177395,261.371736 Z M43.7487441,260.277739 L47.2424758,260.277739 C47.1954219,259.618985 47.0177963,259.126103 46.7095935,258.799079 C46.4013907,258.472055 45.9955573,258.308545 45.4920809,258.308545 C45.0121316,258.308545 44.6180614,258.474407 44.3098586,258.806137 C44.0016558,259.137867 43.8146195,259.628396 43.7487441,260.277739 Z M52.6418793,262.035192 L52.6418793,263.644426 C52.6418793,264.034973 52.5501256,264.327879 52.3666156,264.523153 C52.1831055,264.718426 51.9501924,264.816061 51.6678692,264.816061 C51.3902515,264.816061 51.1620437,264.71725 50.983239,264.519623 C50.8044343,264.321997 50.7150333,264.030268 50.7150333,263.644426 L50.7150333,258.280313 C50.7150333,257.414522 51.0279368,256.981633 51.6537532,256.981633 C51.9737194,256.981633 52.2042799,257.082797 52.3454414,257.285129 C52.486603,257.48746 52.5642407,257.786248 52.5783569,258.1815 C52.8089208,257.786248 53.0453629,257.48746 53.2876903,257.285129 C53.5300177,257.082797 53.8535081,256.981633 54.2581713,256.981633 C54.6628345,256.981633 55.0557284,257.082797 55.4368646,257.285129 C55.8180009,257.48746 56.0085662,257.755663 56.0085662,258.089746 C56.0085662,258.325015 55.9273995,258.519109 55.7650637,258.672034 C55.6027278,258.824959 55.4274548,258.901421 55.2392394,258.901421 C55.1686586,258.901421 54.9980909,258.857896 54.7275312,258.770847 C54.4569715,258.683797 54.2181768,258.640273 54.0111398,258.640273 C53.7288166,258.640273 53.4982562,258.714382 53.3194515,258.862601 C53.1406468,259.010821 53.00184,259.230795 52.9030269,259.522528 C52.8042138,259.814262 52.7359867,260.161279 52.6983436,260.56359 C52.6607005,260.9659 52.6418793,261.45643 52.6418793,262.035192 Z" transform="rotate(5 33.275 260.938)"/>
    <path fill="#FFF" fill-rule="nonzero" d="M106.584336,266.874295 L106.584336,258.722255 C106.584336,258.29877 106.680795,257.981161 106.873716,257.769419 C107.066637,257.557677 107.316018,257.451807 107.621869,257.451807 C107.937129,257.451807 108.192393,257.5565 108.387666,257.76589 C108.58294,257.97528 108.680575,258.294065 108.680575,258.722255 L108.680575,266.874295 C108.680575,267.302486 108.58294,267.622447 108.387666,267.834189 C108.192393,268.045932 107.937129,268.151801 107.621869,268.151801 C107.320724,268.151801 107.072518,268.044755 106.877245,267.83066 C106.681971,267.616565 106.584336,267.29778 106.584336,266.874295 Z M117.206692,259.24455 L113.077736,259.24455 L113.077736,261.891317 L116.52912,261.891317 C116.849086,261.891317 117.087881,261.963073 117.245511,262.106587 C117.403142,262.250101 117.481956,262.441843 117.481956,262.681817 C117.481956,262.921792 117.401965,263.112357 117.241982,263.253519 C117.081999,263.394681 116.844381,263.46526 116.52912,263.46526 L113.077736,263.46526 L113.077736,266.874295 C113.077736,267.307191 112.980101,267.628329 112.784828,267.837718 C112.589554,268.047108 112.338996,268.151801 112.033146,268.151801 C111.72259,268.151801 111.46968,268.045932 111.274406,267.834189 C111.079133,267.622447 110.981497,267.302486 110.981497,266.874295 L110.981497,258.912822 C110.981497,258.611677 111.026198,258.365825 111.1156,258.175257 C111.205003,257.984688 111.344986,257.845882 111.535554,257.758832 C111.726122,257.671782 111.969622,257.628258 112.266061,257.628258 L117.206692,257.628258 C117.540774,257.628258 117.78898,257.702367 117.951316,257.850587 C118.113651,257.998806 118.194818,258.1929 118.194818,258.432875 C118.194818,258.677555 118.113651,258.874002 117.951316,259.022222 C117.78898,259.170441 117.540774,259.24455 117.206692,259.24455 Z M126.473903,259.357479 L124.187097,259.357479 L124.187097,266.874295 C124.187097,267.307191 124.090638,267.628329 123.897718,267.837718 C123.704797,268.047108 123.455415,268.151801 123.149565,268.151801 C122.839009,268.151801 122.586099,268.045932 122.390825,267.834189 C122.195552,267.622447 122.097916,267.302486 122.097916,266.874295 L122.097916,259.357479 L119.81111,259.357479 C119.453501,259.357479 119.187651,259.278665 119.013551,259.121034 C118.839452,258.963404 118.752404,258.755194 118.752404,258.496398 C118.752404,258.228191 118.842981,258.016451 119.024138,257.861174 C119.205296,257.705896 119.467617,257.628258 119.81111,257.628258 L126.473903,257.628258 C126.836218,257.628258 127.105598,257.708248 127.282049,257.868232 C127.458501,258.028215 127.546726,258.237601 127.546726,258.496398 C127.546726,258.755194 127.457325,258.963404 127.27852,259.121034 C127.099716,259.278665 126.831513,259.357479 126.473903,259.357479 Z M135.5082,259.357479 L133.221393,259.357479 L133.221393,266.874295 C133.221393,267.307191 133.124934,267.628329 132.932014,267.837718 C132.739093,268.047108 132.489711,268.151801 132.183861,268.151801 C131.873305,268.151801 131.620395,268.045932 131.425121,267.834189 C131.229848,267.622447 131.132212,267.302486 131.132212,266.874295 L131.132212,259.357479 L128.845406,259.357479 C128.487797,259.357479 128.221947,259.278665 128.047847,259.121034 C127.873748,258.963404 127.7867,258.755194 127.7867,258.496398 C127.7867,258.228191 127.877277,258.016451 128.058434,257.861174 C128.239592,257.705896 128.501913,257.628258 128.845406,257.628258 L135.5082,257.628258 C135.870514,257.628258 136.139894,257.708248 136.316346,257.868232 C136.492798,258.028215 136.581022,258.237601 136.581022,258.496398 C136.581022,258.755194 136.491621,258.963404 136.312817,259.121034 C136.134012,259.278665 135.865809,259.357479 135.5082,259.357479 Z M144.542496,259.357479 L142.255689,259.357479 L142.255689,266.874295 C142.255689,267.307191 142.15923,267.628329 141.96631,267.837718 C141.773389,268.047108 141.524007,268.151801 141.218157,268.151801 C140.907601,268.151801 140.654691,268.045932 140.459417,267.834189 C140.264144,267.622447 140.166508,267.302486 140.166508,266.874295 L140.166508,259.357479 L137.879702,259.357479 C137.522093,259.357479 137.256243,259.278665 137.082143,259.121034 C136.908044,258.963404 136.820996,258.755194 136.820996,258.496398 C136.820996,258.228191 136.911573,258.016451 137.09273,257.861174 C137.273888,257.705896 137.536209,257.628258 137.879702,257.628258 L144.542496,257.628258 C144.90481,257.628258 145.17419,257.708248 145.350642,257.868232 C145.527094,258.028215 145.615318,258.237601 145.615318,258.496398 C145.615318,258.755194 145.525917,258.963404 145.347113,259.121034 C145.168308,259.278665 144.900105,259.357479 144.542496,259.357479 Z" transform="rotate(-4 126.1 262.802)"/>
    <path fill="#FFF" fill-rule="nonzero" d="M366.14091,175.62682 L365.646847,174.32814 L361.440253,174.32814 L360.94619,175.655052 C360.753269,176.172644 360.588583,176.522014 360.452126,176.703171 C360.31567,176.884329 360.092168,176.974906 359.781612,176.974906 C359.518111,176.974906 359.285198,176.878447 359.082866,176.685526 C358.880534,176.492605 358.77937,176.273808 358.77937,176.029128 C358.77937,175.887967 358.802897,175.742102 358.849951,175.59153 C358.897004,175.440957 358.974642,175.231571 359.082866,174.963364 L361.729632,168.244106 C361.804919,168.051185 361.895496,167.819448 362.001367,167.548889 C362.107238,167.278329 362.220166,167.05365 362.340153,166.874845 C362.460141,166.696041 362.617769,166.551352 362.813042,166.440776 C363.008316,166.330199 363.249463,166.274912 363.536492,166.274912 C363.828226,166.274912 364.071726,166.330199 364.266999,166.440776 C364.462273,166.551352 364.619901,166.693688 364.739888,166.867787 C364.859875,167.041887 364.96104,167.228923 365.043384,167.428902 C365.125728,167.628881 365.230421,167.895907 365.357467,168.22999 L368.060698,174.906899 C368.27244,175.415081 368.37831,175.784448 368.37831,176.015012 C368.37831,176.254987 368.278322,176.47496 368.078343,176.674939 C367.878364,176.874918 367.637216,176.974906 367.354893,176.974906 C367.190205,176.974906 367.049045,176.945498 366.931411,176.886681 C366.813776,176.827863 366.714964,176.747873 366.634973,176.646707 C366.554981,176.545541 366.469109,176.390266 366.377354,176.180876 C366.285599,175.971486 366.206785,175.786803 366.14091,175.62682 Z M361.99078,172.754196 L365.082203,172.754196 L363.522376,168.484079 L361.99078,172.754196 Z M376.191564,173.198853 L376.191564,175.760923 C376.191564,176.165586 376.09981,176.469079 375.9163,176.67141 C375.73279,176.873742 375.490467,176.974906 375.189322,176.974906 C374.897588,176.974906 374.661146,176.873742 374.479988,176.67141 C374.298831,176.469079 374.208254,176.165586 374.208254,175.760923 L374.208254,172.690674 C374.208254,172.206019 374.191785,171.829594 374.158848,171.561387 C374.12591,171.29318 374.036509,171.073206 373.890642,170.901459 C373.744775,170.729713 373.514214,170.643841 373.198954,170.643841 C372.568432,170.643841 372.153188,170.860285 371.953209,171.293181 C371.75323,171.726076 371.653242,172.347178 371.653242,173.156504 L371.653242,175.760923 C371.653242,176.16088 371.562665,176.463197 371.381507,176.667881 C371.20035,176.872565 370.961555,176.974906 370.665116,176.974906 C370.373382,176.974906 370.134587,176.872565 369.948724,176.667881 C369.762862,176.463197 369.669932,176.16088 369.669932,175.760923 L369.669932,170.24859 C369.669932,169.886276 369.753451,169.611015 369.920492,169.422799 C370.087533,169.234584 370.307507,169.140477 370.580419,169.140477 C370.843921,169.140477 371.063894,169.228702 371.240346,169.405154 C371.416798,169.581606 371.505023,169.825106 371.505023,170.135662 L371.505023,170.319171 C371.839105,169.919213 372.196709,169.625131 372.577846,169.436915 C372.958982,169.2487 373.38246,169.154594 373.848294,169.154594 C374.332948,169.154594 374.749369,169.251053 375.097567,169.443973 C375.445766,169.636894 375.73279,169.928624 375.958649,170.319171 C376.28332,169.923918 376.631514,169.631012 377.003239,169.440444 C377.374965,169.249876 377.78668,169.154594 378.238397,169.154594 C378.7654,169.154594 379.219463,169.258111 379.600599,169.465148 C379.981736,169.672184 380.266407,169.968619 380.454623,170.354461 C380.619311,170.70266 380.701654,171.250829 380.701654,171.998985 L380.701654,175.760923 C380.701654,176.165586 380.6099,176.469079 380.42639,176.67141 C380.24288,176.873742 380.000557,176.974906 379.699412,176.974906 C379.407678,176.974906 379.168883,176.872565 378.98302,176.667881 C378.797158,176.463197 378.704228,176.16088 378.704228,175.760923 L378.704228,172.52128 C378.704228,172.107206 378.686583,171.775482 378.651292,171.526096 C378.616002,171.276711 378.520719,171.067324 378.365442,170.89793 C378.210164,170.728537 377.974898,170.643841 377.659637,170.643841 C377.405546,170.643841 377.164399,170.719126 376.936188,170.869698 C376.707977,171.020271 376.530351,171.222599 376.403305,171.47669 C376.262144,171.801362 376.191564,172.37541 376.191564,173.198853 Z M387.442086,175.887967 C386.976253,176.250282 386.525719,176.522014 386.09047,176.703171 C385.655222,176.884329 385.167046,176.974906 384.625926,176.974906 C384.131861,176.974906 383.697796,176.877271 383.323717,176.681997 C382.949639,176.486724 382.661439,176.22205 382.459107,175.887967 C382.256775,175.553885 382.155611,175.191576 382.155611,174.801029 C382.155611,174.274025 382.32265,173.824668 382.656732,173.452942 C382.990815,173.081217 383.449583,172.831835 384.033051,172.70479 C384.155391,172.676557 384.458884,172.613036 384.943538,172.514222 C385.428193,172.415409 385.843437,172.324832 386.189283,172.242488 C386.535129,172.160143 386.910378,172.060156 387.315041,171.942521 C387.291514,171.434339 387.189174,171.061443 387.008016,170.823821 C386.826859,170.586199 386.45161,170.46739 385.882258,170.46739 C385.392898,170.46739 385.024707,170.535617 384.777674,170.672073 C384.530642,170.808529 384.318902,171.01321 384.14245,171.286123 C383.965998,171.559035 383.841308,171.739014 383.768374,171.826063 C383.695441,171.913113 383.538989,171.956637 383.299014,171.956637 C383.082566,171.956637 382.89553,171.887234 382.7379,171.748425 C382.580269,171.609616 382.501455,171.43199 382.501455,171.215542 C382.501455,170.876755 382.621441,170.547382 382.861415,170.227416 C383.10139,169.90745 383.475463,169.643952 383.983644,169.436915 C384.491826,169.229878 385.124691,169.126361 385.882258,169.126361 C386.729228,169.126361 387.39503,169.226349 387.879685,169.426328 C388.364339,169.626307 388.706651,169.94274 388.90663,170.375635 C389.106609,170.808531 389.206597,171.382579 389.206597,172.097798 C389.206597,172.549515 389.20542,172.932998 389.203068,173.248259 C389.200715,173.56352 389.197186,173.914066 389.192481,174.299907 C389.192481,174.662222 389.252474,175.039824 389.372461,175.432724 C389.492448,175.825623 389.552441,176.078534 389.552441,176.191463 C389.552441,176.389089 389.459511,176.569068 389.273648,176.731404 C389.087785,176.893739 388.877223,176.974906 388.641953,176.974906 C388.444327,176.974906 388.249057,176.881976 388.056136,176.696113 C387.863215,176.510251 387.658534,176.240871 387.442086,175.887967 Z M387.315041,173.10004 C387.032718,173.203559 386.622179,173.312957 386.083412,173.428239 C385.544646,173.543521 385.17175,173.628217 384.964713,173.682329 C384.757676,173.736441 384.560052,173.84231 384.371837,173.999941 C384.183621,174.157571 384.089515,174.377545 384.089515,174.659868 C384.089515,174.951602 384.20009,175.199807 384.421243,175.404491 C384.642396,175.609176 384.931773,175.711516 385.289383,175.711516 C385.670519,175.711516 386.022241,175.627997 386.34456,175.460956 C386.666879,175.293914 386.903321,175.078646 387.053893,174.815145 C387.227993,174.523411 387.315041,174.043469 387.315041,173.375304 L387.315041,173.10004 Z M396.398743,171.349645 L392.869722,175.295092 L396.645775,175.295092 C396.951625,175.295092 397.182186,175.366848 397.337463,175.510362 C397.492741,175.653876 397.570379,175.83856 397.570379,176.064418 C397.570379,176.280866 397.493917,176.457316 397.340992,176.593772 C397.188067,176.730228 396.95633,176.798455 396.645775,176.798455 L391.422823,176.798455 C391.055802,176.798455 390.781718,176.718465 390.60056,176.558482 C390.419403,176.398498 390.328826,176.179701 390.328826,175.902083 C390.328826,175.737395 390.392348,175.571533 390.519393,175.404491 C390.646438,175.23745 390.909936,174.930428 391.309894,174.483417 C391.733379,174.012878 392.118038,173.587047 392.463884,173.205911 C392.80973,172.824774 393.130868,172.468347 393.427307,172.136617 C393.723746,171.804887 393.969599,171.523745 394.164873,171.293181 C394.360146,171.062617 394.516598,170.864994 394.634232,170.700305 L391.768667,170.700305 C391.373414,170.700305 391.074627,170.665015 390.872295,170.594435 C390.669964,170.523854 390.568799,170.337994 390.568799,170.036849 C390.568799,169.815696 390.645261,169.639247 390.798186,169.507496 C390.951111,169.375745 391.168732,169.309871 391.451055,169.309871 L395.876448,169.309871 C396.285817,169.309871 396.599897,169.369863 396.818697,169.489851 C397.037497,169.609838 397.146896,169.825106 397.146896,170.135662 C397.146896,170.23918 397.125722,170.346226 397.083374,170.456803 C397.041025,170.567379 396.993972,170.657957 396.942213,170.728537 C396.890454,170.799118 396.819874,170.88499 396.730471,170.986156 C396.641069,171.087322 396.530494,171.208484 396.398743,171.349645 Z M405.715361,173.057692 C405.715361,173.631749 405.62596,174.161097 405.447156,174.645752 C405.268351,175.130406 405.009559,175.546827 404.670771,175.895025 C404.331983,176.243224 403.927326,176.510251 403.456787,176.696113 C402.986249,176.881976 402.456901,176.974906 401.868727,176.974906 C401.285259,176.974906 400.760617,176.8808 400.294784,176.692584 C399.82895,176.504369 399.42547,176.23499 399.084329,175.884438 C398.743189,175.533887 398.484396,175.119819 398.307944,174.642223 C398.131492,174.164626 398.043268,173.636454 398.043268,173.057692 C398.043268,172.474224 398.132669,171.940171 398.311473,171.455516 C398.490278,170.970861 398.746718,170.556793 399.0808,170.2133 C399.414882,169.869807 399.81954,169.605133 400.294784,169.41927 C400.770028,169.233407 401.29467,169.140477 401.868727,169.140477 C402.452195,169.140477 402.981543,169.234584 403.456787,169.422799 C403.932031,169.611015 404.339041,169.879218 404.677829,170.227416 C405.016617,170.575615 405.274233,170.989683 405.450685,171.469632 C405.627137,171.949581 405.715361,172.478929 405.715361,173.057692 Z M403.781457,173.057692 C403.781457,172.271892 403.608537,171.660201 403.262691,171.2226 C402.916845,170.785 402.452195,170.566202 401.868727,170.566202 C401.492296,170.566202 401.160572,170.663838 400.873543,170.859111 C400.586515,171.054385 400.365365,171.342585 400.210087,171.723722 C400.054809,172.104858 399.977172,172.54951 399.977172,173.057692 C399.977172,173.561168 400.053633,174.001115 400.206558,174.377546 C400.359483,174.753977 400.57828,175.042177 400.862956,175.242156 C401.147632,175.442135 401.482886,175.542123 401.868727,175.542123 C402.452195,175.542123 402.916845,175.32215 403.262691,174.882196 C403.608537,174.442243 403.781457,173.83408 403.781457,173.057692 Z M408.983235,170.206242 L408.983235,170.439158 C409.322023,169.992146 409.692567,169.66395 410.094877,169.45456 C410.497188,169.245171 410.959485,169.140477 411.481783,169.140477 C411.989965,169.140477 412.444028,169.251052 412.843985,169.472206 C413.243943,169.693359 413.542731,170.006262 413.740357,170.410925 C413.867402,170.646195 413.949745,170.900282 413.987389,171.173194 C414.025032,171.446106 414.043853,171.7943 414.043853,172.217785 L414.043853,175.803271 C414.043853,176.189112 413.955628,176.480842 413.779176,176.678468 C413.602724,176.876094 413.37334,176.974906 413.091017,176.974906 C412.803988,176.974906 412.571075,176.873742 412.392271,176.67141 C412.213466,176.469079 412.124065,176.179702 412.124065,175.803271 L412.124065,172.591861 C412.124065,171.956634 412.03584,171.47081 411.859388,171.134375 C411.682936,170.79794 411.331214,170.629725 410.804211,170.629725 C410.460718,170.629725 410.147814,170.732065 409.865491,170.93675 C409.583168,171.141434 409.376134,171.422577 409.244383,171.780186 C409.150275,172.067214 409.103222,172.60362 409.103222,173.38942 L409.103222,175.803271 C409.103222,176.193818 409.012645,176.486724 408.831488,176.681997 C408.65033,176.877271 408.416241,176.974906 408.129212,176.974906 C407.851594,176.974906 407.623387,176.873742 407.444582,176.67141 C407.265777,176.469079 407.176376,176.179702 407.176376,175.803271 L407.176376,170.234474 C407.176376,169.867454 407.256367,169.59337 407.41635,169.412212 C407.576333,169.231055 407.79513,169.140477 408.072748,169.140477 C408.242142,169.140477 408.395064,169.180473 408.531521,169.260464 C408.667977,169.340456 408.777375,169.460441 408.85972,169.620424 C408.942064,169.780408 408.983235,169.975678 408.983235,170.206242 Z M421.765353,167.54536 L421.765353,175.076292 L426.014295,175.076292 C426.353083,175.076292 426.613052,175.158635 426.794209,175.323324 C426.975366,175.488012 427.065944,175.695046 427.065944,175.944432 C427.065944,176.198523 426.976543,176.40438 426.797738,176.562011 C426.618933,176.719641 426.357788,176.798455 426.014295,176.798455 L420.953678,176.798455 C420.497255,176.798455 420.16906,176.697291 419.969081,176.494959 C419.769102,176.292628 419.669114,175.965608 419.669114,175.513891 L419.669114,167.54536 C419.669114,167.121875 419.764396,166.804266 419.954965,166.592524 C420.145533,166.380781 420.396091,166.274912 420.706646,166.274912 C421.021907,166.274912 421.27717,166.379605 421.472444,166.588995 C421.667717,166.798384 421.765353,167.117169 421.765353,167.54536 Z M433.17821,175.887967 C432.712376,176.250282 432.261842,176.522014 431.826594,176.703171 C431.391346,176.884329 430.903169,176.974906 430.36205,176.974906 C429.867985,176.974906 429.433919,176.877271 429.059841,176.681997 C428.685763,176.486724 428.397562,176.22205 428.195231,175.887967 C427.992899,175.553885 427.891735,175.191576 427.891735,174.801029 C427.891735,174.274025 428.058773,173.824668 428.392856,173.452942 C428.726938,173.081217 429.185707,172.831835 429.769174,172.70479 C429.891514,172.676557 430.195007,172.613036 430.679662,172.514222 C431.164317,172.415409 431.579561,172.324832 431.925407,172.242488 C432.271253,172.160143 432.646502,172.060156 433.051165,171.942521 C433.027638,171.434339 432.925297,171.061443 432.74414,170.823821 C432.562982,170.586199 432.187734,170.46739 431.618382,170.46739 C431.129022,170.46739 430.760831,170.535617 430.513798,170.672073 C430.266765,170.808529 430.055026,171.01321 429.878574,171.286123 C429.702122,171.559035 429.577431,171.739014 429.504498,171.826063 C429.431564,171.913113 429.275113,171.956637 429.035138,171.956637 C428.81869,171.956637 428.631654,171.887234 428.474023,171.748425 C428.316393,171.609616 428.237579,171.43199 428.237579,171.215542 C428.237579,170.876755 428.357564,170.547382 428.597539,170.227416 C428.837514,169.90745 429.211586,169.643952 429.719768,169.436915 C430.22795,169.229878 430.860815,169.126361 431.618382,169.126361 C432.465351,169.126361 433.131153,169.226349 433.615808,169.426328 C434.100463,169.626307 434.442775,169.94274 434.642754,170.375635 C434.842733,170.808531 434.94272,171.382579 434.94272,172.097798 C434.94272,172.549515 434.941544,172.932998 434.939191,173.248259 C434.936839,173.56352 434.93331,173.914066 434.928604,174.299907 C434.928604,174.662222 434.988597,175.039824 435.108584,175.432724 C435.228572,175.825623 435.288565,176.078534 435.288565,176.191463 C435.288565,176.389089 435.195635,176.569068 435.009772,176.731404 C434.823909,176.893739 434.613346,176.974906 434.378077,176.974906 C434.180451,176.974906 433.98518,176.881976 433.792259,176.696113 C433.599339,176.510251 433.394657,176.240871 433.17821,175.887967 Z M433.051165,173.10004 C432.768842,173.203559 432.358303,173.312957 431.819536,173.428239 C431.280769,173.543521 430.907873,173.628217 430.700836,173.682329 C430.493799,173.736441 430.296176,173.84231 430.10796,173.999941 C429.919745,174.157571 429.825639,174.377545 429.825639,174.659868 C429.825639,174.951602 429.936214,175.199807 430.157367,175.404491 C430.37852,175.609176 430.667897,175.711516 431.025506,175.711516 C431.406642,175.711516 431.758365,175.627997 432.080684,175.460956 C432.403003,175.293914 432.639445,175.078646 432.790017,174.815145 C432.964116,174.523411 433.051165,174.043469 433.051165,173.375304 L433.051165,173.10004 Z M443.306502,173.198853 L443.306502,175.760923 C443.306502,176.165586 443.214749,176.469079 443.031239,176.67141 C442.847729,176.873742 442.605405,176.974906 442.30426,176.974906 C442.012526,176.974906 441.776084,176.873742 441.594927,176.67141 C441.413769,176.469079 441.323192,176.165586 441.323192,175.760923 L441.323192,172.690674 C441.323192,172.206019 441.306723,171.829594 441.273786,171.561387 C441.240848,171.29318 441.151447,171.073206 441.00558,170.901459 C440.859713,170.729713 440.629153,170.643841 440.313892,170.643841 C439.68337,170.643841 439.268126,170.860285 439.068147,171.293181 C438.868168,171.726076 438.76818,172.347178 438.76818,173.156504 L438.76818,175.760923 C438.76818,176.16088 438.677603,176.463197 438.496446,176.667881 C438.315288,176.872565 438.076493,176.974906 437.780054,176.974906 C437.48832,176.974906 437.249525,176.872565 437.063663,176.667881 C436.8778,176.463197 436.78487,176.16088 436.78487,175.760923 L436.78487,170.24859 C436.78487,169.886276 436.868389,169.611015 437.03543,169.422799 C437.202472,169.234584 437.422445,169.140477 437.695358,169.140477 C437.958859,169.140477 438.178833,169.228702 438.355285,169.405154 C438.531737,169.581606 438.619961,169.825106 438.619961,170.135662 L438.619961,170.319171 C438.954044,169.919213 439.311648,169.625131 439.692784,169.436915 C440.07392,169.2487 440.497399,169.154594 440.963232,169.154594 C441.447887,169.154594 441.864307,169.251053 442.212506,169.443973 C442.560704,169.636894 442.847728,169.928624 443.073587,170.319171 C443.398259,169.923918 443.746452,169.631012 444.118177,169.440444 C444.489903,169.249876 444.901618,169.154594 445.353335,169.154594 C445.880338,169.154594 446.334401,169.258111 446.715537,169.465148 C447.096674,169.672184 447.381345,169.968619 447.569561,170.354461 C447.734249,170.70266 447.816592,171.250829 447.816592,171.998985 L447.816592,175.760923 C447.816592,176.165586 447.724839,176.469079 447.541329,176.67141 C447.357819,176.873742 447.115495,176.974906 446.81435,176.974906 C446.522616,176.974906 446.283821,176.872565 446.097959,176.667881 C445.912096,176.463197 445.819166,176.16088 445.819166,175.760923 L445.819166,172.52128 C445.819166,172.107206 445.801521,171.775482 445.766231,171.526096 C445.73094,171.276711 445.635658,171.067324 445.48038,170.89793 C445.325102,170.728537 445.089836,170.643841 444.774575,170.643841 C444.520485,170.643841 444.279337,170.719126 444.051126,170.869698 C443.822915,171.020271 443.645289,171.222599 443.518244,171.47669 C443.377082,171.801362 443.306502,172.37541 443.306502,173.198853 Z M451.465601,167.375967 L451.465601,170.319171 C451.827916,169.94274 452.197283,169.654539 452.573714,169.45456 C452.950145,169.254582 453.415971,169.154594 453.971206,169.154594 C454.611139,169.154594 455.172248,169.30634 455.65455,169.609837 C456.136852,169.913335 456.510925,170.353282 456.776779,170.929692 C457.042633,171.506101 457.175558,172.189548 457.175558,172.980053 C457.175558,173.563521 457.10145,174.098751 456.95323,174.585758 C456.80501,175.072766 456.589742,175.495068 456.307419,175.852677 C456.025096,176.210286 455.682784,176.486724 455.280474,176.681997 C454.878163,176.877271 454.434687,176.974906 453.950032,176.974906 C453.653593,176.974906 453.374803,176.939616 453.113654,176.869035 C452.852505,176.798455 452.630179,176.705525 452.446669,176.590243 C452.263159,176.474961 452.106707,176.356152 451.977309,176.233811 C451.847911,176.111471 451.677343,175.927964 451.465601,175.683284 L451.465601,175.873851 C451.465601,176.236166 451.378553,176.510251 451.204453,176.696113 C451.030354,176.881976 450.809204,176.974906 450.540997,176.974906 C450.268085,176.974906 450.050464,176.881976 449.888128,176.696113 C449.725792,176.510251 449.644626,176.236166 449.644626,175.873851 L449.644626,167.460663 C449.644626,167.070116 449.72344,166.774857 449.88107,166.574879 C450.038701,166.3749 450.258674,166.274912 450.540997,166.274912 C450.837437,166.274912 451.065644,166.370194 451.225627,166.560763 C451.385611,166.751331 451.465601,167.023063 451.465601,167.375967 Z M451.557356,173.10004 C451.557356,173.867018 451.732629,174.456359 452.08318,174.86808 C452.433731,175.279801 452.893676,175.485659 453.463027,175.485659 C453.947682,175.485659 454.365279,175.275096 454.71583,174.853964 C455.066381,174.432832 455.241654,173.829375 455.241654,173.043576 C455.241654,172.535394 455.168722,172.0978 455.022855,171.73078 C454.876988,171.363759 454.669954,171.080264 454.401747,170.880285 C454.13354,170.680306 453.820637,170.580318 453.463027,170.580318 C453.096007,170.580318 452.768988,170.680306 452.481959,170.880285 C452.194931,171.080264 451.969076,171.369641 451.804387,171.748425 C451.639699,172.127208 451.557356,172.577742 451.557356,173.10004 Z M464.000687,175.873851 L464.000687,175.683284 C463.74189,175.979723 463.486627,176.220871 463.234889,176.406734 C462.983151,176.592596 462.710242,176.733756 462.416156,176.830216 C462.122069,176.926677 461.800931,176.974906 461.452733,176.974906 C460.991605,176.974906 460.564598,176.877271 460.171698,176.681997 C459.778798,176.486724 459.438839,176.207934 459.151811,175.845619 C458.864782,175.483304 458.647161,175.057473 458.498942,174.568113 C458.350722,174.078753 458.276613,173.549405 458.276613,172.980053 C458.276613,171.775474 458.570695,170.836764 459.158869,170.163894 C459.747042,169.491024 460.521066,169.154594 461.480965,169.154594 C462.036201,169.154594 462.504379,169.249876 462.885516,169.440444 C463.266652,169.631012 463.638372,169.923918 464.000687,170.319171 L464.000687,167.474779 C464.000687,167.079527 464.079501,166.780739 464.237131,166.578408 C464.394762,166.376076 464.61944,166.274912 464.911174,166.274912 C465.202908,166.274912 465.427587,166.367842 465.585218,166.553704 C465.742848,166.739567 465.821662,167.013652 465.821662,167.375967 L465.821662,175.873851 C465.821662,176.240871 465.736966,176.516132 465.567572,176.699642 C465.398179,176.883152 465.179381,176.974906 464.911174,176.974906 C464.647673,176.974906 464.430052,176.879623 464.258305,176.689055 C464.086559,176.498487 464.000687,176.226755 464.000687,175.873851 Z M460.210517,173.043576 C460.210517,173.565874 460.291684,174.010526 460.45402,174.377546 C460.616356,174.744566 460.838682,175.021003 461.121005,175.206866 C461.403328,175.392729 461.711526,175.485659 462.045609,175.485659 C462.384396,175.485659 462.693771,175.397434 462.973741,175.220982 C463.253712,175.04453 463.477214,174.773975 463.644255,174.409307 C463.811297,174.04464 463.894816,173.5894 463.894816,173.043576 C463.894816,172.530689 463.811297,172.089565 463.644255,171.720192 C463.477214,171.35082 463.251359,171.068501 462.966683,170.873227 C462.682007,170.677954 462.37028,170.580318 462.031492,170.580318 C461.678589,170.580318 461.363332,170.680306 461.085715,170.880285 C460.808097,171.080264 460.592829,171.367288 460.439904,171.741367 C460.286979,172.115445 460.210517,172.54951 460.210517,173.043576 Z M472.625616,175.887967 C472.159783,176.250282 471.709249,176.522014 471.274001,176.703171 C470.838753,176.884329 470.350576,176.974906 469.809457,176.974906 C469.315391,176.974906 468.881326,176.877271 468.507248,176.681997 C468.133169,176.486724 467.844969,176.22205 467.642637,175.887967 C467.440306,175.553885 467.339141,175.191576 467.339141,174.801029 C467.339141,174.274025 467.50618,173.824668 467.840262,173.452942 C468.174345,173.081217 468.633113,172.831835 469.216581,172.70479 C469.338921,172.676557 469.642414,172.613036 470.127069,172.514222 C470.611723,172.415409 471.026968,172.324832 471.372813,172.242488 C471.718659,172.160143 472.093908,172.060156 472.498571,171.942521 C472.475044,171.434339 472.372704,171.061443 472.191546,170.823821 C472.010389,170.586199 471.63514,170.46739 471.065788,170.46739 C470.576428,170.46739 470.208237,170.535617 469.961205,170.672073 C469.714172,170.808529 469.502433,171.01321 469.325981,171.286123 C469.149529,171.559035 469.024838,171.739014 468.951904,171.826063 C468.878971,171.913113 468.722519,171.956637 468.482544,171.956637 C468.266097,171.956637 468.07906,171.887234 467.92143,171.748425 C467.7638,171.609616 467.684986,171.43199 467.684986,171.215542 C467.684986,170.876755 467.804971,170.547382 468.044946,170.227416 C468.28492,169.90745 468.658993,169.643952 469.167175,169.436915 C469.675356,169.229878 470.308221,169.126361 471.065788,169.126361 C471.912758,169.126361 472.57856,169.226349 473.063215,169.426328 C473.54787,169.626307 473.890181,169.94274 474.09016,170.375635 C474.290139,170.808531 474.390127,171.382579 474.390127,172.097798 C474.390127,172.549515 474.388951,172.932998 474.386598,173.248259 C474.384245,173.56352 474.380716,173.914066 474.376011,174.299907 C474.376011,174.662222 474.436004,175.039824 474.555991,175.432724 C474.675978,175.825623 474.735971,176.078534 474.735971,176.191463 C474.735971,176.389089 474.643041,176.569068 474.457179,176.731404 C474.271316,176.893739 474.060753,176.974906 473.825484,176.974906 C473.627857,176.974906 473.432587,176.881976 473.239666,176.696113 C473.046745,176.510251 472.842064,176.240871 472.625616,175.887967 Z M472.498571,173.10004 C472.216248,173.203559 471.805709,173.312957 471.266943,173.428239 C470.728176,173.543521 470.35528,173.628217 470.148243,173.682329 C469.941206,173.736441 469.743583,173.84231 469.555367,173.999941 C469.367152,174.157571 469.273045,174.377545 469.273045,174.659868 C469.273045,174.951602 469.38362,175.199807 469.604773,175.404491 C469.825927,175.609176 470.115303,175.711516 470.472913,175.711516 C470.854049,175.711516 471.205771,175.627997 471.52809,175.460956 C471.850409,175.293914 472.086851,175.078646 472.237424,174.815145 C472.411523,174.523411 472.498571,174.043469 472.498571,173.375304 L472.498571,173.10004 Z" transform="rotate(2 416.758 171.625)"/>
    <g stroke="#FFF" stroke-linejoin="round" stroke-width="2" transform="translate(313.56 220.159)">
      <rect width="40.917" height="22.014" x="-1" y="-1"/>
      <polyline points="0 0 19.052 10.497 39.999 0"/>
    </g>
    <polygon stroke="#FFF" stroke-linejoin="round" stroke-width="2" points="388.301 153.163 406.32 126.552 404.163 119.631 397.954 119.631 397.954 112.407 409.762 112.407 423.866 146.82 430.608 144.765 432.778 151.202 419.118 155.772 410.539 135.499 397.954 153.163"/>
    <g stroke="#FFF" stroke-width="2" transform="translate(84.738 223.495)">
      <rect width="48.7" height="27.574" x="-.12" y="-1" stroke-linejoin="round"/>
      <polyline stroke-linejoin="round" points="0 11.801 29.836 11.801 29.836 26.654"/>
      <path d="M29.3409542,11.8005063 L47.8602284,11.8005063"/>
    </g>
    <g transform="translate(232.39 242.397)">
      <path stroke="#FFF" d="M0,4.05511761 L22.6867244,4.05511761"/>
      <rect width="24.238" height="37.581" x="-1" y="-1" stroke="#FFF" stroke-linejoin="round" stroke-width="2" rx="2"/>
      <path stroke="#FFF" stroke-linejoin="round" d="M8.24352366,1.34560247 L13.5806399,1.34560247 C12.3122913,1.84942011 11.422772,2.10132894 10.9120818,2.10132894 C10.4013916,2.10132894 9.51187223,1.84942011 8.24352366,1.34560247 Z"/>
      <path stroke="#FFF" d="M0,30.7410382 L22.6867244,30.7410382"/>
      <circle cx="10.841" cy="33.635" r="1.39" fill="#FFF"/>
    </g>
    <polygon stroke="#FFF" stroke-linejoin="round" stroke-width="2" points="16.47 28.29 8.48 36.068 4.059 31.385 11.821 23.401 .603 23.401 .603 16.784 11.821 16.784 4.059 8.53 8.536 4.048 16.47 11.844 16.47 .61 23.472 .61 23.472 11.844 31.701 4.048 36.161 8.53 28.098 16.784 39.52 16.784 39.52 23.401 28.098 23.401 36.161 31.385 31.701 36.068 23.472 28.29 23.472 39.527 16.276 39.437" transform="translate(28.307 209.541)"/>
  </g>
</svg>
