<svg xmlns="http://www.w3.org/2000/svg" viewBox="0 0 487 313">
  <g fill="none" fill-rule="evenodd" transform="translate(-170)">
    <g stroke="#FFF" stroke-linejoin="round" stroke-width="2" transform="translate(367 43)">
      <polygon points="39 126 78 72 39 94.708"/>
      <polygon points="39 87 78 63.877 39 47"/>
      <polygon points="0 87 39 63.877 0 47" transform="matrix(-1 0 0 1 39 0)"/>
      <polygon points="0 46.806 39 63 0 0" transform="matrix(-1 0 0 1 39 0)"/>
      <polygon points="39 46.806 78 63 39 0"/>
      <polygon points="0 126 39 72 0 94.708" transform="matrix(-1 0 0 1 39 0)"/>
    </g>
    <g stroke="#FFF" stroke-linecap="round" stroke-linejoin="round" stroke-width="2" transform="translate(272.563 52.402)">
      <path d="M89.4814453,28.072753 C33.8173828,1.79736238 27.5791016,-9.80810637 10.0458984,9.90087801"/>
      <polygon points="0 9.651 0 22.833 13.869 18.969"/>
    </g>
    <g stroke="#FFF" stroke-linecap="round" stroke-linejoin="round" stroke-width="2" transform="translate(294.563 157.402)">
      <path d="M77.4814453,0.0727530051 C55.5185547,49.166503 28.4482422,21.744628 10.9150391,41.4536124"/>
      <polygon points="0 41.651 0 54.833 13.869 50.969"/>
    </g>
    <g stroke="#FFF" stroke-width="2" transform="translate(218.111 88.827)">
      <g transform="translate(5)">
        <path stroke-linecap="round" stroke-linejoin="round" d="M29.4921875 2.07677521C12.8085937-4.93201385.190429688 7.14513459 2.84217094e-14 18.2740408M44.2529297 17.7320487L12.0556641 17.760369"/>
        <circle cx="37.889" cy="8.173" r="1"/>
      </g>
      <g transform="rotate(180 22.5 22.5)">
        <path stroke-linecap="round" stroke-linejoin="round" d="M29.4921875 2.07677521C12.8085937-4.93201385.190429688 7.14513459 2.84217094e-14 18.2740408M44.2529297 17.7320487L12.0556641 17.760369"/>
        <circle cx="37.889" cy="8.173" r="1"/>
      </g>
    </g>
    <path fill="#FFF" fill-rule="nonzero" d="M582.799075,79.253317 L580.742434,79.253317 L580.742434,86.0135709 C580.742434,86.4028958 580.655684,86.6917113 580.48218,86.880026 C580.308677,87.0683407 580.084395,87.1624967 579.809329,87.1624967 C579.53003,87.1624967 579.302575,87.0672828 579.126956,86.8768522 C578.951336,86.6864215 578.863528,86.398664 578.863528,86.0135709 L578.863528,79.253317 L576.806887,79.253317 C576.485271,79.253317 576.246178,79.1824356 576.089602,79.0406705 C575.933026,78.8989055 575.854739,78.7116515 575.854739,78.478903 C575.854739,78.2376908 575.9362,78.047263 576.099124,77.9076139 C576.262048,77.7679648 576.497966,77.6981412 576.806887,77.6981412 L582.799075,77.6981412 C583.124923,77.6981412 583.367189,77.7700806 583.525881,77.9139616 C583.684574,78.0578425 583.763918,78.2461544 583.763918,78.478903 C583.763918,78.7116515 583.683516,78.8989055 583.522708,79.0406705 C583.361899,79.1824356 583.120691,79.253317 582.799075,79.253317 Z M585.344485,81.1956998 L586.474368,85.0677701 L587.502688,81.4686491 C587.612715,81.0920196 587.694175,80.8349421 587.747073,80.6974088 C587.79997,80.5598756 587.899416,80.428692 588.045413,80.3038541 C588.191409,80.1790163 588.391359,80.1165983 588.645266,80.1165983 C588.903405,80.1165983 589.10547,80.1790163 589.251467,80.3038541 C589.397464,80.428692 589.500084,80.5641073 589.559329,80.7101041 C589.618574,80.856101 589.701092,81.1089467 589.806887,81.4686491 L590.835208,85.0677701 L591.977786,81.1956998 C592.053958,80.9164016 592.115318,80.7143365 592.161868,80.5894987 C592.208417,80.4646608 592.286704,80.3546359 592.396731,80.2594205 C592.506758,80.1642052 592.665447,80.1165983 592.872805,80.1165983 C593.080163,80.1165983 593.260011,80.1885377 593.412356,80.3324186 C593.5647,80.4762995 593.640872,80.6455687 593.640872,80.8402311 C593.640872,81.0179663 593.57528,81.2866811 593.444094,81.6463834 L592.028567,85.7977506 C591.905845,86.1489893 591.810631,86.4028931 591.742922,86.5594694 C591.675214,86.7160457 591.568363,86.8556927 591.422366,86.9784147 C591.276369,87.1011366 591.07642,87.1624967 590.822512,87.1624967 C590.560141,87.1624967 590.353844,87.0969049 590.203616,86.9657194 C590.053387,86.8345338 589.942304,86.6737281 589.870364,86.4832975 C589.798423,86.2928668 589.720136,86.0453107 589.635501,85.7406217 L588.645266,82.3636686 L587.68677,85.7406217 C587.559816,86.2103506 587.422285,86.5647579 587.274172,86.8038541 C587.12606,87.0429504 586.865808,87.1624967 586.493411,87.1624967 C586.30298,87.1624967 586.141116,87.1254691 586.007815,87.0514127 C585.874514,86.9773564 585.763431,86.8715632 585.674563,86.7340299 C585.585695,86.5964967 585.507408,86.4335751 585.4397,86.2452604 C585.371991,86.0569456 585.319094,85.9077772 585.281008,85.7977506 L583.878176,81.6463834 C583.738527,81.2570586 583.668704,80.9883438 583.668704,80.8402311 C583.668704,80.6540322 583.742759,80.486879 583.890872,80.3387662 C584.038984,80.1906535 584.220949,80.1165983 584.43677,80.1165983 C584.724532,80.1165983 584.919191,80.198059 585.020754,80.360983 C585.122317,80.523907 585.230226,80.8021432 585.344485,81.1956998 Z M596.567141,81.100485 L596.567141,86.1087858 C596.567141,86.4557927 596.484622,86.7181599 596.319583,86.8958951 C596.154543,87.0736304 595.945072,87.1624967 595.691165,87.1624967 C595.437257,87.1624967 595.23096,87.0715145 595.072268,86.8895475 C594.913576,86.7075804 594.834231,86.4473291 594.834231,86.1087858 L594.834231,81.1512662 C594.834231,80.8084911 594.913576,80.5503556 595.072268,80.3768522 C595.23096,80.2033487 595.437257,80.1165983 595.691165,80.1165983 C595.945072,80.1165983 596.154543,80.2033487 596.319583,80.3768522 C596.484622,80.5503556 596.567141,80.7915642 596.567141,81.100485 Z M595.710208,79.3104459 C595.468995,79.3104459 595.262699,79.2363907 595.091311,79.088278 C594.919923,78.9401652 594.834231,78.7306947 594.834231,78.45986 C594.834231,78.2144161 594.922039,78.012351 595.097659,77.8536588 C595.273278,77.6949666 595.477459,77.6156217 595.710208,77.6156217 C595.934493,77.6156217 596.133384,77.6875611 596.306887,77.831442 C596.480391,77.9753229 596.567141,78.1847935 596.567141,78.45986 C596.567141,78.7264629 596.482507,78.9348755 596.313235,79.0851041 C596.143963,79.2353327 595.942956,79.3104459 595.710208,79.3104459 Z M598.452395,80.268942 L598.642825,80.268942 L598.642825,79.2279264 C598.642825,78.9486281 598.65023,78.7296362 598.665042,78.570944 C598.679853,78.4122518 598.721112,78.2757785 598.788821,78.1615201 C598.856529,78.04303 598.953859,77.9467581 599.080813,77.8727018 C599.207767,77.7986454 599.34953,77.7616178 599.506106,77.7616178 C599.726159,77.7616178 599.92505,77.8441365 600.102786,78.0091764 C600.221276,78.119203 600.296389,78.2535604 600.328127,78.4122526 C600.359866,78.5709448 600.375735,78.7962843 600.375735,79.088278 L600.375735,80.268942 L601.010501,80.268942 C601.255944,80.268942 601.443198,80.3271283 601.572268,80.4435026 C601.701338,80.5598768 601.765872,80.7090453 601.765872,80.8910123 C601.765872,81.1237609 601.673832,81.2866824 601.489749,81.3797819 C601.305666,81.4728813 601.042241,81.5194303 600.699465,81.5194303 L600.375735,81.5194303 L600.375735,84.7059537 C600.375735,84.9767884 600.385256,85.1852011 600.404299,85.3311979 C600.423342,85.4771947 600.474123,85.5956831 600.556643,85.6866666 C600.639163,85.7776502 600.77352,85.8231412 600.959719,85.8231412 C601.061282,85.8231412 601.198813,85.8051564 601.372317,85.7691862 C601.54582,85.7332159 601.681236,85.7152311 601.778567,85.7152311 C601.918216,85.7152311 602.04411,85.7713015 602.156252,85.883444 C602.268395,85.9955865 602.324465,86.1341756 602.324465,86.2992155 C602.324465,86.5785137 602.172123,86.792216 601.867434,86.9403287 C601.562745,87.0884415 601.124761,87.1624967 600.553469,87.1624967 C600.0118,87.1624967 599.601322,87.0715145 599.322024,86.8895475 C599.042726,86.7075804 598.859703,86.4557926 598.772952,86.1341764 C598.6862,85.8125602 598.642825,85.3830398 598.642825,84.8456022 L598.642825,81.5194303 L598.414309,81.5194303 C598.164633,81.5194303 597.974206,81.4601861 597.84302,81.3416959 C597.711834,81.2232058 597.646243,81.0729794 597.646243,80.8910123 C597.646243,80.7090453 597.715008,80.5598768 597.852542,80.4435026 C597.990075,80.3271283 598.190024,80.268942 598.452395,80.268942 Z M603.054446,80.268942 L603.244876,80.268942 L603.244876,79.2279264 C603.244876,78.9486281 603.252281,78.7296362 603.267092,78.570944 C603.281904,78.4122518 603.323163,78.2757785 603.390872,78.1615201 C603.45858,78.04303 603.55591,77.9467581 603.682864,77.8727018 C603.809818,77.7986454 603.95158,77.7616178 604.108157,77.7616178 C604.32821,77.7616178 604.527101,77.8441365 604.704836,78.0091764 C604.823327,78.119203 604.89844,78.2535604 604.930178,78.4122526 C604.961917,78.5709448 604.977786,78.7962843 604.977786,79.088278 L604.977786,80.268942 L605.612551,80.268942 C605.857995,80.268942 606.045249,80.3271283 606.174319,80.4435026 C606.303389,80.5598768 606.367922,80.7090453 606.367922,80.8910123 C606.367922,81.1237609 606.275882,81.2866824 606.091799,81.3797819 C605.907716,81.4728813 605.644291,81.5194303 605.301516,81.5194303 L604.977786,81.5194303 L604.977786,84.7059537 C604.977786,84.9767884 604.987307,85.1852011 605.00635,85.3311979 C605.025393,85.4771947 605.076174,85.5956831 605.158694,85.6866666 C605.241214,85.7776502 605.375571,85.8231412 605.56177,85.8231412 C605.663333,85.8231412 605.800864,85.8051564 605.974368,85.7691862 C606.147871,85.7332159 606.283286,85.7152311 606.380618,85.7152311 C606.520267,85.7152311 606.646161,85.7713015 606.758303,85.883444 C606.870446,85.9955865 606.926516,86.1341756 606.926516,86.2992155 C606.926516,86.5785137 606.774174,86.792216 606.469485,86.9403287 C606.164796,87.0884415 605.726812,87.1624967 605.15552,87.1624967 C604.613851,87.1624967 604.203373,87.0715145 603.924075,86.8895475 C603.644776,86.7075804 603.461754,86.4557926 603.375002,86.1341764 C603.288251,85.8125602 603.244876,85.3830398 603.244876,84.8456022 L603.244876,81.5194303 L603.01636,81.5194303 C602.766684,81.5194303 602.576256,81.4601861 602.445071,81.3416959 C602.313885,81.2232058 602.248293,81.0729794 602.248293,80.8910123 C602.248293,80.7090453 602.317059,80.5598768 602.454592,80.4435026 C602.592126,80.3271283 602.792075,80.268942 603.054446,80.268942 Z M612.398196,84.0648405 L609.008547,84.0648405 C609.012779,84.4583971 609.092124,84.8053989 609.246584,85.1058561 C609.401045,85.4063133 609.606284,85.6327108 609.862307,85.7850553 C610.118331,85.9373998 610.400798,86.0135709 610.709719,86.0135709 C610.917077,86.0135709 611.106447,85.9892385 611.277834,85.9405729 C611.449222,85.8919073 611.615317,85.8157362 611.776126,85.7120573 C611.936934,85.6083784 612.085044,85.4972955 612.220461,85.3788053 C612.355879,85.2603151 612.531496,85.0995094 612.747317,84.8963834 C612.836185,84.8202112 612.963136,84.7821256 613.128176,84.7821256 C613.305912,84.7821256 613.44979,84.8307905 613.559817,84.9281217 C613.669844,85.0254529 613.724856,85.1629841 613.724856,85.3407194 C613.724856,85.4972957 613.663496,85.6803179 613.540774,85.8897916 C613.418052,86.0992653 613.232914,86.3002724 612.985354,86.492819 C612.737794,86.6853655 612.426762,86.8451133 612.052249,86.972067 C611.677735,87.0990208 611.247157,87.1624967 610.760501,87.1624967 C609.647539,87.1624967 608.782151,86.8451171 608.164309,86.2103483 C607.546467,85.5755795 607.237551,84.7144227 607.237551,83.6268522 C607.237551,83.1148053 607.313722,82.6397938 607.466067,82.2018033 C607.618411,81.7638129 607.840577,81.388247 608.132571,81.0750944 C608.424564,80.7619418 608.784261,80.5217912 609.211672,80.3546354 C609.639083,80.1874796 610.113037,80.103903 610.633547,80.103903 C611.310634,80.103903 611.891439,80.2467238 612.375979,80.5323698 C612.860519,80.8180157 613.22339,81.187234 613.464602,81.6400358 C613.705814,82.0928375 613.826418,82.5540959 613.826418,83.0238248 C613.826418,83.4596994 613.701582,83.7421673 613.451907,83.8712369 C613.202231,84.0003066 612.850998,84.0648405 612.398196,84.0648405 Z M609.008547,83.0809537 L612.150637,83.0809537 C612.108319,82.4885029 611.948572,82.0452293 611.671389,81.7511198 C611.394207,81.4570102 611.02922,81.3099576 610.576418,81.3099576 C610.144776,81.3099576 609.790368,81.4591261 609.513186,81.7574674 C609.236004,82.0558087 609.067792,82.4969664 609.008547,83.0809537 Z M617.006594,84.6615201 L617.006594,86.1087858 C617.006594,86.4600245 616.924076,86.7234496 616.759036,86.899069 C616.593996,87.0746883 616.384525,87.1624967 616.130618,87.1624967 C615.880942,87.1624967 615.675703,87.0736304 615.514895,86.8958951 C615.354087,86.7181599 615.273684,86.4557927 615.273684,86.1087858 L615.273684,81.284567 C615.273684,80.5059173 615.555094,80.1165983 616.117922,80.1165983 C616.405684,80.1165983 616.613039,80.2075804 616.739993,80.3895475 C616.866946,80.5715145 616.93677,80.8402293 616.949465,81.1956998 C617.156823,80.8402293 617.369468,80.5715145 617.587405,80.3895475 C617.805342,80.2075804 618.096273,80.1165983 618.460208,80.1165983 C618.824142,80.1165983 619.177491,80.2075804 619.520266,80.3895475 C619.863041,80.5715145 620.034426,80.8127231 620.034426,81.1131803 C620.034426,81.3247699 619.961429,81.4993287 619.815432,81.6368619 C619.669435,81.7743952 619.511803,81.8431608 619.342532,81.8431608 C619.279055,81.8431608 619.125655,81.8040173 618.882327,81.7257291 C618.638999,81.647441 618.424238,81.6082975 618.23804,81.6082975 C617.984132,81.6082975 617.776777,81.6749472 617.615969,81.8082487 C617.455161,81.9415501 617.330325,82.1393834 617.241458,82.4017545 C617.15259,82.6641256 617.09123,82.9762156 617.057376,83.3380338 C617.023521,83.699852 617.006594,84.1410097 617.006594,84.6615201 Z" transform="rotate(-5 597.945 82.39)"/>
    <g stroke="#FFF" stroke-linecap="round" stroke-linejoin="round" stroke-width="2" transform="matrix(-1 0 0 1 523.563 44.017)">
      <path d="M76.7275391,28.6256546 C21.0634766,2.35026393 28.3505859,1.48112331 16.2275391,7.16862331"/>
      <polygon points="2.694 2.983 2.694 16.166 16.563 12.301" transform="rotate(40 9.629 9.574)"/>
    </g>
    <g stroke="#FFF" stroke-linecap="round" stroke-linejoin="round" stroke-width="2" transform="matrix(-1 0 0 1 530.563 116.017)">
      <path d="M65.8291016,0.692060807 C23.2275391,8.38737331 68.1826172,14.3893264 15.9521484,33.5299514"/>
      <polygon points="2.694 29.983 2.694 43.166 16.563 39.301" transform="rotate(31 9.629 36.574)"/>
    </g>
    <g stroke="#FFF" stroke-linecap="round" stroke-linejoin="round" stroke-width="2" transform="matrix(-1 0 0 1 462.563 156.017)">
      <path d="M25.1201172,0.0182326815 C-1.23339844,24.5963577 61.3564453,43.1197952 15.8349609,75.3209671"/>
      <polygon points="2.694 71.983 2.694 85.166 16.563 81.301" transform="rotate(40 9.629 78.574)"/>
    </g>
    <path stroke="#979797"/>
    <path stroke="#FFF" stroke-linejoin="round" stroke-width="2" d="M535,78.445971 C549.179048,85.5284776 561.744531,84.3498544 572.696449,74.9101012 C579.750281,68.5324672 583.357082,60.3082411 583.516853,50.2374232 L589,44.1963625 L582.609115,45.6324089 C585.602051,43.8892958 587.16062,41.9571427 587.284822,39.8359496 L580.315189,42.3281953 C578.034035,40.4916307 575.830221,39.4198561 573.703746,39.1128716 C569.879194,38.5607475 566.743597,40.1745647 565.676912,40.9202583 C563.217259,42.6397414 560.508831,46.109776 560.836094,52.4442596 C553.412201,52.0182621 545.918896,48.2368869 538.356179,41.100134 C534.391186,46.8208951 538.832904,53.9939766 541.525068,55.6765969 C539.244243,55.1228741 537.606733,54.6816712 536.612538,54.3529882 C537.483927,59.1126043 538.260932,62.9462121 545.218614,65.4682932 C543.884669,65.6488675 542.361628,65.7531683 540.649489,65.7811955 C542.343556,70.5463184 545.680841,73.0789201 550.661346,73.3790005 C546.28255,76.7508165 541.062101,78.4398066 535,78.445971 Z"/>
    <path fill="#FFF" fill-rule="nonzero" d="M273.571533,133.207031 C273.571533,133.76986 273.426597,134.275551 273.136719,134.724121 C272.846841,135.172691 272.42261,135.523925 271.864014,135.777832 C271.305417,136.03174 270.643152,136.158691 269.877197,136.158691 C268.958898,136.158691 268.201419,135.985191 267.604736,135.638184 C267.181557,135.388508 266.837729,135.055259 266.573242,134.638428 C266.308755,134.221596 266.176514,133.816408 266.176514,133.422852 C266.176514,133.194335 266.255859,132.998617 266.414551,132.835693 C266.573243,132.672769 266.775308,132.591309 267.020752,132.591309 C267.219646,132.591309 267.387857,132.654785 267.525391,132.781738 C267.662924,132.908692 267.780354,133.097004 267.877686,133.34668 C267.996176,133.642905 268.124186,133.890461 268.261719,134.089355 C268.399252,134.28825 268.592854,134.452229 268.842529,134.581299 C269.092205,134.710368 269.420164,134.774902 269.826416,134.774902 C270.385013,134.774902 270.838865,134.644777 271.187988,134.384521 C271.537111,134.124266 271.71167,133.799481 271.71167,133.410156 C271.71167,133.101235 271.617514,132.850506 271.429199,132.657959 C271.240884,132.465412 270.99756,132.31836 270.699219,132.216797 C270.400877,132.115234 270.002037,132.007325 269.502686,131.893066 C268.834062,131.73649 268.274416,131.553468 267.82373,131.343994 C267.373045,131.13452 267.015464,130.848879 266.750977,130.487061 C266.48649,130.125242 266.354248,129.675621 266.354248,129.138184 C266.354248,128.626137 266.493895,128.171226 266.773193,127.773438 C267.052492,127.375649 267.456622,127.069907 267.985596,126.856201 C268.51457,126.642496 269.136634,126.535645 269.851807,126.535645 C270.423099,126.535645 270.917153,126.606526 271.333984,126.748291 C271.750816,126.890056 272.09676,127.078368 272.371826,127.313232 C272.646893,127.548097 272.8479,127.794595 272.974854,128.052734 C273.101807,128.310874 273.165283,128.562662 273.165283,128.808105 C273.165283,129.03239 273.085938,129.234455 272.927246,129.414307 C272.768554,129.594158 272.570721,129.684082 272.33374,129.684082 C272.117919,129.684082 271.953939,129.630127 271.841797,129.522217 C271.729654,129.414306 271.607992,129.237631 271.476807,128.992188 C271.307535,128.640949 271.104412,128.366944 270.867432,128.170166 C270.630451,127.973388 270.249596,127.875 269.724854,127.875 C269.238197,127.875 268.845705,127.981851 268.547363,128.195557 C268.249022,128.409262 268.099854,128.66634 268.099854,128.966797 C268.099854,129.152996 268.150634,129.313801 268.252197,129.449219 C268.35376,129.584636 268.493407,129.701009 268.671143,129.79834 C268.848878,129.895671 269.028726,129.971842 269.210693,130.026855 C269.39266,130.081869 269.693113,130.162272 270.112061,130.268066 C270.636803,130.390788 271.111814,130.526204 271.537109,130.674316 C271.962404,130.822429 272.324217,131.002278 272.622559,131.213867 C272.9209,131.425457 273.153645,131.693114 273.320801,132.016846 C273.487957,132.340578 273.571533,132.737302 273.571533,133.207031 Z M279.887451,133.061035 L276.497803,133.061035 C276.502035,133.454592 276.581379,133.801594 276.73584,134.102051 C276.8903,134.402508 277.095539,134.628905 277.351562,134.78125 C277.607586,134.933595 277.890054,135.009766 278.198975,135.009766 C278.406332,135.009766 278.595702,134.985433 278.76709,134.936768 C278.938477,134.888102 279.104573,134.811931 279.265381,134.708252 C279.426189,134.604573 279.574299,134.49349 279.709717,134.375 C279.845134,134.25651 280.020751,134.095704 280.236572,133.892578 C280.32544,133.816406 280.452392,133.77832 280.617432,133.77832 C280.795167,133.77832 280.939046,133.826985 281.049072,133.924316 C281.159099,134.021648 281.214111,134.159179 281.214111,134.336914 C281.214111,134.49349 281.152751,134.676513 281.030029,134.885986 C280.907307,135.09546 280.722169,135.296467 280.474609,135.489014 C280.22705,135.68156 279.916017,135.841308 279.541504,135.968262 C279.16699,136.095215 278.736412,136.158691 278.249756,136.158691 C277.136795,136.158691 276.271406,135.841312 275.653564,135.206543 C275.035723,134.571774 274.726807,133.710617 274.726807,132.623047 C274.726807,132.111 274.802978,131.635989 274.955322,131.197998 C275.107667,130.760008 275.329833,130.384442 275.621826,130.071289 C275.91382,129.758136 276.273517,129.517986 276.700928,129.35083 C277.128339,129.183674 277.602292,129.100098 278.122803,129.100098 C278.799889,129.100098 279.380694,129.242918 279.865234,129.528564 C280.349775,129.81421 280.712645,130.183429 280.953857,130.63623 C281.19507,131.089032 281.315674,131.550291 281.315674,132.02002 C281.315674,132.455894 281.190838,132.738362 280.941162,132.867432 C280.691486,132.996501 280.340253,133.061035 279.887451,133.061035 Z M276.497803,132.077148 L279.639893,132.077148 C279.597575,131.484698 279.437827,131.041424 279.160645,130.747314 C278.883462,130.453205 278.518476,130.306152 278.065674,130.306152 C277.634031,130.306152 277.279624,130.455321 277.002441,130.753662 C276.725259,131.052003 276.557048,131.493161 276.497803,132.077148 Z M288.977295,130.382324 L288.977295,135.416016 C288.977295,135.991539 288.915935,136.486652 288.793213,136.901367 C288.670491,137.316083 288.473716,137.658853 288.202881,137.929688 C287.932046,138.200522 287.577639,138.401529 287.139648,138.532715 C286.701658,138.6639 286.156823,138.729492 285.505127,138.729492 C284.908444,138.729492 284.375246,138.645916 283.905518,138.47876 C283.435789,138.311604 283.073976,138.095786 282.820068,137.831299 C282.566161,137.566812 282.439209,137.294923 282.439209,137.015625 C282.439209,136.804035 282.511148,136.631592 282.655029,136.498291 C282.79891,136.36499 282.972411,136.29834 283.175537,136.29834 C283.429445,136.29834 283.65161,136.410481 283.842041,136.634766 C283.93514,136.749024 284.031412,136.864339 284.130859,136.980713 C284.230306,137.097087 284.340331,137.196533 284.460938,137.279053 C284.581544,137.361573 284.72648,137.422933 284.895752,137.463135 C285.065024,137.503337 285.259683,137.523438 285.479736,137.523438 C285.928306,137.523438 286.276366,137.46102 286.523926,137.336182 C286.771486,137.211344 286.944986,137.036785 287.044434,136.8125 C287.143881,136.588215 287.202067,136.348064 287.218994,136.092041 C287.235921,135.836018 287.248616,135.424482 287.25708,134.857422 C286.990477,135.22982 286.682619,135.513345 286.333496,135.708008 C285.984373,135.90267 285.568606,136 285.086182,136 C284.506426,136 283.999677,135.85189 283.565918,135.555664 C283.132159,135.259439 282.798911,134.844729 282.566162,134.311523 C282.333414,133.778318 282.217041,133.162601 282.217041,132.464355 C282.217041,131.943845 282.287922,131.474123 282.429688,131.055176 C282.571453,130.636228 282.773518,130.282879 283.035889,129.995117 C283.29826,129.707355 283.600828,129.490479 283.943604,129.344482 C284.286379,129.198486 284.663003,129.125488 285.073486,129.125488 C285.564374,129.125488 285.989663,129.219644 286.349365,129.407959 C286.709068,129.596274 287.043374,129.891437 287.352295,130.293457 L287.352295,130.058594 C287.352295,129.758137 287.42635,129.525391 287.574463,129.360352 C287.722576,129.195312 287.913003,129.112793 288.145752,129.112793 C288.480064,129.112793 288.702229,129.22176 288.812256,129.439697 C288.922282,129.657635 288.977295,129.97184 288.977295,130.382324 Z M283.956299,132.578613 C283.956299,133.281091 284.109699,133.812173 284.416504,134.171875 C284.723309,134.531577 285.120033,134.711426 285.606689,134.711426 C285.894451,134.711426 286.16634,134.634197 286.422363,134.479736 C286.678387,134.325276 286.886799,134.092531 287.047607,133.781494 C287.208416,133.470457 287.288818,133.092776 287.288818,132.648438 C287.288818,131.941728 287.133302,131.391604 286.822266,130.998047 C286.511229,130.60449 286.101809,130.407715 285.593994,130.407715 C285.098874,130.407715 284.70215,130.596027 284.403809,130.972656 C284.105467,131.349286 283.956299,131.884599 283.956299,132.578613 Z M296.49292,132.762695 L296.49292,135.066895 C296.49292,135.430829 296.410401,135.703775 296.245361,135.885742 C296.080321,136.067709 295.862387,136.158691 295.591553,136.158691 C295.329182,136.158691 295.116537,136.067709 294.953613,135.885742 C294.790689,135.703775 294.709229,135.430829 294.709229,135.066895 L294.709229,132.305664 C294.709229,131.869789 294.694417,131.531251 294.664795,131.290039 C294.635172,131.048827 294.55477,130.850994 294.423584,130.696533 C294.292398,130.542073 294.085044,130.464844 293.801514,130.464844 C293.234454,130.464844 292.861004,130.659503 292.681152,131.048828 C292.501301,131.438153 292.411377,131.996741 292.411377,132.724609 L292.411377,135.066895 C292.411377,135.426597 292.329916,135.698485 292.166992,135.882568 C292.004068,136.066651 291.789308,136.158691 291.522705,136.158691 C291.260334,136.158691 291.045574,136.066651 290.878418,135.882568 C290.711262,135.698485 290.627686,135.426597 290.627686,135.066895 L290.627686,130.109375 C290.627686,129.783527 290.702799,129.535971 290.853027,129.366699 C291.003256,129.197428 291.201089,129.112793 291.446533,129.112793 C291.683514,129.112793 291.881347,129.192138 292.040039,129.35083 C292.198731,129.509522 292.278076,129.728514 292.278076,130.007812 L292.278076,130.172852 C292.578533,129.813149 292.900145,129.548666 293.24292,129.379395 C293.585695,129.210123 293.966551,129.125488 294.385498,129.125488 C294.821373,129.125488 295.195881,129.212239 295.509033,129.385742 C295.822186,129.559246 296.080321,129.821613 296.283447,130.172852 C296.575441,129.817381 296.888589,129.553956 297.2229,129.382568 C297.557212,129.211181 297.927488,129.125488 298.33374,129.125488 C298.807701,129.125488 299.216063,129.218586 299.558838,129.404785 C299.901613,129.590984 300.157633,129.857583 300.326904,130.20459 C300.475017,130.517742 300.549072,131.010739 300.549072,131.683594 L300.549072,135.066895 C300.549072,135.430829 300.466554,135.703775 300.301514,135.885742 C300.136474,136.067709 299.91854,136.158691 299.647705,136.158691 C299.385334,136.158691 299.170574,136.066651 299.003418,135.882568 C298.836262,135.698485 298.752686,135.426597 298.752686,135.066895 L298.752686,132.15332 C298.752686,131.780923 298.736817,131.482586 298.705078,131.258301 C298.67334,131.034016 298.587647,130.845704 298.447998,130.693359 C298.308349,130.541015 298.096762,130.464844 297.813232,130.464844 C297.584716,130.464844 297.36784,130.532551 297.162598,130.667969 C296.957356,130.803386 296.797608,130.98535 296.68335,131.213867 C296.556396,131.505861 296.49292,132.022132 296.49292,132.762695 Z M307.068115,133.061035 L303.678467,133.061035 C303.682699,133.454592 303.762043,133.801594 303.916504,134.102051 C304.070964,134.402508 304.276203,134.628905 304.532227,134.78125 C304.78825,134.933595 305.070718,135.009766 305.379639,135.009766 C305.586996,135.009766 305.776366,134.985433 305.947754,134.936768 C306.119141,134.888102 306.285237,134.811931 306.446045,134.708252 C306.606853,134.604573 306.754964,134.49349 306.890381,134.375 C307.025798,134.25651 307.201415,134.095704 307.417236,133.892578 C307.506104,133.816406 307.633056,133.77832 307.798096,133.77832 C307.975831,133.77832 308.11971,133.826985 308.229736,133.924316 C308.339763,134.021648 308.394775,134.159179 308.394775,134.336914 C308.394775,134.49349 308.333415,134.676513 308.210693,134.885986 C308.087971,135.09546 307.902833,135.296467 307.655273,135.489014 C307.407714,135.68156 307.096682,135.841308 306.722168,135.968262 C306.347654,136.095215 305.917076,136.158691 305.43042,136.158691 C304.317459,136.158691 303.45207,135.841312 302.834229,135.206543 C302.216387,134.571774 301.907471,133.710617 301.907471,132.623047 C301.907471,132.111 301.983642,131.635989 302.135986,131.197998 C302.288331,130.760008 302.510497,130.384442 302.80249,130.071289 C303.094484,129.758136 303.454181,129.517986 303.881592,129.35083 C304.309003,129.183674 304.782956,129.100098 305.303467,129.100098 C305.980554,129.100098 306.561358,129.242918 307.045898,129.528564 C307.530439,129.81421 307.893309,130.183429 308.134521,130.63623 C308.375734,131.089032 308.496338,131.550291 308.496338,132.02002 C308.496338,132.455894 308.371502,132.738362 308.121826,132.867432 C307.87215,132.996501 307.520917,133.061035 307.068115,133.061035 Z M303.678467,132.077148 L306.820557,132.077148 C306.778239,131.484698 306.618491,131.041424 306.341309,130.747314 C306.064126,130.453205 305.69914,130.306152 305.246338,130.306152 C304.814695,130.306152 304.460288,130.455321 304.183105,130.753662 C303.905923,131.052003 303.737712,131.493161 303.678467,132.077148 Z M311.530518,130.071289 L311.530518,130.280762 C311.835207,129.878741 312.168455,129.583578 312.530273,129.395264 C312.892092,129.206949 313.307859,129.112793 313.777588,129.112793 C314.234621,129.112793 314.642983,129.212239 315.002686,129.411133 C315.362388,129.610027 315.631103,129.891437 315.808838,130.255371 C315.923096,130.466961 315.997152,130.695474 316.031006,130.940918 C316.06486,131.186362 316.081787,131.49951 316.081787,131.880371 L316.081787,135.10498 C316.081787,135.451987 316.002442,135.714355 315.84375,135.89209 C315.685058,136.069825 315.478761,136.158691 315.224854,136.158691 C314.966714,136.158691 314.757244,136.067709 314.596436,135.885742 C314.435627,135.703775 314.355225,135.443524 314.355225,135.10498 L314.355225,132.216797 C314.355225,131.645505 314.27588,131.208579 314.117188,130.906006 C313.958495,130.603433 313.642174,130.452148 313.168213,130.452148 C312.859292,130.452148 312.577882,130.544189 312.323975,130.728271 C312.070067,130.912354 311.883871,131.1652 311.765381,131.486816 C311.680745,131.744956 311.638428,132.227373 311.638428,132.934082 L311.638428,135.10498 C311.638428,135.456219 311.556967,135.719644 311.394043,135.895264 C311.231119,136.070883 311.02059,136.158691 310.762451,136.158691 C310.512775,136.158691 310.307537,136.067709 310.146729,135.885742 C309.98592,135.703775 309.905518,135.443524 309.905518,135.10498 L309.905518,130.09668 C309.905518,129.7666 309.977457,129.520102 310.121338,129.357178 C310.265219,129.194254 310.461994,129.112793 310.71167,129.112793 C310.864014,129.112793 311.001546,129.148763 311.124268,129.220703 C311.24699,129.292644 311.345377,129.400553 311.419434,129.544434 C311.49349,129.688315 311.530518,129.863931 311.530518,130.071289 Z M317.903564,129.265137 L318.093994,129.265137 L318.093994,128.224121 C318.093994,127.944823 318.1014,127.725831 318.116211,127.567139 C318.131022,127.408446 318.172282,127.271973 318.23999,127.157715 C318.307699,127.039225 318.405029,126.942953 318.531982,126.868896 C318.658936,126.79484 318.800699,126.757812 318.957275,126.757812 C319.177329,126.757812 319.37622,126.840331 319.553955,127.005371 C319.672445,127.115398 319.747558,127.249755 319.779297,127.408447 C319.811035,127.567139 319.826904,127.792479 319.826904,128.084473 L319.826904,129.265137 L320.46167,129.265137 C320.707114,129.265137 320.894368,129.323323 321.023438,129.439697 C321.152507,129.556072 321.217041,129.70524 321.217041,129.887207 C321.217041,130.119956 321.125001,130.282877 320.940918,130.375977 C320.756835,130.469076 320.49341,130.515625 320.150635,130.515625 L319.826904,130.515625 L319.826904,133.702148 C319.826904,133.972983 319.836426,134.181396 319.855469,134.327393 C319.874512,134.473389 319.925293,134.591878 320.007812,134.682861 C320.090332,134.773845 320.22469,134.819336 320.410889,134.819336 C320.512452,134.819336 320.649983,134.801351 320.823486,134.765381 C320.99699,134.729411 321.132405,134.711426 321.229736,134.711426 C321.369385,134.711426 321.495279,134.767496 321.607422,134.879639 C321.719564,134.991781 321.775635,135.13037 321.775635,135.29541 C321.775635,135.574708 321.623293,135.788411 321.318604,135.936523 C321.013914,136.084636 320.575931,136.158691 320.004639,136.158691 C319.462969,136.158691 319.052492,136.067709 318.773193,135.885742 C318.493895,135.703775 318.310873,135.451987 318.224121,135.130371 C318.137369,134.808755 318.093994,134.379234 318.093994,133.841797 L318.093994,130.515625 L317.865479,130.515625 C317.615803,130.515625 317.425375,130.456381 317.294189,130.337891 C317.163004,130.2194 317.097412,130.069174 317.097412,129.887207 C317.097412,129.70524 317.166178,129.556072 317.303711,129.439697 C317.441244,129.323323 317.641193,129.265137 317.903564,129.265137 Z" transform="rotate(-8 293.976 132.633)"/>
    <path fill="#FFF" fill-rule="nonzero" d="M421.914309,295.210837 C421.914309,295.773665 421.769372,296.279356 421.479495,296.727926 C421.189617,297.176496 420.765386,297.52773 420.20679,297.781637 C419.648193,298.035545 418.985928,298.162497 418.219973,298.162497 C417.301674,298.162497 416.544195,297.988996 415.947512,297.641989 C415.524333,297.392313 415.180505,297.059065 414.916018,296.642233 C414.651531,296.225402 414.51929,295.820214 414.51929,295.426657 C414.51929,295.19814 414.598634,295.002423 414.757327,294.839499 C414.916019,294.676575 415.118084,294.595114 415.363528,294.595114 C415.562422,294.595114 415.730633,294.65859 415.868167,294.785544 C416.0057,294.912497 416.12313,295.100809 416.220461,295.350485 C416.338952,295.64671 416.466961,295.894267 416.604495,296.093161 C416.742028,296.292055 416.935629,296.456034 417.185305,296.585104 C417.434981,296.714174 417.76294,296.778708 418.169192,296.778708 C418.727788,296.778708 419.181641,296.648582 419.530764,296.388327 C419.879887,296.128072 420.054446,295.803286 420.054446,295.413962 C420.054446,295.105041 419.96029,294.854311 419.771975,294.661764 C419.58366,294.469218 419.340336,294.322165 419.041995,294.220602 C418.743653,294.119039 418.344813,294.01113 417.845461,293.896872 C417.176838,293.740295 416.617192,293.557273 416.166506,293.347799 C415.715821,293.138326 415.358239,292.852684 415.093752,292.490866 C414.829265,292.129048 414.697024,291.679426 414.697024,291.141989 C414.697024,290.629942 414.836671,290.175031 415.115969,289.777243 C415.395268,289.379454 415.799398,289.073712 416.328372,288.860006 C416.857346,288.646301 417.47941,288.53945 418.194583,288.53945 C418.765874,288.53945 419.259929,288.610331 419.67676,288.752096 C420.093592,288.893861 420.439536,289.082173 420.714602,289.317038 C420.989669,289.551902 421.190676,289.7984 421.317629,290.05654 C421.444583,290.314679 421.508059,290.566467 421.508059,290.811911 C421.508059,291.036196 421.428714,291.238261 421.270022,291.418112 C421.11133,291.597963 420.913496,291.687887 420.676516,291.687887 C420.460695,291.687887 420.296715,291.633933 420.184573,291.526022 C420.07243,291.418111 419.950768,291.241437 419.819583,290.995993 C419.650311,290.644754 419.447188,290.37075 419.210208,290.173971 C418.973227,289.977193 418.592372,289.878805 418.067629,289.878805 C417.580973,289.878805 417.188481,289.985656 416.890139,290.199362 C416.591798,290.413067 416.442629,290.670145 416.442629,290.970602 C416.442629,291.156801 416.49341,291.317607 416.594973,291.453024 C416.696536,291.588441 416.836183,291.704814 417.013918,291.802145 C417.191654,291.899476 417.371502,291.975647 417.553469,292.030661 C417.735436,292.085674 418.035889,292.166077 418.454836,292.271872 C418.979579,292.394594 419.45459,292.530009 419.879885,292.678122 C420.30518,292.826234 420.666993,293.006083 420.965334,293.217672 C421.263676,293.429262 421.496421,293.696919 421.663577,294.020651 C421.830732,294.344383 421.914309,294.741108 421.914309,295.210837 Z M426.656008,296.600973 L425.164309,290.672262 L425.164309,297.09609 C425.164309,297.451561 425.084964,297.71816 424.926272,297.895895 C424.76758,298.07363 424.557051,298.162497 424.29468,298.162497 C424.040773,298.162497 423.833418,298.074688 423.67261,297.899069 C423.511802,297.72345 423.431399,297.455793 423.431399,297.09609 L423.431399,289.732809 C423.431399,289.326557 423.537192,289.052553 423.748782,288.910788 C423.960371,288.769023 424.246013,288.698141 424.605715,288.698141 L425.1897,288.698141 C425.540938,288.698141 425.7959,288.729879 425.954592,288.793356 C426.113285,288.856833 426.230715,288.97109 426.306887,289.13613 C426.383059,289.301169 426.46981,289.569884 426.567141,289.942282 L427.919192,295.03945 L429.271243,289.942282 C429.368574,289.569884 429.455324,289.301169 429.531497,289.13613 C429.607669,288.97109 429.725099,288.856833 429.883792,288.793356 C430.042484,288.729879 430.297445,288.698141 430.648684,288.698141 L431.232668,288.698141 C431.592371,288.698141 431.878012,288.769023 432.089602,288.910788 C432.301192,289.052553 432.406985,289.326557 432.406985,289.732809 L432.406985,297.09609 C432.406985,297.451561 432.32764,297.71816 432.168948,297.895895 C432.010256,298.07363 431.797611,298.162497 431.531008,298.162497 C431.281333,298.162497 431.076094,298.07363 430.915286,297.895895 C430.754478,297.71816 430.674075,297.451561 430.674075,297.09609 L430.674075,290.672262 L429.182376,296.600973 C429.085044,296.986066 429.005699,297.268534 428.944338,297.448385 C428.882977,297.628237 428.769779,297.792216 428.604739,297.940329 C428.439699,298.088441 428.211186,298.162497 427.919192,298.162497 C427.699139,298.162497 427.512943,298.11489 427.360598,298.019674 C427.208254,297.924459 427.089765,297.802797 427.005129,297.654684 C426.920494,297.506571 426.853844,297.342592 426.805178,297.162741 C426.756513,296.98289 426.70679,296.795636 426.656008,296.600973 Z M441.414309,295.210837 C441.414309,295.773665 441.269372,296.279356 440.979495,296.727926 C440.689617,297.176496 440.265386,297.52773 439.70679,297.781637 C439.148193,298.035545 438.485928,298.162497 437.719973,298.162497 C436.801674,298.162497 436.044195,297.988996 435.447512,297.641989 C435.024333,297.392313 434.680505,297.059065 434.416018,296.642233 C434.151531,296.225402 434.01929,295.820214 434.01929,295.426657 C434.01929,295.19814 434.098634,295.002423 434.257327,294.839499 C434.416019,294.676575 434.618084,294.595114 434.863528,294.595114 C435.062422,294.595114 435.230633,294.65859 435.368167,294.785544 C435.5057,294.912497 435.62313,295.100809 435.720461,295.350485 C435.838952,295.64671 435.966961,295.894267 436.104495,296.093161 C436.242028,296.292055 436.435629,296.456034 436.685305,296.585104 C436.934981,296.714174 437.26294,296.778708 437.669192,296.778708 C438.227788,296.778708 438.681641,296.648582 439.030764,296.388327 C439.379887,296.128072 439.554446,295.803286 439.554446,295.413962 C439.554446,295.105041 439.46029,294.854311 439.271975,294.661764 C439.08366,294.469218 438.840336,294.322165 438.541995,294.220602 C438.243653,294.119039 437.844813,294.01113 437.345461,293.896872 C436.676838,293.740295 436.117192,293.557273 435.666506,293.347799 C435.215821,293.138326 434.858239,292.852684 434.593752,292.490866 C434.329265,292.129048 434.197024,291.679426 434.197024,291.141989 C434.197024,290.629942 434.336671,290.175031 434.615969,289.777243 C434.895268,289.379454 435.299398,289.073712 435.828372,288.860006 C436.357346,288.646301 436.97941,288.53945 437.694583,288.53945 C438.265874,288.53945 438.759929,288.610331 439.17676,288.752096 C439.593592,288.893861 439.939536,289.082173 440.214602,289.317038 C440.489669,289.551902 440.690676,289.7984 440.817629,290.05654 C440.944583,290.314679 441.008059,290.566467 441.008059,290.811911 C441.008059,291.036196 440.928714,291.238261 440.770022,291.418112 C440.61133,291.597963 440.413496,291.687887 440.176516,291.687887 C439.960695,291.687887 439.796715,291.633933 439.684573,291.526022 C439.57243,291.418111 439.450768,291.241437 439.319583,290.995993 C439.150311,290.644754 438.947188,290.37075 438.710208,290.173971 C438.473227,289.977193 438.092372,289.878805 437.567629,289.878805 C437.080973,289.878805 436.688481,289.985656 436.390139,290.199362 C436.091798,290.413067 435.942629,290.670145 435.942629,290.970602 C435.942629,291.156801 435.99341,291.317607 436.094973,291.453024 C436.196536,291.588441 436.336183,291.704814 436.513918,291.802145 C436.691654,291.899476 436.871502,291.975647 437.053469,292.030661 C437.235436,292.085674 437.535889,292.166077 437.954836,292.271872 C438.479579,292.394594 438.95459,292.530009 439.379885,292.678122 C439.80518,292.826234 440.166993,293.006083 440.465334,293.217672 C440.763676,293.429262 440.996421,293.696919 441.163577,294.020651 C441.330732,294.344383 441.414309,294.741108 441.414309,295.210837 Z" transform="rotate(2 427.967 293.351)"/>
    <path fill="#FFF" fill-rule="nonzero" d="M509.588381,255.151755 L505.341799,255.151755 L505.341799,257.436911 L509.251956,257.436911 C509.539717,257.436911 509.754478,257.501445 509.896243,257.630514 C510.038008,257.759584 510.108889,257.929911 510.108889,258.141501 C510.108889,258.35309 510.039066,258.525533 509.899417,258.658835 C509.759767,258.792136 509.543949,258.858786 509.251956,258.858786 L505.341799,258.858786 L505.341799,261.505758 L509.734377,261.505758 C510.030603,261.505758 510.253827,261.574524 510.404055,261.712057 C510.554284,261.84959 510.629397,262.032613 510.629397,262.26113 C510.629397,262.481183 510.554284,262.659973 510.404055,262.797506 C510.253827,262.93504 510.030603,263.003805 509.734377,263.003805 L504.611819,263.003805 C504.201335,263.003805 503.906172,262.912823 503.726321,262.730856 C503.54647,262.548889 503.456545,262.254784 503.456545,261.848532 L503.456545,254.853415 C503.456545,254.58258 503.496747,254.361472 503.577151,254.190085 C503.657555,254.018697 503.783449,253.893861 503.954836,253.815573 C504.126224,253.737285 504.345216,253.698141 504.611819,253.698141 L509.588381,253.698141 C509.888839,253.698141 510.112062,253.764791 510.258059,253.898092 C510.404056,254.031394 510.477053,254.205953 510.477053,254.421774 C510.477053,254.641827 510.404056,254.818502 510.258059,254.951803 C510.112062,255.085105 509.888839,255.151755 509.588381,255.151755 Z M517.77051,259.766501 L517.77051,262.0707 C517.77051,262.434634 517.687992,262.70758 517.522952,262.889547 C517.357912,263.071515 517.139978,263.162497 516.869143,263.162497 C516.606772,263.162497 516.394128,263.071515 516.231204,262.889547 C516.06828,262.70758 515.986819,262.434634 515.986819,262.0707 L515.986819,259.309469 C515.986819,258.873595 515.972008,258.535057 515.942385,258.293844 C515.912763,258.052632 515.83236,257.854799 515.701174,257.700339 C515.569989,257.545878 515.362634,257.468649 515.079104,257.468649 C514.512044,257.468649 514.138594,257.663309 513.958743,258.052633 C513.778892,258.441958 513.688967,259.000546 513.688967,259.728415 L513.688967,262.0707 C513.688967,262.430402 513.607507,262.702291 513.444583,262.886374 C513.281659,263.070457 513.066898,263.162497 512.800295,263.162497 C512.537924,263.162497 512.323164,263.070457 512.156008,262.886374 C511.988853,262.702291 511.905276,262.430402 511.905276,262.0707 L511.905276,257.11318 C511.905276,256.787332 511.980389,256.539776 512.130618,256.370505 C512.280846,256.201233 512.47868,256.116598 512.724124,256.116598 C512.961104,256.116598 513.158937,256.195943 513.317629,256.354635 C513.476322,256.513328 513.555667,256.73232 513.555667,257.011618 L513.555667,257.176657 C513.856124,256.816955 514.177735,256.552472 514.52051,256.3832 C514.863285,256.213928 515.244141,256.129294 515.663088,256.129294 C516.098963,256.129294 516.473471,256.216044 516.786624,256.389547 C517.099776,256.563051 517.357912,256.825418 517.561038,257.176657 C517.853031,256.821186 518.166179,256.557761 518.500491,256.386374 C518.834802,256.214986 519.205079,256.129294 519.611331,256.129294 C520.085291,256.129294 520.493653,256.222392 520.836428,256.40859 C521.179203,256.594789 521.435223,256.861388 521.604495,257.208395 C521.752607,257.521548 521.826663,258.014544 521.826663,258.687399 L521.826663,262.0707 C521.826663,262.434634 521.744144,262.70758 521.579104,262.889547 C521.414064,263.071515 521.19613,263.162497 520.925295,263.162497 C520.662924,263.162497 520.448164,263.070457 520.281008,262.886374 C520.113853,262.702291 520.030276,262.430402 520.030276,262.0707 L520.030276,259.157126 C520.030276,258.784728 520.014407,258.486391 519.982668,258.262106 C519.95093,258.037821 519.865238,257.849509 519.725588,257.697165 C519.585939,257.54482 519.374353,257.468649 519.090823,257.468649 C518.862306,257.468649 518.64543,257.536357 518.440188,257.671774 C518.234946,257.807191 518.075198,257.989156 517.96094,258.217672 C517.833986,258.509666 517.77051,259.025937 517.77051,259.766501 Z M527.888674,262.184958 C527.469727,262.510806 527.064539,262.755188 526.673098,262.918112 C526.281657,263.081036 525.842616,263.162497 525.355959,263.162497 C524.911621,263.162497 524.521244,263.074688 524.184817,262.899069 C523.848389,262.72345 523.589196,262.485415 523.407229,262.184958 C523.225262,261.8845 523.13428,261.558657 523.13428,261.207419 C523.13428,260.733458 523.284506,260.329328 523.584963,259.995016 C523.885421,259.660705 524.298014,259.436423 524.822756,259.322165 C524.932783,259.296774 525.205729,259.239646 525.641604,259.150778 C526.077479,259.06191 526.450929,258.98045 526.761965,258.906393 C527.073002,258.832337 527.410482,258.742413 527.774417,258.636618 C527.753258,258.179584 527.661217,257.84422 527.498293,257.630514 C527.335369,257.416809 526.997889,257.309958 526.485842,257.309958 C526.045736,257.309958 525.714603,257.371318 525.492434,257.49404 C525.270265,257.616762 525.079837,257.800842 524.921145,258.046286 C524.762453,258.29173 524.650312,258.453593 524.584719,258.531881 C524.519126,258.61017 524.378422,258.649313 524.1626,258.649313 C523.967938,258.649313 523.799726,258.586895 523.657961,258.462057 C523.516196,258.337219 523.445315,258.177472 523.445315,257.982809 C523.445315,257.67812 523.553224,257.381899 523.769045,257.094137 C523.984867,256.806375 524.321289,256.569399 524.778323,256.3832 C525.235356,256.197001 525.804524,256.103903 526.485842,256.103903 C527.247565,256.103903 527.846354,256.193827 528.282229,256.373678 C528.718104,256.55353 529.025962,256.838113 529.205813,257.227438 C529.385664,257.616763 529.475588,258.133034 529.475588,258.776266 C529.475588,259.182518 529.47453,259.527404 529.472415,259.810934 C529.470299,260.094464 529.467125,260.409728 529.462893,260.756735 C529.462893,261.082583 529.516848,261.422179 529.624758,261.775534 C529.732669,262.128888 529.786624,262.356344 529.786624,262.457907 C529.786624,262.635642 529.703047,262.797506 529.535891,262.943503 C529.368735,263.089499 529.179365,263.162497 528.967776,263.162497 C528.790041,263.162497 528.614424,263.07892 528.44092,262.911764 C528.267417,262.744609 528.083337,262.502342 527.888674,262.184958 Z M527.774417,259.677633 C527.520509,259.770733 527.151291,259.869121 526.666751,259.972799 C526.18221,260.076478 525.846846,260.152649 525.660647,260.201315 C525.474448,260.249981 525.296716,260.345195 525.127444,260.48696 C524.958172,260.628725 524.873538,260.826558 524.873538,261.080465 C524.873538,261.342837 524.972983,261.56606 525.171877,261.750143 C525.370772,261.934226 525.631023,262.026266 525.952639,262.026266 C526.295414,262.026266 526.611736,261.951153 526.901614,261.800924 C527.191492,261.650696 527.404136,261.457094 527.539553,261.220114 C527.69613,260.957743 527.774417,260.526106 527.774417,259.925192 L527.774417,259.677633 Z M532.966799,257.100485 L532.966799,262.108786 C532.966799,262.455793 532.884281,262.71816 532.719241,262.895895 C532.554201,263.07363 532.34473,263.162497 532.090823,263.162497 C531.836915,263.162497 531.630618,263.071515 531.471926,262.889547 C531.313234,262.70758 531.233889,262.447329 531.233889,262.108786 L531.233889,257.151266 C531.233889,256.808491 531.313234,256.550356 531.471926,256.376852 C531.630618,256.203349 531.836915,256.116598 532.090823,256.116598 C532.34473,256.116598 532.554201,256.203349 532.719241,256.376852 C532.884281,256.550356 532.966799,256.791564 532.966799,257.100485 Z M532.109866,255.310446 C531.868654,255.310446 531.662357,255.236391 531.490969,255.088278 C531.319582,254.940165 531.233889,254.730695 531.233889,254.45986 C531.233889,254.214416 531.321698,254.012351 531.497317,253.853659 C531.672936,253.694967 531.877117,253.615622 532.109866,253.615622 C532.334151,253.615622 532.533042,253.687561 532.706545,253.831442 C532.880049,253.975323 532.966799,254.184794 532.966799,254.45986 C532.966799,254.726463 532.882165,254.934876 532.712893,255.085104 C532.543621,255.235333 532.342614,255.310446 532.109866,255.310446 Z M534.756838,262.108786 L534.756838,254.593161 C534.756838,254.246154 534.834067,253.983787 534.988528,253.806051 C535.142988,253.628316 535.351401,253.53945 535.613772,253.53945 C535.876143,253.53945 536.08773,253.627258 536.248538,253.802878 C536.409346,253.978497 536.489749,254.241922 536.489749,254.593161 L536.489749,262.108786 C536.489749,262.460025 536.408288,262.72345 536.245364,262.899069 C536.08244,263.074688 535.871911,263.162497 535.613772,263.162497 C535.359864,263.162497 535.153568,263.071515 534.994876,262.889547 C534.836183,262.70758 534.756838,262.447329 534.756838,262.108786 Z" transform="rotate(-3 519.973 258.351)"/>
    <path fill="#FFF" fill-rule="nonzero" d="M210.171633,265.832907 L214.951418,260.113669 L210.844485,260.113669 C210.556723,260.113669 210.339847,260.050193 210.19385,259.923239 C210.047853,259.796285 209.974856,259.629132 209.974856,259.421774 C209.974856,259.205953 210.047853,259.031394 210.19385,258.898092 C210.339847,258.764791 210.556723,258.698141 210.844485,258.698141 L216.13843,258.698141 C216.82398,258.698141 217.166751,259.017637 217.166751,259.656637 C217.166751,259.961326 217.109622,260.204651 216.995364,260.386618 C216.881105,260.568585 216.650476,260.86269 216.303469,261.268942 L211.834719,266.588278 L216.760501,266.588278 C217.052494,266.588278 217.270428,266.64858 217.414309,266.769186 C217.55819,266.889792 217.630129,267.058003 217.630129,267.273825 C217.630129,267.49811 217.55819,267.675842 217.414309,267.807028 C217.270428,267.938214 217.052494,268.003805 216.760501,268.003805 L210.717532,268.003805 C210.307048,268.003805 209.998132,267.911765 209.790774,267.727682 C209.583416,267.543599 209.479739,267.297101 209.479739,266.98818 C209.479739,266.882386 209.496666,266.785056 209.53052,266.696188 C209.564374,266.60732 209.609865,266.523744 209.666995,266.445456 C209.724124,266.367168 209.803469,266.267722 209.905032,266.147116 C210.006595,266.02651 210.095461,265.921774 210.171633,265.832907 Z M223.076418,267.184958 C222.657471,267.510806 222.252283,267.755188 221.860842,267.918112 C221.469402,268.081036 221.03036,268.162497 220.543704,268.162497 C220.099365,268.162497 219.708989,268.074688 219.372561,267.899069 C219.036134,267.72345 218.77694,267.485415 218.594973,267.184958 C218.413006,266.8845 218.322024,266.558657 218.322024,266.207419 C218.322024,265.733458 218.47225,265.329328 218.772708,264.995016 C219.073165,264.660705 219.485758,264.436423 220.010501,264.322165 C220.120527,264.296774 220.393474,264.239646 220.829348,264.150778 C221.265223,264.06191 221.638673,263.98045 221.949709,263.906393 C222.260746,263.832337 222.598227,263.742413 222.962161,263.636618 C222.941002,263.179584 222.848962,262.84422 222.686038,262.630514 C222.523114,262.416809 222.185633,262.309958 221.673586,262.309958 C221.23348,262.309958 220.902347,262.371318 220.680178,262.49404 C220.458009,262.616762 220.267581,262.800842 220.108889,263.046286 C219.950197,263.29173 219.838056,263.453593 219.772463,263.531881 C219.706871,263.61017 219.566166,263.649313 219.350344,263.649313 C219.155682,263.649313 218.987471,263.586895 218.845706,263.462057 C218.703941,263.337219 218.633059,263.177472 218.633059,262.982809 C218.633059,262.67812 218.740968,262.381899 218.95679,262.094137 C219.172611,261.806375 219.509033,261.569399 219.966067,261.3832 C220.4231,261.197001 220.992268,261.103903 221.673586,261.103903 C222.435309,261.103903 223.034099,261.193827 223.469973,261.373678 C223.905848,261.55353 224.213706,261.838113 224.393557,262.227438 C224.573408,262.616763 224.663333,263.133034 224.663333,263.776266 C224.663333,264.182518 224.662275,264.527404 224.660159,264.810934 C224.658043,265.094464 224.654869,265.409728 224.650637,265.756735 C224.650637,266.082583 224.704592,266.422179 224.812502,266.775534 C224.920413,267.128888 224.974368,267.356344 224.974368,267.457907 C224.974368,267.635642 224.890791,267.797506 224.723635,267.943503 C224.556479,268.089499 224.36711,268.162497 224.15552,268.162497 C223.977785,268.162497 223.802168,268.07892 223.628665,267.911764 C223.455161,267.744609 223.271081,267.502342 223.076418,267.184958 Z M222.962161,264.677633 C222.708253,264.770733 222.339035,264.869121 221.854495,264.972799 C221.369954,265.076478 221.03459,265.152649 220.848391,265.201315 C220.662192,265.249981 220.48446,265.345195 220.315188,265.48696 C220.145916,265.628725 220.061282,265.826558 220.061282,266.080465 C220.061282,266.342837 220.160727,266.56606 220.359622,266.750143 C220.558516,266.934226 220.818767,267.026266 221.140383,267.026266 C221.483158,267.026266 221.79948,266.951153 222.089358,266.800924 C222.379236,266.650696 222.59188,266.457094 222.727297,266.220114 C222.883874,265.957743 222.962161,265.526106 222.962161,264.925192 L222.962161,264.677633 Z M227.849856,262.08779 L227.849856,262.297262 C228.175704,261.895242 228.514242,261.600079 228.865481,261.411764 C229.21672,261.22345 229.614502,261.129294 230.05884,261.129294 C230.592046,261.129294 231.082927,261.266825 231.531497,261.541891 C231.980067,261.816958 232.334474,262.218972 232.594729,262.747946 C232.854984,263.27692 232.98511,263.903216 232.98511,264.626852 C232.98511,265.160058 232.909997,265.649881 232.759768,266.096335 C232.609539,266.542789 232.403243,266.917297 232.140872,267.21987 C231.8785,267.522443 231.568526,267.755188 231.21094,267.918112 C230.853354,268.081036 230.469324,268.162497 230.05884,268.162497 C229.563721,268.162497 229.147953,268.063051 228.811526,267.864157 C228.475098,267.665263 228.154545,267.373273 227.849856,266.98818 L227.849856,269.590719 C227.849856,270.352442 227.572678,270.733297 227.018313,270.733297 C226.692465,270.733297 226.476647,270.63491 226.370852,270.438131 C226.265057,270.241353 226.212161,269.954654 226.212161,269.578024 L226.212161,262.100485 C226.212161,261.770405 226.2841,261.523907 226.427981,261.360983 C226.571862,261.198059 226.768637,261.116598 227.018313,261.116598 C227.263757,261.116598 227.463706,261.200175 227.618167,261.367331 C227.772627,261.534486 227.849856,261.774637 227.849856,262.08779 Z M231.245852,264.607809 C231.245852,264.150776 231.176029,263.758283 231.036379,263.430319 C230.89673,263.102355 230.703129,262.850567 230.455569,262.674948 C230.208009,262.499329 229.934005,262.41152 229.633547,262.41152 C229.155355,262.41152 228.752283,262.599832 228.424319,262.976462 C228.096355,263.353091 227.932376,263.907447 227.932376,264.639547 C227.932376,265.32933 228.095297,265.865701 228.421145,266.248678 C228.746993,266.631656 229.151123,266.823141 229.633547,266.823141 C229.921309,266.823141 230.187908,266.739565 230.433352,266.572409 C230.678796,266.405253 230.875571,266.154523 231.023684,265.820212 C231.171797,265.4859 231.245852,265.08177 231.245852,264.607809 Z M236.108157,262.100485 L236.108157,267.108786 C236.108157,267.455793 236.025638,267.71816 235.860598,267.895895 C235.695558,268.07363 235.486088,268.162497 235.23218,268.162497 C234.978273,268.162497 234.771976,268.071515 234.613284,267.889547 C234.454592,267.70758 234.375247,267.447329 234.375247,267.108786 L234.375247,262.151266 C234.375247,261.808491 234.454592,261.550356 234.613284,261.376852 C234.771976,261.203349 234.978273,261.116598 235.23218,261.116598 C235.486088,261.116598 235.695558,261.203349 235.860598,261.376852 C236.025638,261.550356 236.108157,261.791564 236.108157,262.100485 Z M235.251223,260.310446 C235.010011,260.310446 234.803714,260.236391 234.632327,260.088278 C234.460939,259.940165 234.375247,259.730695 234.375247,259.45986 C234.375247,259.214416 234.463055,259.012351 234.638674,258.853659 C234.814294,258.694967 235.018475,258.615622 235.251223,258.615622 C235.475508,258.615622 235.674399,258.687561 235.847903,258.831442 C236.021406,258.975323 236.108157,259.184794 236.108157,259.45986 C236.108157,259.726463 236.023522,259.934876 235.854251,260.085104 C235.684979,260.235333 235.483972,260.310446 235.251223,260.310446 Z M242.73511,265.06484 L239.345461,265.06484 C239.349693,265.458397 239.429038,265.805399 239.583499,266.105856 C239.737959,266.406313 239.943198,266.632711 240.199221,266.785055 C240.455245,266.9374 240.737713,267.013571 241.046633,267.013571 C241.253991,267.013571 241.443361,266.989238 241.614749,266.940573 C241.786136,266.891907 241.952231,266.815736 242.11304,266.712057 C242.273848,266.608378 242.421958,266.497295 242.557376,266.378805 C242.692793,266.260315 242.86841,266.099509 243.084231,265.896383 C243.173099,265.820211 243.30005,265.782126 243.46509,265.782126 C243.642826,265.782126 243.786704,265.83079 243.896731,265.928122 C244.006758,266.025453 244.06177,266.162984 244.06177,266.340719 C244.06177,266.497296 244.00041,266.680318 243.877688,266.889792 C243.754966,267.099265 243.569828,267.300272 243.322268,267.492819 C243.074708,267.685366 242.763676,267.845113 242.389163,267.972067 C242.014649,268.099021 241.584071,268.162497 241.097415,268.162497 C239.984453,268.162497 239.119065,267.845117 238.501223,267.210348 C237.883382,266.575579 237.574465,265.714423 237.574465,264.626852 C237.574465,264.114805 237.650636,263.639794 237.802981,263.201803 C237.955325,262.763813 238.177491,262.388247 238.469485,262.075094 C238.761479,261.761942 239.121175,261.521791 239.548586,261.354635 C239.975997,261.18748 240.449951,261.103903 240.970461,261.103903 C241.647548,261.103903 242.228353,261.246724 242.712893,261.53237 C243.197433,261.818016 243.560304,262.187234 243.801516,262.640036 C244.042728,263.092838 244.163333,263.554096 244.163333,264.023825 C244.163333,264.459699 244.038497,264.742167 243.788821,264.871237 C243.539145,265.000307 243.187912,265.06484 242.73511,265.06484 Z M239.345461,264.080954 L242.487551,264.080954 C242.445233,263.488503 242.285486,263.045229 242.008303,262.75112 C241.731121,262.45701 241.366134,262.309958 240.913333,262.309958 C240.48169,262.309958 240.127282,262.459126 239.8501,262.757467 C239.572918,263.055809 239.404707,263.496966 239.345461,264.080954 Z M247.343508,265.66152 L247.343508,267.108786 C247.343508,267.460025 247.26099,267.72345 247.09595,267.899069 C246.93091,268.074688 246.721439,268.162497 246.467532,268.162497 C246.217856,268.162497 246.012617,268.07363 245.851809,267.895895 C245.691001,267.71816 245.610598,267.455793 245.610598,267.108786 L245.610598,262.284567 C245.610598,261.505917 245.892008,261.116598 246.454836,261.116598 C246.742598,261.116598 246.949953,261.20758 247.076907,261.389547 C247.203861,261.571515 247.273684,261.840229 247.286379,262.1957 C247.493737,261.840229 247.706382,261.571515 247.924319,261.389547 C248.142256,261.20758 248.433187,261.116598 248.797122,261.116598 C249.161056,261.116598 249.514405,261.20758 249.85718,261.389547 C250.199955,261.571515 250.37134,261.812723 250.37134,262.11318 C250.37134,262.32477 250.298343,262.499329 250.152346,262.636862 C250.006349,262.774395 249.848717,262.843161 249.679446,262.843161 C249.615969,262.843161 249.462569,262.804017 249.219241,262.725729 C248.975913,262.647441 248.761152,262.608297 248.574954,262.608297 C248.321046,262.608297 248.113691,262.674947 247.952883,262.808249 C247.792075,262.94155 247.667239,263.139383 247.578372,263.401755 C247.489504,263.664126 247.428144,263.976216 247.39429,264.338034 C247.360435,264.699852 247.343508,265.14101 247.343508,265.66152 Z" transform="rotate(5 229.926 264.674)"/>
    <path fill="#FFF" fill-rule="nonzero" d="M295.856692,270.013571 L295.856692,262.682028 C295.856692,262.301167 295.943442,262.015525 296.116946,261.825094 C296.290449,261.634664 296.514731,261.53945 296.789797,261.53945 C297.073327,261.53945 297.302899,261.633606 297.478518,261.821921 C297.654137,262.010235 297.741946,262.296935 297.741946,262.682028 L297.741946,270.013571 C297.741946,270.398664 297.654137,270.686422 297.478518,270.876852 C297.302899,271.067283 297.073327,271.162497 296.789797,271.162497 C296.518963,271.162497 296.295739,271.066225 296.12012,270.873678 C295.9445,270.681132 295.856692,270.394432 295.856692,270.013571 Z M305.409915,263.151755 L301.696536,263.151755 L301.696536,265.532126 L304.80054,265.532126 C305.088301,265.532126 305.303062,265.596659 305.444827,265.725729 C305.586592,265.854799 305.657473,266.027242 305.657473,266.243063 C305.657473,266.458885 305.585534,266.63027 305.441653,266.757223 C305.297772,266.884177 305.08407,266.947653 304.80054,266.947653 L301.696536,266.947653 L301.696536,270.013571 C301.696536,270.402896 301.608727,270.691711 301.433108,270.880026 C301.257489,271.068341 301.032149,271.162497 300.757083,271.162497 C300.477784,271.162497 300.250329,271.067283 300.074709,270.876852 C299.89909,270.686422 299.811282,270.398664 299.811282,270.013571 L299.811282,262.853415 C299.811282,262.58258 299.851483,262.361472 299.931887,262.190085 C300.012291,262.018697 300.138185,261.893861 300.309573,261.815573 C300.48096,261.737285 300.699952,261.698141 300.966555,261.698141 L305.409915,261.698141 C305.710372,261.698141 305.933595,261.764791 306.079592,261.898092 C306.225589,262.031394 306.298586,262.205953 306.298586,262.421774 C306.298586,262.641827 306.225589,262.818502 306.079592,262.951803 C305.933595,263.085105 305.710372,263.151755 305.409915,263.151755 Z M313.744387,263.253317 L311.687747,263.253317 L311.687747,270.013571 C311.687747,270.402896 311.600996,270.691711 311.427493,270.880026 C311.253989,271.068341 311.029708,271.162497 310.754641,271.162497 C310.475343,271.162497 310.247887,271.067283 310.072268,270.876852 C309.896649,270.686422 309.80884,270.398664 309.80884,270.013571 L309.80884,263.253317 L307.7522,263.253317 C307.430584,263.253317 307.191491,263.182436 307.034915,263.040671 C306.878338,262.898906 306.800051,262.711652 306.800051,262.478903 C306.800051,262.237691 306.881512,262.047263 307.044436,261.907614 C307.20736,261.767965 307.443279,261.698141 307.7522,261.698141 L313.744387,261.698141 C314.070235,261.698141 314.312502,261.770081 314.471194,261.913962 C314.629886,262.057842 314.709231,262.246154 314.709231,262.478903 C314.709231,262.711652 314.628828,262.898906 314.46802,263.040671 C314.307212,263.182436 314.066003,263.253317 313.744387,263.253317 Z M321.869387,263.253317 L319.812747,263.253317 L319.812747,270.013571 C319.812747,270.402896 319.725996,270.691711 319.552493,270.880026 C319.378989,271.068341 319.154708,271.162497 318.879641,271.162497 C318.600343,271.162497 318.372887,271.067283 318.197268,270.876852 C318.021649,270.686422 317.93384,270.398664 317.93384,270.013571 L317.93384,263.253317 L315.8772,263.253317 C315.555584,263.253317 315.316491,263.182436 315.159915,263.040671 C315.003338,262.898906 314.925051,262.711652 314.925051,262.478903 C314.925051,262.237691 315.006512,262.047263 315.169436,261.907614 C315.33236,261.767965 315.568279,261.698141 315.8772,261.698141 L321.869387,261.698141 C322.195235,261.698141 322.437502,261.770081 322.596194,261.913962 C322.754886,262.057842 322.834231,262.246154 322.834231,262.478903 C322.834231,262.711652 322.753828,262.898906 322.59302,263.040671 C322.432212,263.182436 322.191003,263.253317 321.869387,263.253317 Z M329.994387,263.253317 L327.937747,263.253317 L327.937747,270.013571 C327.937747,270.402896 327.850996,270.691711 327.677493,270.880026 C327.503989,271.068341 327.279708,271.162497 327.004641,271.162497 C326.725343,271.162497 326.497887,271.067283 326.322268,270.876852 C326.146649,270.686422 326.05884,270.398664 326.05884,270.013571 L326.05884,263.253317 L324.0022,263.253317 C323.680584,263.253317 323.441491,263.182436 323.284915,263.040671 C323.128338,262.898906 323.050051,262.711652 323.050051,262.478903 C323.050051,262.237691 323.131512,262.047263 323.294436,261.907614 C323.45736,261.767965 323.693279,261.698141 324.0022,261.698141 L329.994387,261.698141 C330.320235,261.698141 330.562502,261.770081 330.721194,261.913962 C330.879886,262.057842 330.959231,262.246154 330.959231,262.478903 C330.959231,262.711652 330.878828,262.898906 330.71802,263.040671 C330.557212,263.182436 330.316003,263.253317 329.994387,263.253317 Z" transform="rotate(-4 313.408 266.351)"/>
    <path fill="#FFF" fill-rule="nonzero" d="M529.289065,187.950094 L528.844729,186.782126 L525.061526,186.782126 L524.61719,187.975485 C524.443686,188.440982 524.295576,188.755188 524.172854,188.918112 C524.050132,189.081036 523.849125,189.162497 523.569827,189.162497 C523.332846,189.162497 523.123376,189.075746 522.941409,188.902243 C522.759442,188.728739 522.668459,188.531964 522.668459,188.311911 C522.668459,188.184957 522.689618,188.053773 522.731936,187.918356 C522.774254,187.782939 522.844077,187.594627 522.941409,187.353415 L525.32178,181.310446 C525.389488,181.136942 525.470949,180.92853 525.566165,180.685202 C525.66138,180.441874 525.762941,180.239809 525.870852,180.079001 C525.978763,179.918193 526.120526,179.788067 526.296145,179.68862 C526.471764,179.589173 526.68864,179.53945 526.94678,179.53945 C527.209151,179.53945 527.428143,179.589173 527.603762,179.68862 C527.779382,179.788067 527.921144,179.916077 528.029055,180.072653 C528.136966,180.229229 528.227948,180.39744 528.302004,180.577292 C528.376061,180.757143 528.470217,180.997293 528.584475,181.297751 L531.015627,187.302633 C531.206058,187.759667 531.301272,188.091858 531.301272,188.299215 C531.301272,188.515037 531.211348,188.71287 531.031497,188.892721 C530.851645,189.072572 530.634769,189.162497 530.380862,189.162497 C530.232749,189.162497 530.105797,189.136048 530.000002,189.083151 C529.894208,189.030254 529.805341,188.958314 529.733401,188.867331 C529.66146,188.776347 529.584231,188.6367 529.501711,188.448385 C529.419192,188.260071 529.34831,188.093975 529.289065,187.950094 Z M525.556643,185.366598 L528.336917,185.366598 L526.934084,181.526266 L525.556643,185.366598 Z M538.328127,185.766501 L538.328127,188.0707 C538.328127,188.434634 538.245609,188.70758 538.080569,188.889547 C537.915529,189.071515 537.697595,189.162497 537.42676,189.162497 C537.164389,189.162497 536.951745,189.071515 536.788821,188.889547 C536.625897,188.70758 536.544436,188.434634 536.544436,188.0707 L536.544436,185.309469 C536.544436,184.873595 536.529625,184.535057 536.500002,184.293844 C536.47038,184.052632 536.389977,183.854799 536.258792,183.700339 C536.127606,183.545878 535.920251,183.468649 535.636721,183.468649 C535.069661,183.468649 534.696211,183.663309 534.51636,184.052633 C534.336509,184.441958 534.246584,185.000546 534.246584,185.728415 L534.246584,188.0707 C534.246584,188.430402 534.165124,188.702291 534.0022,188.886374 C533.839276,189.070457 533.624516,189.162497 533.357913,189.162497 C533.095542,189.162497 532.880781,189.070457 532.713626,188.886374 C532.54647,188.702291 532.462893,188.430402 532.462893,188.0707 L532.462893,183.11318 C532.462893,182.787332 532.538006,182.539776 532.688235,182.370505 C532.838463,182.201233 533.036297,182.116598 533.281741,182.116598 C533.518721,182.116598 533.716554,182.195943 533.875247,182.354635 C534.033939,182.513328 534.113284,182.73232 534.113284,183.011618 L534.113284,183.176657 C534.413741,182.816955 534.735352,182.552472 535.078127,182.3832 C535.420903,182.213928 535.801758,182.129294 536.220706,182.129294 C536.65658,182.129294 537.031088,182.216044 537.344241,182.389547 C537.657393,182.563051 537.915529,182.825418 538.118655,183.176657 C538.410648,182.821186 538.723796,182.557761 539.058108,182.386374 C539.392419,182.214986 539.762696,182.129294 540.168948,182.129294 C540.642908,182.129294 541.05127,182.222392 541.394045,182.40859 C541.736821,182.594789 541.99284,182.861388 542.162112,183.208395 C542.310225,183.521548 542.38428,184.014544 542.38428,184.687399 L542.38428,188.0707 C542.38428,188.434634 542.301761,188.70758 542.136721,188.889547 C541.971681,189.071515 541.753747,189.162497 541.482913,189.162497 C541.220542,189.162497 541.005781,189.070457 540.838626,188.886374 C540.67147,188.702291 540.587893,188.430402 540.587893,188.0707 L540.587893,185.157126 C540.587893,184.784728 540.572024,184.486391 540.540286,184.262106 C540.508547,184.037821 540.422855,183.849509 540.283206,183.697165 C540.143556,183.54482 539.93197,183.468649 539.64844,183.468649 C539.419923,183.468649 539.203047,183.536357 538.997805,183.671774 C538.792563,183.807191 538.632816,183.989156 538.518557,184.217672 C538.391603,184.509666 538.328127,185.025937 538.328127,185.766501 Z M548.446292,188.184958 C548.027344,188.510806 547.622156,188.755188 547.230715,188.918112 C546.839275,189.081036 546.400233,189.162497 545.913577,189.162497 C545.469239,189.162497 545.078862,189.074688 544.742434,188.899069 C544.406007,188.72345 544.146813,188.485415 543.964846,188.184958 C543.782879,187.8845 543.691897,187.558657 543.691897,187.207419 C543.691897,186.733458 543.842123,186.329328 544.142581,185.995016 C544.443038,185.660705 544.855631,185.436423 545.380374,185.322165 C545.4904,185.296774 545.763347,185.239646 546.199221,185.150778 C546.635096,185.06191 547.008546,184.98045 547.319583,184.906393 C547.630619,184.832337 547.9681,184.742413 548.332034,184.636618 C548.310875,184.179584 548.218835,183.84422 548.055911,183.630514 C547.892987,183.416809 547.555506,183.309958 547.043459,183.309958 C546.603353,183.309958 546.27222,183.371318 546.050051,183.49404 C545.827882,183.616762 545.637454,183.800842 545.478762,184.046286 C545.32007,184.29173 545.207929,184.453593 545.142336,184.531881 C545.076744,184.61017 544.936039,184.649313 544.720217,184.649313 C544.525555,184.649313 544.357344,184.586895 544.215579,184.462057 C544.073814,184.337219 544.002932,184.177472 544.002932,183.982809 C544.002932,183.67812 544.110841,183.381899 544.326663,183.094137 C544.542484,182.806375 544.878906,182.569399 545.33594,182.3832 C545.792973,182.197001 546.362141,182.103903 547.043459,182.103903 C547.805182,182.103903 548.403972,182.193827 548.839846,182.373678 C549.275721,182.55353 549.583579,182.838113 549.76343,183.227438 C549.943281,183.616763 550.033206,184.133034 550.033206,184.776266 C550.033206,185.182518 550.032148,185.527404 550.030032,185.810934 C550.027916,186.094464 550.024742,186.409728 550.02051,186.756735 C550.02051,187.082583 550.074465,187.422179 550.182376,187.775534 C550.290286,188.128888 550.344241,188.356344 550.344241,188.457907 C550.344241,188.635642 550.260664,188.797506 550.093508,188.943503 C549.926353,189.089499 549.736983,189.162497 549.525393,189.162497 C549.347658,189.162497 549.172041,189.07892 548.998538,188.911764 C548.825034,188.744609 548.640954,188.502342 548.446292,188.184958 Z M548.332034,185.677633 C548.078126,185.770733 547.708908,185.869121 547.224368,185.972799 C546.739828,186.076478 546.404463,186.152649 546.218264,186.201315 C546.032065,186.249981 545.854333,186.345195 545.685061,186.48696 C545.515789,186.628725 545.431155,186.826558 545.431155,187.080465 C545.431155,187.342837 545.5306,187.56606 545.729495,187.750143 C545.928389,187.934226 546.18864,188.026266 546.510256,188.026266 C546.853032,188.026266 547.169353,187.951153 547.459231,187.800924 C547.749109,187.650696 547.961753,187.457094 548.09717,187.220114 C548.253747,186.957743 548.332034,186.526106 548.332034,185.925192 L548.332034,185.677633 Z M556.501467,184.103415 L553.327639,187.651755 L556.723635,187.651755 C556.998702,187.651755 557.206056,187.716288 557.345706,187.845358 C557.485355,187.974428 557.555178,188.140523 557.555178,188.343649 C557.555178,188.538311 557.486413,188.697001 557.348879,188.819723 C557.211346,188.942445 557.002934,189.003805 556.723635,189.003805 L552.02637,189.003805 C551.69629,189.003805 551.449792,188.931866 551.286868,188.787985 C551.123944,188.644104 551.042483,188.447329 551.042483,188.197653 C551.042483,188.04954 551.099611,187.900372 551.21387,187.750143 C551.328128,187.599915 551.565105,187.323794 551.924807,186.921774 C552.305668,186.498595 552.651612,186.115623 552.962649,185.772848 C553.273686,185.430073 553.562501,185.10952 553.829104,184.811178 C554.095707,184.512837 554.316815,184.259991 554.492434,184.052633 C554.668053,183.845276 554.808758,183.667543 554.914553,183.51943 L552.337405,183.51943 C551.981934,183.51943 551.71322,183.487692 551.531252,183.424215 C551.349285,183.360739 551.258303,183.193585 551.258303,182.922751 C551.258303,182.723856 551.327069,182.565167 551.464602,182.446676 C551.602135,182.328186 551.797853,182.268942 552.05176,182.268942 L556.031741,182.268942 C556.399907,182.268942 556.682375,182.322897 556.879153,182.430807 C557.075931,182.538718 557.174319,182.73232 557.174319,183.011618 C557.174319,183.104717 557.155276,183.200989 557.11719,183.300436 C557.079104,183.399883 557.036787,183.481344 556.990237,183.544821 C556.943687,183.608298 556.880211,183.685527 556.799807,183.77651 C556.719403,183.867494 556.619957,183.976461 556.501467,184.103415 Z M564.880374,185.639547 C564.880374,186.155826 564.799971,186.631896 564.639163,187.06777 C564.478355,187.503645 564.245609,187.878153 563.94092,188.191305 C563.636231,188.504458 563.272303,188.744609 562.849124,188.911764 C562.425944,189.07892 561.949875,189.162497 561.420901,189.162497 C560.896159,189.162497 560.424321,189.077862 560.005374,188.90859 C559.586426,188.739319 559.223555,188.497052 558.916751,188.181784 C558.609946,187.866515 558.377201,187.494123 558.218508,187.064596 C558.059816,186.635069 557.980471,186.160058 557.980471,185.639547 C557.980471,185.114805 558.060874,184.634504 558.221682,184.19863 C558.38249,183.762755 558.613119,183.390363 558.913577,183.081442 C559.214034,182.772521 559.577963,182.534486 560.005374,182.367331 C560.432785,182.200175 560.904622,182.116598 561.420901,182.116598 C561.945643,182.116598 562.421713,182.201233 562.849124,182.370505 C563.276535,182.539776 563.642579,182.780985 563.947268,183.094137 C564.251957,183.40729 564.483644,183.779682 564.642336,184.211325 C564.801029,184.642968 564.880374,185.119037 564.880374,185.639547 Z M563.141116,185.639547 C563.141116,184.932838 562.9856,184.382714 562.674563,183.989157 C562.363526,183.5956 561.945643,183.398825 561.420901,183.398825 C561.082358,183.398825 560.784021,183.486633 560.525881,183.662253 C560.267742,183.837872 560.068851,184.097065 559.929202,184.43984 C559.789553,184.782616 559.719729,185.182514 559.719729,185.639547 C559.719729,186.092349 559.788495,186.488016 559.926028,186.826559 C560.063561,187.165103 560.260336,187.424296 560.51636,187.604147 C560.772383,187.783998 561.073894,187.873922 561.420901,187.873922 C561.945643,187.873922 562.363526,187.676089 562.674563,187.280417 C562.9856,186.884744 563.141116,186.337793 563.141116,185.639547 Z M567.819338,183.075094 L567.819338,183.284567 C568.124027,182.882547 568.457276,182.587384 568.819094,182.399069 C569.180912,182.210754 569.59668,182.116598 570.066409,182.116598 C570.523442,182.116598 570.931804,182.216044 571.291506,182.414938 C571.651209,182.613832 571.919923,182.895242 572.097659,183.259176 C572.211917,183.470766 572.285972,183.699279 572.319827,183.944723 C572.353681,184.190167 572.370608,184.503315 572.370608,184.884176 L572.370608,188.108786 C572.370608,188.455793 572.291263,188.71816 572.132571,188.895895 C571.973879,189.07363 571.767582,189.162497 571.513674,189.162497 C571.255535,189.162497 571.046064,189.071515 570.885256,188.889547 C570.724448,188.70758 570.644045,188.447329 570.644045,188.108786 L570.644045,185.220602 C570.644045,184.64931 570.564701,184.212384 570.406008,183.909811 C570.247316,183.607238 569.930994,183.455954 569.457034,183.455954 C569.148113,183.455954 568.866703,183.547994 568.612795,183.732077 C568.358888,183.91616 568.172692,184.169006 568.054202,184.490622 C567.969566,184.748761 567.927249,185.231178 567.927249,185.937887 L567.927249,188.108786 C567.927249,188.460025 567.845788,188.72345 567.682864,188.899069 C567.51994,189.074688 567.309411,189.162497 567.051272,189.162497 C566.801596,189.162497 566.596357,189.071515 566.435549,188.889547 C566.274741,188.70758 566.194338,188.447329 566.194338,188.108786 L566.194338,183.100485 C566.194338,182.770405 566.266278,182.523907 566.410159,182.360983 C566.55404,182.198059 566.750815,182.116598 567.000491,182.116598 C567.152835,182.116598 567.290366,182.152568 567.413088,182.224508 C567.53581,182.296449 567.634198,182.404358 567.708254,182.548239 C567.782311,182.69212 567.819338,182.867737 567.819338,183.075094 Z M579.314944,180.682028 L579.314944,187.454977 L583.136233,187.454977 C583.440922,187.454977 583.674725,187.529032 583.837649,187.677145 C584.000573,187.825258 584.082034,188.011454 584.082034,188.235739 C584.082034,188.464256 584.001631,188.649394 583.840823,188.791159 C583.680015,188.932924 583.445154,189.003805 583.136233,189.003805 L578.584963,189.003805 C578.17448,189.003805 577.879317,188.912823 577.699465,188.730856 C577.519614,188.548889 577.42969,188.254784 577.42969,187.848532 L577.42969,180.682028 C577.42969,180.301167 577.515382,180.015525 577.68677,179.825094 C577.858158,179.634664 578.083497,179.53945 578.362795,179.53945 C578.646325,179.53945 578.875897,179.633606 579.051516,179.821921 C579.227135,180.010235 579.314944,180.296935 579.314944,180.682028 Z M589.579104,188.184958 C589.160157,188.510806 588.754969,188.755188 588.363528,188.918112 C587.972087,189.081036 587.533045,189.162497 587.046389,189.162497 C586.602051,189.162497 586.211674,189.074688 585.875247,188.899069 C585.538819,188.72345 585.279626,188.485415 585.097659,188.184958 C584.915692,187.8845 584.824709,187.558657 584.824709,187.207419 C584.824709,186.733458 584.974936,186.329328 585.275393,185.995016 C585.57585,185.660705 585.988444,185.436423 586.513186,185.322165 C586.623213,185.296774 586.896159,185.239646 587.332034,185.150778 C587.767908,185.06191 588.141358,184.98045 588.452395,184.906393 C588.763432,184.832337 589.100912,184.742413 589.464846,184.636618 C589.443687,184.179584 589.351647,183.84422 589.188723,183.630514 C589.025799,183.416809 588.688319,183.309958 588.176272,183.309958 C587.736166,183.309958 587.405033,183.371318 587.182864,183.49404 C586.960695,183.616762 586.770267,183.800842 586.611575,184.046286 C586.452883,184.29173 586.340742,184.453593 586.275149,184.531881 C586.209556,184.61017 586.068851,184.649313 585.85303,184.649313 C585.658367,184.649313 585.490156,184.586895 585.348391,184.462057 C585.206626,184.337219 585.135745,184.177472 585.135745,183.982809 C585.135745,183.67812 585.243654,183.381899 585.459475,183.094137 C585.675297,182.806375 586.011719,182.569399 586.468752,182.3832 C586.925786,182.197001 587.494953,182.103903 588.176272,182.103903 C588.937995,182.103903 589.536784,182.193827 589.972659,182.373678 C590.408533,182.55353 590.716392,182.838113 590.896243,183.227438 C591.076094,183.616763 591.166018,184.133034 591.166018,184.776266 C591.166018,185.182518 591.16496,185.527404 591.162844,185.810934 C591.160728,186.094464 591.157555,186.409728 591.153323,186.756735 C591.153323,187.082583 591.207277,187.422179 591.315188,187.775534 C591.423099,188.128888 591.477053,188.356344 591.477053,188.457907 C591.477053,188.635642 591.393477,188.797506 591.226321,188.943503 C591.059165,189.089499 590.869795,189.162497 590.658206,189.162497 C590.48047,189.162497 590.304854,189.07892 590.13135,188.911764 C589.957847,188.744609 589.773766,188.502342 589.579104,188.184958 Z M589.464846,185.677633 C589.210939,185.770733 588.84172,185.869121 588.35718,185.972799 C587.87264,186.076478 587.537276,186.152649 587.351077,186.201315 C587.164878,186.249981 586.987145,186.345195 586.817874,186.48696 C586.648602,186.628725 586.563967,186.826558 586.563967,187.080465 C586.563967,187.342837 586.663413,187.56606 586.862307,187.750143 C587.061201,187.934226 587.321453,188.026266 587.643069,188.026266 C587.985844,188.026266 588.302166,187.951153 588.592043,187.800924 C588.881921,187.650696 589.094566,187.457094 589.229983,187.220114 C589.386559,186.957743 589.464846,186.526106 589.464846,185.925192 L589.464846,185.677633 Z M598.687991,185.766501 L598.687991,188.0707 C598.687991,188.434634 598.605472,188.70758 598.440432,188.889547 C598.275392,189.071515 598.057458,189.162497 597.786624,189.162497 C597.524252,189.162497 597.311608,189.071515 597.148684,188.889547 C596.98576,188.70758 596.904299,188.434634 596.904299,188.0707 L596.904299,185.309469 C596.904299,184.873595 596.889488,184.535057 596.859866,184.293844 C596.830243,184.052632 596.74984,183.854799 596.618655,183.700339 C596.487469,183.545878 596.280115,183.468649 595.996584,183.468649 C595.429524,183.468649 595.056074,183.663309 594.876223,184.052633 C594.696372,184.441958 594.606448,185.000546 594.606448,185.728415 L594.606448,188.0707 C594.606448,188.430402 594.524987,188.702291 594.362063,188.886374 C594.199139,189.070457 593.984379,189.162497 593.717776,189.162497 C593.455405,189.162497 593.240645,189.070457 593.073489,188.886374 C592.906333,188.702291 592.822756,188.430402 592.822756,188.0707 L592.822756,183.11318 C592.822756,182.787332 592.89787,182.539776 593.048098,182.370505 C593.198327,182.201233 593.39616,182.116598 593.641604,182.116598 C593.878584,182.116598 594.076418,182.195943 594.23511,182.354635 C594.393802,182.513328 594.473147,182.73232 594.473147,183.011618 L594.473147,183.176657 C594.773604,182.816955 595.095216,182.552472 595.437991,182.3832 C595.780766,182.213928 596.161621,182.129294 596.580569,182.129294 C597.016443,182.129294 597.390951,182.216044 597.704104,182.389547 C598.017257,182.563051 598.275392,182.825418 598.478518,183.176657 C598.770512,182.821186 599.08366,182.557761 599.417971,182.386374 C599.752283,182.214986 600.122559,182.129294 600.528811,182.129294 C601.002772,182.129294 601.411134,182.222392 601.753909,182.40859 C602.096684,182.594789 602.352703,182.861388 602.521975,183.208395 C602.670088,183.521548 602.744143,184.014544 602.744143,184.687399 L602.744143,188.0707 C602.744143,188.434634 602.661624,188.70758 602.496584,188.889547 C602.331545,189.071515 602.113611,189.162497 601.842776,189.162497 C601.580405,189.162497 601.365645,189.070457 601.198489,188.886374 C601.031333,188.702291 600.947756,188.430402 600.947756,188.0707 L600.947756,185.157126 C600.947756,184.784728 600.931887,184.486391 600.900149,184.262106 C600.868411,184.037821 600.782718,183.849509 600.643069,183.697165 C600.50342,183.54482 600.291833,183.468649 600.008303,183.468649 C599.779786,183.468649 599.56291,183.536357 599.357668,183.671774 C599.152427,183.807191 598.992679,183.989156 598.87842,184.217672 C598.751467,184.509666 598.687991,185.025937 598.687991,185.766501 Z M606.025881,180.529684 L606.025881,183.176657 C606.351729,182.838114 606.68392,182.57892 607.022463,182.399069 C607.361007,182.219218 607.779948,182.129294 608.279299,182.129294 C608.854823,182.129294 609.359457,182.265767 609.793215,182.538717 C610.226974,182.811668 610.563396,183.207335 610.802493,183.725729 C611.041589,184.244124 611.161135,184.858782 611.161135,185.569723 C611.161135,186.094465 611.094486,186.575825 610.961184,187.013815 C610.827883,187.451806 610.634281,187.831603 610.380374,188.153219 C610.126466,188.474836 609.818608,188.72345 609.45679,188.899069 C609.094971,189.074688 608.696131,189.162497 608.260256,189.162497 C607.993653,189.162497 607.742924,189.130759 607.508059,189.067282 C607.273195,189.003805 607.073245,188.920228 606.908206,188.816549 C606.743166,188.712871 606.602461,188.606019 606.486086,188.495993 C606.369712,188.385966 606.216312,188.220929 606.025881,188.000876 L606.025881,188.172262 C606.025881,188.49811 605.947594,188.744609 605.791018,188.911764 C605.634442,189.07892 605.435551,189.162497 605.194338,189.162497 C604.948894,189.162497 604.753177,189.07892 604.60718,188.911764 C604.461183,188.744609 604.388186,188.49811 604.388186,188.172262 L604.388186,180.605856 C604.388186,180.254617 604.459068,179.989076 604.600833,179.809225 C604.742598,179.629374 604.940431,179.53945 605.194338,179.53945 C605.460941,179.53945 605.66618,179.625142 605.810061,179.79653 C605.953942,179.967917 606.025881,180.2123 606.025881,180.529684 Z M606.108401,185.677633 C606.108401,186.367416 606.266033,186.89744 606.581301,187.267721 C606.89657,187.638003 607.310221,187.823141 607.822268,187.823141 C608.258143,187.823141 608.633709,187.633771 608.948977,187.255026 C609.264246,186.876281 609.421877,186.333561 609.421877,185.626852 C609.421877,185.169819 609.356286,184.776268 609.2251,184.446188 C609.093915,184.116108 608.907719,183.861147 608.666506,183.681296 C608.425294,183.501444 608.143884,183.41152 607.822268,183.41152 C607.492188,183.41152 607.198083,183.501444 606.939944,183.681296 C606.681805,183.861147 606.478682,184.121398 606.330569,184.462057 C606.182456,184.802717 606.108401,185.207905 606.108401,185.677633 Z M617.299319,188.172262 L617.299319,188.000876 C617.06657,188.267479 616.836999,188.484355 616.610598,188.65151 C616.384197,188.818666 616.138757,188.945618 615.87427,189.03237 C615.609783,189.119121 615.320968,189.162497 615.007815,189.162497 C614.593099,189.162497 614.20907,189.074688 613.855715,188.899069 C613.502361,188.72345 613.196618,188.47272 612.938479,188.146872 C612.68034,187.821024 612.484622,187.438052 612.351321,186.997946 C612.218019,186.55784 612.15137,186.08177 612.15137,185.569723 C612.15137,184.486385 612.415853,183.642155 612.944827,183.037008 C613.473801,182.431862 614.16992,182.129294 615.033206,182.129294 C615.532557,182.129294 615.953614,182.214986 616.296389,182.386374 C616.639164,182.557761 616.973471,182.821186 617.299319,183.176657 L617.299319,180.618551 C617.299319,180.263081 617.3702,179.994366 617.511965,179.812399 C617.65373,179.630432 617.855795,179.53945 618.118167,179.53945 C618.380538,179.53945 618.582603,179.623026 618.724368,179.790182 C618.866133,179.957338 618.937014,180.203836 618.937014,180.529684 L618.937014,188.172262 C618.937014,188.502342 618.860843,188.749898 618.708499,188.914938 C618.556154,189.079978 618.359379,189.162497 618.118167,189.162497 C617.881186,189.162497 617.685469,189.076804 617.531008,188.905417 C617.376548,188.734029 617.299319,188.489647 617.299319,188.172262 Z M613.890627,185.626852 C613.890627,186.096581 613.963625,186.496479 614.109622,186.826559 C614.255618,187.156639 614.455568,187.405253 614.709475,187.572409 C614.963383,187.739565 615.240561,187.823141 615.541018,187.823141 C615.845707,187.823141 616.123943,187.743796 616.375735,187.585104 C616.627527,187.426412 616.828534,187.183088 616.978762,186.855124 C617.128991,186.52716 617.204104,186.11774 617.204104,185.626852 C617.204104,185.165587 617.128991,184.768862 616.978762,184.436667 C616.828534,184.104471 616.625411,183.850567 616.369387,183.674948 C616.113364,183.499329 615.833012,183.41152 615.528323,183.41152 C615.210938,183.41152 614.927413,183.501444 614.677737,183.681296 C614.428061,183.861147 614.23446,184.119282 614.096926,184.45571 C613.959393,184.792137 613.890627,185.182514 613.890627,185.626852 Z M625.056155,188.184958 C624.637207,188.510806 624.232019,188.755188 623.840579,188.918112 C623.449138,189.081036 623.010096,189.162497 622.52344,189.162497 C622.079102,189.162497 621.688725,189.074688 621.352297,188.899069 C621.01587,188.72345 620.756677,188.485415 620.574709,188.184958 C620.392742,187.8845 620.30176,187.558657 620.30176,187.207419 C620.30176,186.733458 620.451987,186.329328 620.752444,185.995016 C621.052901,185.660705 621.465495,185.436423 621.990237,185.322165 C622.100263,185.296774 622.37321,185.239646 622.809084,185.150778 C623.244959,185.06191 623.618409,184.98045 623.929446,184.906393 C624.240483,184.832337 624.577963,184.742413 624.941897,184.636618 C624.920738,184.179584 624.828698,183.84422 624.665774,183.630514 C624.50285,183.416809 624.16537,183.309958 623.653323,183.309958 C623.213216,183.309958 622.882084,183.371318 622.659915,183.49404 C622.437745,183.616762 622.247318,183.800842 622.088626,184.046286 C621.929933,184.29173 621.817793,184.453593 621.7522,184.531881 C621.686607,184.61017 621.545902,184.649313 621.330081,184.649313 C621.135418,184.649313 620.967207,184.586895 620.825442,184.462057 C620.683677,184.337219 620.612795,184.177472 620.612795,183.982809 C620.612795,183.67812 620.720705,183.381899 620.936526,183.094137 C621.152347,182.806375 621.48877,182.569399 621.945803,182.3832 C622.402837,182.197001 622.972004,182.103903 623.653323,182.103903 C624.415045,182.103903 625.013835,182.193827 625.449709,182.373678 C625.885584,182.55353 626.193442,182.838113 626.373293,183.227438 C626.553145,183.616763 626.643069,184.133034 626.643069,184.776266 C626.643069,185.182518 626.642011,185.527404 626.639895,185.810934 C626.637779,186.094464 626.634605,186.409728 626.630374,186.756735 C626.630374,187.082583 626.684328,187.422179 626.792239,187.775534 C626.900149,188.128888 626.954104,188.356344 626.954104,188.457907 C626.954104,188.635642 626.870527,188.797506 626.703372,188.943503 C626.536216,189.089499 626.346846,189.162497 626.135256,189.162497 C625.957521,189.162497 625.781904,189.07892 625.608401,188.911764 C625.434897,188.744609 625.250817,188.502342 625.056155,188.184958 Z M624.941897,185.677633 C624.687989,185.770733 624.318771,185.869121 623.834231,185.972799 C623.349691,186.076478 623.014326,186.152649 622.828127,186.201315 C622.641929,186.249981 622.464196,186.345195 622.294924,186.48696 C622.125653,186.628725 622.041018,186.826558 622.041018,187.080465 C622.041018,187.342837 622.140464,187.56606 622.339358,187.750143 C622.538252,187.934226 622.798503,188.026266 623.12012,188.026266 C623.462895,188.026266 623.779217,187.951153 624.069094,187.800924 C624.358972,187.650696 624.571616,187.457094 624.707034,187.220114 C624.86361,186.957743 624.941897,186.526106 624.941897,185.925192 L624.941897,185.677633 Z" transform="rotate(2 574.811 184.351)"/>
    <g stroke="#FFF" stroke-linejoin="round" stroke-width="2" transform="translate(482 228)">
      <rect width="37" height="20" x="-1" y="-1"/>
      <polyline points="0 0 17.135 9.44 35.973 0"/>
    </g>
    <polygon stroke="#FFF" stroke-linejoin="round" stroke-width="2" points="549.219 167.747 565.424 143.815 563.484 137.591 557.9 137.591 557.9 131.094 568.52 131.094 581.204 162.043 587.268 160.195 589.219 165.983 576.934 170.094 569.219 151.861 557.9 167.747"/>
    <g stroke="#FFF" stroke-width="2" transform="translate(276.209 231)">
      <rect width="44" height="25" x="-.209" y="-1" stroke-linejoin="round"/>
      <polyline stroke-linejoin="round" points="0 10.613 26.833 10.613 26.833 23.971"/>
      <path d="M26.3878062,10.612793 L43.0431275,10.612793"/>
    </g>
    <g transform="translate(409 248)">
      <path stroke="#FFF" d="M0,3.64697266 L20.4033203,3.64697266"/>
      <rect width="22" height="34" x="-1" y="-1" stroke="#FFF" stroke-linejoin="round" stroke-width="2" rx="2"/>
      <path stroke="#FFF" stroke-linejoin="round" d="M7.41381836,1.21016846 L12.2137573,1.21016846 C11.0730672,1.66327718 10.2730774,1.88983154 9.81378784,1.88983154 C9.35449829,1.88983154 8.55450846,1.66327718 7.41381836,1.21016846 Z"/>
      <path stroke="#FFF" d="M0,27.6469727 L20.4033203,27.6469727"/>
      <circle cx="9.75" cy="30.25" r="1.25" fill="#FFF"/>
    </g>
    <polygon stroke="#FFF" stroke-linejoin="round" stroke-width="2" points="14.812 25.443 7.627 32.437 3.65 28.226 10.632 21.046 .542 21.046 .542 15.094 10.632 15.094 3.65 7.671 7.677 3.64 14.812 10.652 14.812 .549 21.11 .549 21.11 10.652 28.511 3.64 32.521 7.671 25.27 15.094 35.542 15.094 35.542 21.046 25.27 21.046 32.521 28.226 28.511 32.437 21.11 25.443 21.11 35.549 14.638 35.468" transform="translate(225.458 218.451)"/>
  </g>
</svg>
