<svg xmlns="http://www.w3.org/2000/svg" viewBox="0 0 487 313">
  <g fill="none" fill-rule="evenodd">
    <g stroke="#FFF" stroke-linejoin="round" stroke-width="2" transform="translate(207 21)">
      <polygon points="39 126 78 72 39 94.708"/>
      <polygon points="39 87 78 63.877 39 47"/>
      <polygon points="0 87 39 63.877 0 47" transform="matrix(-1 0 0 1 39 0)"/>
      <polygon points="0 46.806 39 63 0 0" transform="matrix(-1 0 0 1 39 0)"/>
      <polygon points="39 46.806 78 63 39 0"/>
      <polygon points="0 126 39 72 0 94.708" transform="matrix(-1 0 0 1 39 0)"/>
    </g>
    <path stroke="#FFF" stroke-linecap="round" stroke-linejoin="round" stroke-width="2" d="M202.044922,58.4746094 C146.380859,32.1992188 140.142578,20.59375 122.609375,40.3027344"/>
    <g stroke="#FFF" stroke-width="2" transform="translate(58.111 66.827)">
      <g transform="translate(5)">
        <path stroke-linecap="round" stroke-linejoin="round" d="M29.4921875 2.07677521C12.8085937-4.93201385.190429688 7.14513459 2.84217094e-14 18.2740408M44.2529297 17.7320487L12.0556641 17.760369"/>
        <circle cx="37.889" cy="8.173" r="1"/>
      </g>
      <g transform="rotate(180 22.5 22.5)">
        <path stroke-linecap="round" stroke-linejoin="round" d="M29.4921875 2.07677521C12.8085937-4.93201385.190429688 7.14513459 2.84217094e-14 18.2740408M44.2529297 17.7320487L12.0556641 17.760369"/>
        <circle cx="37.889" cy="8.173" r="1"/>
      </g>
    </g>
    <text fill="#FFF" font-family="Futura-Medium, Futura" font-size="10" font-weight="400" transform="rotate(6 128 102.5)">
      <tspan x="108.496" y="106">Segment</tspan>
    </text>
    <text fill="#FFF" font-family="Futura-Medium, Futura" font-size="10" font-weight="400" transform="rotate(-5 432 60.5)">
      <tspan x="417.283" y="64">Twitter</tspan>
    </text>
    <polygon stroke="#FFF" stroke-linecap="round" stroke-linejoin="round" stroke-width="2" points="112.563 40.053 112.563 53.235 126.433 49.371"/>
    <g stroke="#FFF" stroke-linecap="round" stroke-linejoin="round" stroke-width="2" transform="matrix(-1 0 0 1 363.563 18.017)">
      <path d="M87.6650391,12.8600296 C32.0009766,-13.4153611 44.2919922,9.54167018 16.2275391,11.1686233"/>
      <polygon points="2.694 6.983 2.694 20.166 16.563 16.301" transform="rotate(40 9.629 13.574)"/>
    </g>
    <path stroke="#979797"/>
    <path stroke="#FFF" stroke-linejoin="round" stroke-width="2" d="M375,56.445971 C389.179048,63.5284776 401.744531,62.3498544 412.696449,52.9101012 C419.750281,46.5324672 423.357082,38.3082411 423.516853,28.2374232 L429,22.1963625 L422.609115,23.6324089 C425.602051,21.8892958 427.16062,19.9571427 427.284822,17.8359496 L420.315189,20.3281953 C418.034035,18.4916307 415.830221,17.4198561 413.703746,17.1128716 C409.879194,16.5607475 406.743597,18.1745647 405.676912,18.9202583 C403.217259,20.6397414 400.508831,24.109776 400.836094,30.4442596 C393.412201,30.0182621 385.918896,26.2368869 378.356179,19.100134 C374.391186,24.8208951 378.832904,31.9939766 381.525068,33.6765969 C379.244243,33.1228741 377.606733,32.6816712 376.612538,32.3529882 C377.483927,37.1126043 378.260932,40.9462121 385.218614,43.4682932 C383.884669,43.6488675 382.361628,43.7531683 380.649489,43.7811955 C382.343556,48.5463184 385.680841,51.0789201 390.661346,51.3790005 C386.28255,54.7508165 381.062101,56.4398066 375,56.445971 Z"/>
  </g>
</svg>
