<svg xmlns="http://www.w3.org/2000/svg" viewBox="0 0 416 361">
  <g fill="none" fill-rule="evenodd" transform="translate(-1454 -2192)">
    <g transform="translate(1453 2192)">
      <polygon fill="#BAFDF8" points="0 121.927 31.223 33.172 121.71 0 218.262 27.678 242.615 74.369 254.383 174.131 247 289.278 228.934 336.141 175.406 361 128.293 336.781 103.812 289.278 94.895 240.885 36.316 223.035"/>
      <path fill="#FFF" stroke="#000" stroke-width="10" d="M118.964844,30.8398437 C165.710938,30.8398437 215.878906,49.5703125 217.960938,98.2265625 C220.042969,146.882812 221.539063,206.085937 221.34375,250.144531 C220.949219,276.179688 223.242188,321.714844 173.59375,319.8125 C123.945313,317.910156 137.048828,247.27832 133.642578,235.75 C131.923828,211.421875 100.248047,211.636719 75.8066406,196.587891 C51.3652344,181.539063 37.8867187,169.412109 37.479719,118.966797 C42.5039062,64.1777344 72.21875,30.8398437 118.964844,30.8398437 Z"/>
      <polygon fill="#BAFDF8" points="269.824 116.941 269.824 166.648 282.555 182.555 295.129 166.648 295.129 116.941 282.477 104.289"/>
      <path stroke="#000" stroke-width="10" d="M271.824219,179.423942 L271.824219,206.413563 C272.609447,214.540978 275.061839,217.554687 279.554688,217.554688 C284.028993,217.554688 286.427903,214.565665 287.128906,206.438617 L287.128906,179.423942 C285.931314,173.516648 283.605195,171.289062 279.476562,171.289062 C275.34793,171.289062 273.021811,173.516648 271.824219,179.423942 Z"/>
      <polygon fill="#BAFDF8" points="310.824 102.941 310.824 162.648 323.555 178.555 336.129 162.648 336.129 102.941 323.477 90.289"/>
      <path stroke="#000" stroke-width="10" d="M311.824219,179.423942 L311.824219,226.413563 C312.609447,234.540978 315.061839,237.554688 319.554687,237.554688 C324.028993,237.554688 326.427903,234.565665 327.128906,226.438617 L327.128906,179.423942 C325.931314,173.516648 323.605195,171.289062 319.476562,171.289062 C315.34793,171.289062 313.021811,173.516648 311.824219,179.423942 Z"/>
      <polygon fill="#BAFDF8" points="349.824 83.941 349.824 163.648 362.555 179.555 375.129 163.648 375.129 83.941 362.477 71.289"/>
      <path stroke="#000" stroke-width="10" d="M351.824219,179.423942 L351.824219,256.413563 C352.609447,264.540978 355.061839,267.554687 359.554688,267.554687 C364.028993,267.554687 366.427903,264.565665 367.128906,256.438617 L367.128906,179.423942 C365.931314,173.516648 363.605195,171.289062 359.476562,171.289062 C355.34793,171.289062 353.021811,173.516648 351.824219,179.423942 Z"/>
      <polygon fill="#BAFDF8" points="389.824 58.941 389.824 168.648 402.555 184.555 415.129 168.648 415.129 58.941 402.477 46.289"/>
      <path stroke="#000" stroke-width="10" d="M391.824219,179.423942 L391.824219,276.413563 C392.609447,284.540978 395.061839,287.554687 399.554687,287.554687 C404.028993,287.554687 406.427903,284.565665 407.128906,276.438617 L407.128906,179.423942 C405.931314,173.516648 403.605195,171.289062 399.476562,171.289062 C395.34793,171.289062 393.021811,173.516648 391.824219,179.423942 Z"/>
      <path stroke="#000" stroke-linecap="round" stroke-width="10" d="M66.4023437,114.337891 C63.2734375,127.466797 58.0546875,152.632813 81.2871094,169.150391 C104.519531,185.667969 162.638672,179.085937 158.320312,238.212891"/>
    </g>
    <path stroke="#000" stroke-linecap="round" stroke-width="10" d="M1597.62891,2253.32227 C1631.59505,2256.97852 1648.5013,2274.65039 1648.34766,2306.33789"/>
  </g>
</svg>
