<svg xmlns="http://www.w3.org/2000/svg" viewBox="0 0 615 124">
  <defs>
    <linearGradient id="notus-logo--black-blue-pink4-a" x1="50%" x2="50%" y1="0%" y2="100%">
      <stop offset="0%" stop-color="#65E1FC"/>
      <stop offset="48.567%" stop-color="#00A1DD"/>
      <stop offset="54.672%" stop-color="#FE07D4"/>
      <stop offset="100%" stop-color="#FF30CC"/>
    </linearGradient>
  </defs>
  <g fill="none" fill-rule="evenodd">
    <path fill="#000" fill-rule="nonzero" d="M146.53,110 L146.53,17.88 L189.37,17.88 L202.25,45.46 L209.53,62.54 L208.83,45.46 L208.83,17.88 L241.31,17.88 L241.31,110 L198.47,110 L185.17,82.42 L178.31,65.62 L179.01,82.42 L179.01,110 L146.53,110 Z M299.83,112.52 C269.59,112.52 249.43,96 249.43,63.94 C249.43,31.88 269.59,15.36 299.83,15.36 C330.21,15.36 350.37,31.88 350.37,63.94 C350.37,96 330.21,112.52 299.83,112.52 Z M299.83,80.6 C306.55,80.6 309.35,75.84 309.35,63.94 C309.35,51.9 306.55,47.28 299.83,47.28 C293.11,47.28 290.31,51.9 290.31,63.94 C290.31,75.84 293.11,80.6 299.83,80.6 Z M371.09,110 L371.09,48.68 L353.73,48.68 L353.73,17.88 L427.09,17.88 L427.09,48.68 L409.73,48.68 L409.73,110 L371.09,110 Z M479.45,112.52 C450.61,112.52 434.65,98.52 434.65,74.58 L434.65,17.88 L473.29,17.88 L473.29,72.34 C473.29,77.52 475.81,80.6 480.29,80.6 C484.91,80.6 487.29,77.52 487.29,72.34 L487.29,17.88 L523.97,17.88 L523.97,74.58 C523.97,98.52 508.15,112.52 479.45,112.52 Z M571.99,112.52 C558.97,112.52 548.33,110.7 534.05,106.08 L534.05,77.66 C546.51,83.26 555.75,85.5 566.81,85.5 C573.39,85.5 575.91,84.52 575.91,81.86 C575.91,79.76 574.51,78.78 570.73,78.22 L568.49,77.94 C544.27,74.86 531.81,66.04 531.81,47.14 C531.81,26.28 545.81,15.36 573.11,15.36 C584.17,15.36 596.07,16.9 607.83,19.84 L607.83,48.26 C598.17,44.34 588.09,42.24 578.01,42.24 C572.13,42.24 569.89,43.22 569.89,45.74 C569.89,47.7 571.29,48.68 575.07,49.1 L577.31,49.38 C601.95,52.46 614.55,61.28 614.55,79.48 C614.55,101.18 600.13,112.52 571.99,112.52 Z"/>
    <g transform="translate(0 .117)">
      <path fill="#FFF" stroke="url(#notus-logo--black-blue-pink4-a)" stroke-width="7" d="M4.81293805,32.6430596 C4.0041727,33.0794082 3.5,33.9242928 3.5,34.8432604 L3.5,92.8501899 C3.5,93.8261188 4.06790016,94.7128298 4.95436589,95.1210156 L58.2228489,119.649249 C58.894809,119.958663 59.6692999,119.954586 60.3379654,119.638115 L112.069482,95.1542707 C112.942999,94.7408469 113.5,93.8609899 113.5,92.8945788 L113.5,34.8754145 C113.5,33.9493728 112.98811,33.09919 112.169677,32.6659222 L59.1416997,4.59359625 C58.4038481,4.20298718 57.5197097,4.2064729 56.784961,4.60288771 L4.81293805,32.6430596 Z"/>
      <path fill="#FF30CC" stroke="#FFF" stroke-width="5" d="M14.5,75.2160056 L58.0950499,51.1506642 L102.5,75.2025163 L102.5,85.7467357 L59.0846872,106.770532 L14.5,85.7653972 L14.5,75.2160056 Z"/>
      <path fill="#35BFF7" stroke="#FFF" stroke-width="5" d="M14.5,41.2160056 L58.0950499,17.1506642 L102.5,41.2025163 L102.5,51.7467357 L59.0846872,72.7705318 L14.5,51.7653972 L14.5,41.2160056 Z"/>
    </g>
  </g>
</svg>
