<svg xmlns="http://www.w3.org/2000/svg" viewBox="0 0 117 154">
  <g fill="none" fill-rule="evenodd" transform="translate(0 -.883)">
    <path fill="#FF30CC" d="M4.24678089,107.086596 L56.7301988,131.067427 C58.332623,131.79961 60.1758669,131.790525 61.7709959,131.042581 L112.726382,107.150013 C114.226514,106.446613 116.012829,107.092492 116.716229,108.592624 C116.903118,108.991201 117,109.426024 117,109.866241 L117,123.77788 C117,126.097266 115.663197,128.208923 113.566758,129.20114 L61.8352407,153.684985 C60.2304435,154.444514 58.3716654,154.454299 56.7589612,153.711706 L3.49047813,129.183472 C1.36296037,128.203826 -1.48951648e-15,126.07572 0,123.733491 L0,109.815247 C-6.46995335e-16,108.158393 1.34314575,106.815247 3,106.815247 C3.43024315,106.815247 3.85545306,106.90779 4.24678089,107.086596 Z"/>
    <path fill="#35BFF7" d="M3.15105132,30.4460791 L55.1230743,2.40590726 C56.8864712,1.45451171 59.0084034,1.44614597 60.7792471,2.38360775 L113.807224,30.4559337 C115.771463,31.4957763 117,33.5362152 117,35.7587153 L117,93.7778796 C117,96.0972661 115.663197,98.208923 113.566758,99.2011402 L61.8352407,123.684985 C60.2304435,124.444514 58.3716654,124.454299 56.7589612,123.711706 L3.49047813,99.1834724 C1.36296037,98.2038264 1.43694183e-14,96.07572 0,93.7334907 L0,35.7265612 C-2.04645542e-15,33.5210389 1.21001449,31.4933157 3.15105132,30.4460791 Z"/>
  </g>
</svg>
