<svg xmlns="http://www.w3.org/2000/svg" viewBox="0 0 117 154">
  <g fill="none" fill-rule="evenodd" stroke="#FFF" stroke-width="3" transform="translate(0 -.883)">
    <path fill="#FF30CC" d="M3.86328849,61.7661996 C2.40751087,62.5516271 1.5,64.0724195 1.5,65.7265612 L1.5,123.733491 C1.5,125.490163 2.52222028,127.086243 4.1178586,127.820977 L57.3863416,152.349211 C58.5958698,152.906155 59.9899534,152.898817 61.1935513,152.32917 L112.925068,127.845325 C114.497398,127.101162 115.5,125.517419 115.5,123.77788 L115.5,65.7587153 C115.5,64.0918403 114.578597,62.5615111 113.105418,61.7816291 L60.077441,33.7093032 C58.7493083,33.0062068 57.1578591,33.0124811 55.8353115,33.7260278 L3.86328849,61.7661996 Z"/>
    <path fill="#35BFF7" d="M3.86328849,31.7661996 C2.40751087,32.5516271 1.5,34.0724195 1.5,35.7265612 L1.5,93.7334907 C1.5,95.4901627 2.52222028,97.0862425 4.1178586,97.820977 L57.3863416,122.349211 C58.5958698,122.906155 59.9899534,122.898817 61.1935513,122.32917 L112.925068,97.845325 C114.497398,97.1011621 115.5,95.5174195 115.5,93.7778796 L115.5,35.7587153 C115.5,34.0918403 114.578597,32.5615111 113.105418,31.7816291 L60.077441,3.70930316 C58.7493083,3.00620683 57.1578591,3.01248113 55.8353115,3.72602779 L3.86328849,31.7661996 Z"/>
  </g>
</svg>
