<svg xmlns="http://www.w3.org/2000/svg" viewBox="0 0 542 215">
  <g fill-rule="evenodd">
    <path fill-rule="nonzero" d="M153,107.57551 C153,76.9183673 177.521204,52 207.873671,52 C238.226137,52 262.896861,76.9183673 262.896861,107.57551 C262.896861,138.232653 238.226137,163 207.873671,163 C177.521204,163 153,138.232653 153,107.57551 Z M174.804933,107.135468 C174.804933,125.362069 189.391681,140.095238 207.437142,140.095238 C225.482604,140.095238 240.219731,125.362069 240.219731,107.135468 C240.219731,88.908867 225.482604,74.0238095 207.437142,74.0238095 C189.391681,74.0238095 174.804933,88.908867 174.804933,107.135468 Z M270.746637,76.4417427 L270.746637,53.7619048 L351.860987,53.7619048 L351.860987,76.4417427 L322.569694,76.4417427 L322.569694,160.357143 L300.03793,160.357143 L300.03793,76.4417427 L270.746637,76.4417427 Z M365.816143,54.6428571 L388.275224,54.6428571 L388.275224,117.85119 C388.275224,130.342361 398.306947,140.425595 410.734305,140.425595 C423.161663,140.425595 433.193386,130.342361 433.193386,117.85119 L433.193386,54.6428571 L455.652466,54.6428571 L455.652466,117.85119 C455.652466,142.833532 435.589021,163 410.734305,163 C385.879589,163 365.816143,142.833532 365.816143,117.85119 L365.816143,54.6428571 Z M471.352018,149.068213 L489.126035,134.984993 C491.963903,137.559345 497.938362,140.28513 504.211544,140.28513 C513.023872,140.28513 519.446416,136.196453 519.446416,129.836289 C519.446416,125.747613 516.907271,121.810368 513.023872,120.901774 L494.353687,115.450205 C480.911153,112.11869 473.293717,98.6412005 473.293717,85.3151432 C473.293717,65.1746248 489.872842,52 508.244305,52 C520.193223,52 530.648527,57.148704 536.92171,64.26603 L519.595777,78.9549795 C517.654078,76.6834925 513.023872,74.7148704 508.094943,74.7148704 C500.77623,74.7148704 495.69794,79.106412 495.69794,85.4665757 C495.69794,89.5552524 498.237085,93.4924966 502.120484,94.2496589 L520.940031,99.7012278 C534.382564,103.032742 542,116.661664 542,129.987722 C542,149.825375 524.524706,163 504.80899,163 C490.769011,163 478.222646,157.245566 471.352018,149.068213 Z"/>
    <path d="M1,0 C21,1 37,5 54.4694702,29.9752287 L109.540548,133.286652 L109.540548,53.7959021 L133.004162,53.7959021 C132.870218,122.27599 132.870218,158.082634 133.004162,161.215834 C133.004162,188.935547 160.5,198 166,197.516014 L172.5,208 L163,215 C149,215 126,208 112.211478,183.318026 C74.8799266,115.185667 56.214151,81.2461731 56.214151,81.4995446 C56.214151,97.6811839 56.214151,124.253281 56.214151,161.215834 L33.5504325,161.215834 L33.5504325,55.9443008 C34.1842955,35.5147849 18.1210938,19.5 0.5,19.5 L8.5,11 L1,0 Z"/>
  </g>
</svg>
