<svg xmlns="http://www.w3.org/2000/svg" viewBox="0 0 520 106">
  <g fill="none" transform="translate(-4 -55)">
    <path fill="#8DFFF0" d="M44.34,65.04 L72.34,108.86 L72.34,65.04 L98.8,65.04 L98.8,158 L64.08,158 L31.18,105.08 L31.18,158 L4.72,158 L4.72,65.04 L44.34,65.04 Z M168.3,134.9 C178.52,134.9 182.3,128.32 182.3,113.62 L182.3,109.14 C182.3,94.72 178.52,88.14 168.3,88.14 C158.08,88.14 154.3,94.72 154.3,109.42 L154.3,113.9 C154.3,128.32 158.08,134.9 168.3,134.9 Z M167.74,160.1 C137.78,160.1 116.36,141.06 116.36,111.66 C116.36,82.4 138.2,62.94 168.86,62.94 C198.82,62.94 220.24,81.98 220.24,111.38 C220.24,140.64 198.4,160.1 167.74,160.1 Z M309.34,65.04 L309.34,89.4 L287.92,89.4 L287.92,158 L251.52,158 L251.52,89.4 L230.1,89.4 L230.1,65.04 L309.34,65.04 Z M371.56,160.1 C338.24,160.1 326.34,148.06 326.34,120.2 L326.34,65.04 L362.74,65.04 L362.74,121.18 C362.74,131.82 365.54,135.18 374.5,135.18 C382.9,135.18 385.56,132.24 385.56,123 L385.56,65.04 L412.02,65.04 L412.02,123 C412.02,148.48 399.98,160.1 371.56,160.1 Z M472.84,160.1 C443.72,160.1 428.74,143.02 427.9,127.06 L454.92,127.06 C456.46,134.34 461.36,139.24 472.7,139.24 C477.18,139.24 480.12,137 480.12,133.92 C480.12,130.14 472.28,128.6 462.76,126.08 C448.06,122.3 429.3,116.28 429.3,96.82 C429.3,76.66 447.22,62.94 473.12,62.94 C500.84,62.94 513.44,76.94 514.28,95.42 L487.54,95.42 C486,88.14 483.2,83.8 472.98,83.8 C468.5,83.8 465.7,86.18 465.7,89.68 C465.7,94.3 474.38,95.84 484.74,98.36 C499.16,101.86 516.52,107.46 516.52,127.06 C516.52,147.64 499.72,160.1 472.84,160.1 Z"/>
    <path fill="#000" d="M51.34,58.04 L79.34,101.86 L79.34,58.04 L105.8,58.04 L105.8,151 L71.08,151 L38.18,98.08 L38.18,151 L11.72,151 L11.72,58.04 L51.34,58.04 Z M175.3,127.9 C185.52,127.9 189.3,121.32 189.3,106.62 L189.3,102.14 C189.3,87.72 185.52,81.14 175.3,81.14 C165.08,81.14 161.3,87.72 161.3,102.42 L161.3,106.9 C161.3,121.32 165.08,127.9 175.3,127.9 Z M174.74,153.1 C144.78,153.1 123.36,134.06 123.36,104.66 C123.36,75.4 145.2,55.94 175.86,55.94 C205.82,55.94 227.24,74.98 227.24,104.38 C227.24,133.64 205.4,153.1 174.74,153.1 Z M316.34,58.04 L316.34,82.4 L294.92,82.4 L294.92,151 L258.52,151 L258.52,82.4 L237.1,82.4 L237.1,58.04 L316.34,58.04 Z M378.56,153.1 C345.24,153.1 333.34,141.06 333.34,113.2 L333.34,58.04 L369.74,58.04 L369.74,114.18 C369.74,124.82 372.54,128.18 381.5,128.18 C389.9,128.18 392.56,125.24 392.56,116 L392.56,58.04 L419.02,58.04 L419.02,116 C419.02,141.48 406.98,153.1 378.56,153.1 Z M479.84,153.1 C450.72,153.1 435.74,136.02 434.9,120.06 L461.92,120.06 C463.46,127.34 468.36,132.24 479.7,132.24 C484.18,132.24 487.12,130 487.12,126.92 C487.12,123.14 479.28,121.6 469.76,119.08 C455.06,115.3 436.3,109.28 436.3,89.82 C436.3,69.66 454.22,55.94 480.12,55.94 C507.84,55.94 520.44,69.94 521.28,88.42 L494.54,88.42 C493,81.14 490.2,76.8 479.98,76.8 C475.5,76.8 472.7,79.18 472.7,82.68 C472.7,87.3 481.38,88.84 491.74,91.36 C506.16,94.86 523.52,100.46 523.52,120.06 C523.52,140.64 506.72,153.1 479.84,153.1 Z"/>
  </g>
</svg>
