<svg xmlns="http://www.w3.org/2000/svg" viewBox="0 0 477 104">
  <path fill="#FFF" d="M7.53,98 L7.53,5.88 L50.37,5.88 L63.25,33.46 L70.53,50.54 L69.83,33.46 L69.83,5.88 L102.31,5.88 L102.31,98 L59.47,98 L46.17,70.42 L39.31,53.62 L40.01,70.42 L40.01,98 L7.53,98 Z M160.83,100.52 C130.59,100.52 110.43,84 110.43,51.94 C110.43,19.88 130.59,3.36 160.83,3.36 C191.21,3.36 211.37,19.88 211.37,51.94 C211.37,84 191.21,100.52 160.83,100.52 Z M160.83,68.6 C167.55,68.6 170.35,63.84 170.35,51.94 C170.35,39.9 167.55,35.28 160.83,35.28 C154.11,35.28 151.31,39.9 151.31,51.94 C151.31,63.84 154.11,68.6 160.83,68.6 Z M232.09,98 L232.09,36.68 L214.73,36.68 L214.73,5.88 L288.09,5.88 L288.09,36.68 L270.73,36.68 L270.73,98 L232.09,98 Z M340.45,100.52 C311.61,100.52 295.65,86.52 295.65,62.58 L295.65,5.88 L334.29,5.88 L334.29,60.34 C334.29,65.52 336.81,68.6 341.29,68.6 C345.91,68.6 348.29,65.52 348.29,60.34 L348.29,5.88 L384.97,5.88 L384.97,62.58 C384.97,86.52 369.15,100.52 340.45,100.52 Z M432.99,100.52 C419.97,100.52 409.33,98.7 395.05,94.08 L395.05,65.66 C407.51,71.26 416.75,73.5 427.81,73.5 C434.39,73.5 436.91,72.52 436.91,69.86 C436.91,67.76 435.51,66.78 431.73,66.22 L429.49,65.94 C405.27,62.86 392.81,54.04 392.81,35.14 C392.81,14.28 406.81,3.36 434.11,3.36 C445.17,3.36 457.07,4.9 468.83,7.84 L468.83,36.26 C459.17,32.34 449.09,30.24 439.01,30.24 C433.13,30.24 430.89,31.22 430.89,33.74 C430.89,35.7 432.29,36.68 436.07,37.1 L438.31,37.38 C462.95,40.46 475.55,49.28 475.55,67.48 C475.55,89.18 461.13,100.52 432.99,100.52 Z"/>
</svg>
