<svg xmlns="http://www.w3.org/2000/svg" viewBox="0 0 615 124">
  <defs>
    <linearGradient id="notus-logo--black-blue-pink3-a" x1="50%" x2="50%" y1="0%" y2="100%">
      <stop offset="0%" stop-color="#65E1FC"/>
      <stop offset="48.567%" stop-color="#00A1DD"/>
      <stop offset="54.672%" stop-color="#FE07D4"/>
      <stop offset="100%" stop-color="#FF30CC"/>
    </linearGradient>
  </defs>
  <g fill="none" fill-rule="evenodd">
    <path fill="#000" fill-rule="nonzero" d="M146.53,110 L146.53,17.88 L189.37,17.88 L202.25,45.46 L209.53,62.54 L208.83,45.46 L208.83,17.88 L241.31,17.88 L241.31,110 L198.47,110 L185.17,82.42 L178.31,65.62 L179.01,82.42 L179.01,110 L146.53,110 Z M299.83,112.52 C269.59,112.52 249.43,96 249.43,63.94 C249.43,31.88 269.59,15.36 299.83,15.36 C330.21,15.36 350.37,31.88 350.37,63.94 C350.37,96 330.21,112.52 299.83,112.52 Z M299.83,80.6 C306.55,80.6 309.35,75.84 309.35,63.94 C309.35,51.9 306.55,47.28 299.83,47.28 C293.11,47.28 290.31,51.9 290.31,63.94 C290.31,75.84 293.11,80.6 299.83,80.6 Z M371.09,110 L371.09,48.68 L353.73,48.68 L353.73,17.88 L427.09,17.88 L427.09,48.68 L409.73,48.68 L409.73,110 L371.09,110 Z M479.45,112.52 C450.61,112.52 434.65,98.52 434.65,74.58 L434.65,17.88 L473.29,17.88 L473.29,72.34 C473.29,77.52 475.81,80.6 480.29,80.6 C484.91,80.6 487.29,77.52 487.29,72.34 L487.29,17.88 L523.97,17.88 L523.97,74.58 C523.97,98.52 508.15,112.52 479.45,112.52 Z M571.99,112.52 C558.97,112.52 548.33,110.7 534.05,106.08 L534.05,77.66 C546.51,83.26 555.75,85.5 566.81,85.5 C573.39,85.5 575.91,84.52 575.91,81.86 C575.91,79.76 574.51,78.78 570.73,78.22 L568.49,77.94 C544.27,74.86 531.81,66.04 531.81,47.14 C531.81,26.28 545.81,15.36 573.11,15.36 C584.17,15.36 596.07,16.9 607.83,19.84 L607.83,48.26 C598.17,44.34 588.09,42.24 578.01,42.24 C572.13,42.24 569.89,43.22 569.89,45.74 C569.89,47.7 571.29,48.68 575.07,49.1 L577.31,49.38 C601.95,52.46 614.55,61.28 614.55,79.48 C614.55,101.18 600.13,112.52 571.99,112.52 Z"/>
    <g stroke-width="5" transform="translate(0 .117)">
      <path fill="#FFF" stroke="url(#notus-logo--black-blue-pink3-a)" d="M4.33811327,31.7629792 C3.20584179,32.3738672 2.5,33.5567058 2.5,34.8432604 L2.5,92.8501899 C2.5,94.2164903 3.29506022,95.4578858 4.53611224,96.0293459 L57.8045953,120.557579 C58.7453394,120.990759 59.8296266,120.985051 60.7657583,120.541992 L112.497275,96.0581475 C113.720198,95.4793541 114.5,94.2475543 114.5,92.8945788 L114.5,34.8754145 C114.5,33.5789562 113.783353,32.3887001 112.637547,31.7821253 L59.6095704,3.70979932 C58.5765782,3.16294661 57.3387844,3.16782662 56.3101363,3.72280736 L4.33811327,31.7629792 Z"/>
      <path fill="#FF30CC" stroke="#FFF" d="M14.5,75.2160056 L58.0950499,51.1506642 L102.5,75.2025163 L102.5,85.7467357 L59.0846872,106.770532 L14.5,85.7653972 L14.5,75.2160056 Z"/>
      <path fill="#35BFF7" stroke="#FFF" d="M14.5,41.2160056 L58.0950499,17.1506642 L102.5,41.2025163 L102.5,51.7467357 L59.0846872,72.7705318 L14.5,51.7653972 L14.5,41.2160056 Z"/>
    </g>
  </g>
</svg>
