<svg xmlns="http://www.w3.org/2000/svg" viewBox="0 0 509 106">
  <path d="M8.61,95 L8.61,2.88 L51.45,2.88 L64.33,30.46 L71.61,47.54 L70.91,30.46 L70.91,2.88 L103.39,2.88 L103.39,95 L60.55,95 L47.25,67.42 L40.39,50.62 L41.09,67.42 L41.09,95 L8.61,95 Z M169.91,97.52 C139.67,97.52 119.51,81 119.51,48.94 C119.51,16.88 139.67,0.36 169.91,0.36 C200.29,0.36 220.45,16.88 220.45,48.94 C220.45,81 200.29,97.52 169.91,97.52 Z M169.91,65.6 C176.63,65.6 179.43,60.84 179.43,48.94 C179.43,36.9 176.63,32.28 169.91,32.28 C163.19,32.28 160.39,36.9 160.39,48.94 C160.39,60.84 163.19,65.6 169.91,65.6 Z M249.17,95 L249.17,33.68 L231.81,33.68 L231.81,2.88 L305.17,2.88 L305.17,33.68 L287.81,33.68 L287.81,95 L249.17,95 Z M365.53,97.52 C336.69,97.52 320.73,83.52 320.73,59.58 L320.73,2.88 L359.37,2.88 L359.37,57.34 C359.37,62.52 361.89,65.6 366.37,65.6 C370.99,65.6 373.37,62.52 373.37,57.34 L373.37,2.88 L410.05,2.88 L410.05,59.58 C410.05,83.52 394.23,97.52 365.53,97.52 Z M466.91,97.52 C453.89,97.52 443.25,95.7 428.97,91.08 L428.97,62.66 C441.43,68.26 450.67,70.5 461.73,70.5 C468.31,70.5 470.83,69.52 470.83,66.86 C470.83,64.76 469.43,63.78 465.65,63.22 L463.41,62.94 C439.19,59.86 426.73,51.04 426.73,32.14 C426.73,11.28 440.73,0.36 468.03,0.36 C479.09,0.36 490.99,1.9 502.75,4.84 L502.75,33.26 C493.09,29.34 483.01,27.24 472.93,27.24 C467.05,27.24 464.81,28.22 464.81,30.74 C464.81,32.7 466.21,33.68 469.99,34.1 L472.23,34.38 C496.87,37.46 509.47,46.28 509.47,64.48 C509.47,86.18 495.05,97.52 466.91,97.52 Z"/>
</svg>
