<svg xmlns="http://www.w3.org/2000/svg" width="570" height="158" viewBox="0 0 570 158">
  <g fill="none" fill-rule="evenodd" transform="translate(7 -25)">
    <path fill="#D5077C" fill-rule="nonzero" d="M62.34,58.04 L90.34,101.86 L90.34,58.04 L116.8,58.04 L116.8,151 L82.08,151 L49.18,98.08 L49.18,151 L22.72,151 L22.72,58.04 L62.34,58.04 Z M186.3,127.9 C196.52,127.9 200.3,121.32 200.3,106.62 L200.3,102.14 C200.3,87.72 196.52,81.14 186.3,81.14 C176.08,81.14 172.3,87.72 172.3,102.42 L172.3,106.9 C172.3,121.32 176.08,127.9 186.3,127.9 Z M185.74,153.1 C155.78,153.1 134.36,134.06 134.36,104.66 C134.36,75.4 156.2,55.94 186.86,55.94 C216.82,55.94 238.24,74.98 238.24,104.38 C238.24,133.64 216.4,153.1 185.74,153.1 Z M327.34,58.04 L327.34,82.4 L305.92,82.4 L305.92,151 L269.52,151 L269.52,82.4 L248.1,82.4 L248.1,58.04 L327.34,58.04 Z M389.56,153.1 C356.24,153.1 344.34,141.06 344.34,113.2 L344.34,58.04 L380.74,58.04 L380.74,114.18 C380.74,124.82 383.54,128.18 392.5,128.18 C400.9,128.18 403.56,125.24 403.56,116 L403.56,58.04 L430.02,58.04 L430.02,116 C430.02,141.48 417.98,153.1 389.56,153.1 Z M490.84,153.1 C461.72,153.1 446.74,136.02 445.9,120.06 L472.92,120.06 C474.46,127.34 479.36,132.24 490.7,132.24 C495.18,132.24 498.12,130 498.12,126.92 C498.12,123.14 490.28,121.6 480.76,119.08 C466.06,115.3 447.3,109.28 447.3,89.82 C447.3,69.66 465.22,55.94 491.12,55.94 C518.84,55.94 531.44,69.94 532.28,88.42 L505.54,88.42 C504,81.14 501.2,76.8 490.98,76.8 C486.5,76.8 483.7,79.18 483.7,82.68 C483.7,87.3 492.38,88.84 502.74,91.36 C517.16,94.86 534.52,100.46 534.52,120.06 C534.52,140.64 517.72,153.1 490.84,153.1 Z"/>
    <polyline stroke="#D5077C" stroke-width="6" points="0 96.91 454.797 96.91 454.797 174" transform="rotate(180 227.398 135.455)"/>
    <polyline stroke="#D5077C" stroke-width="6" points="84.594 97.754 84.594 33.648 552.145 33.648" transform="matrix(-1 0 0 1 636.738 0)"/>
  </g>
</svg>
