<svg xmlns="http://www.w3.org/2000/svg" viewBox="0 0 509 106">
  <g fill="none" transform="translate(-6 -31)">
    <path fill="#8CFFF9" d="M6.61,134 L6.61,41.88 L49.45,41.88 L62.33,69.46 L69.61,86.54 L68.91,69.46 L68.91,41.88 L101.39,41.88 L101.39,134 L58.55,134 L45.25,106.42 L38.39,89.62 L39.09,106.42 L39.09,134 L6.61,134 Z M167.91,136.52 C137.67,136.52 117.51,120 117.51,87.94 C117.51,55.88 137.67,39.36 167.91,39.36 C198.29,39.36 218.45,55.88 218.45,87.94 C218.45,120 198.29,136.52 167.91,136.52 Z M167.91,104.6 C174.63,104.6 177.43,99.84 177.43,87.94 C177.43,75.9 174.63,71.28 167.91,71.28 C161.19,71.28 158.39,75.9 158.39,87.94 C158.39,99.84 161.19,104.6 167.91,104.6 Z M247.17,134 L247.17,72.68 L229.81,72.68 L229.81,41.88 L303.17,41.88 L303.17,72.68 L285.81,72.68 L285.81,134 L247.17,134 Z M363.53,136.52 C334.69,136.52 318.73,122.52 318.73,98.58 L318.73,41.88 L357.37,41.88 L357.37,96.34 C357.37,101.52 359.89,104.6 364.37,104.6 C368.99,104.6 371.37,101.52 371.37,96.34 L371.37,41.88 L408.05,41.88 L408.05,98.58 C408.05,122.52 392.23,136.52 363.53,136.52 Z M464.91,136.52 C451.89,136.52 441.25,134.7 426.97,130.08 L426.97,101.66 C439.43,107.26 448.67,109.5 459.73,109.5 C466.31,109.5 468.83,108.52 468.83,105.86 C468.83,103.76 467.43,102.78 463.65,102.22 L461.41,101.94 C437.19,98.86 424.73,90.04 424.73,71.14 C424.73,50.28 438.73,39.36 466.03,39.36 C477.09,39.36 488.99,40.9 500.75,43.84 L500.75,72.26 C491.09,68.34 481.01,66.24 470.93,66.24 C465.05,66.24 462.81,67.22 462.81,69.74 C462.81,71.7 464.21,72.68 467.99,73.1 L470.23,73.38 C494.87,76.46 507.47,85.28 507.47,103.48 C507.47,125.18 493.05,136.52 464.91,136.52 Z"/>
    <path fill="#000" d="M14.61,126 L14.61,33.88 L57.45,33.88 L70.33,61.46 L77.61,78.54 L76.91,61.46 L76.91,33.88 L109.39,33.88 L109.39,126 L66.55,126 L53.25,98.42 L46.39,81.62 L47.09,98.42 L47.09,126 L14.61,126 Z M175.91,128.52 C145.67,128.52 125.51,112 125.51,79.94 C125.51,47.88 145.67,31.36 175.91,31.36 C206.29,31.36 226.45,47.88 226.45,79.94 C226.45,112 206.29,128.52 175.91,128.52 Z M175.91,96.6 C182.63,96.6 185.43,91.84 185.43,79.94 C185.43,67.9 182.63,63.28 175.91,63.28 C169.19,63.28 166.39,67.9 166.39,79.94 C166.39,91.84 169.19,96.6 175.91,96.6 Z M255.17,126 L255.17,64.68 L237.81,64.68 L237.81,33.88 L311.17,33.88 L311.17,64.68 L293.81,64.68 L293.81,126 L255.17,126 Z M371.53,128.52 C342.69,128.52 326.73,114.52 326.73,90.58 L326.73,33.88 L365.37,33.88 L365.37,88.34 C365.37,93.52 367.89,96.6 372.37,96.6 C376.99,96.6 379.37,93.52 379.37,88.34 L379.37,33.88 L416.05,33.88 L416.05,90.58 C416.05,114.52 400.23,128.52 371.53,128.52 Z M472.91,128.52 C459.89,128.52 449.25,126.7 434.97,122.08 L434.97,93.66 C447.43,99.26 456.67,101.5 467.73,101.5 C474.31,101.5 476.83,100.52 476.83,97.86 C476.83,95.76 475.43,94.78 471.65,94.22 L469.41,93.94 C445.19,90.86 432.73,82.04 432.73,63.14 C432.73,42.28 446.73,31.36 474.03,31.36 C485.09,31.36 496.99,32.9 508.75,35.84 L508.75,64.26 C499.09,60.34 489.01,58.24 478.93,58.24 C473.05,58.24 470.81,59.22 470.81,61.74 C470.81,63.7 472.21,64.68 475.99,65.1 L478.23,65.38 C502.87,68.46 515.47,77.28 515.47,95.48 C515.47,117.18 501.05,128.52 472.91,128.52 Z"/>
  </g>
</svg>
