<svg xmlns="http://www.w3.org/2000/svg" viewBox="0 0 477 104">
  <g fill="none" fill-rule="evenodd">
    <path fill="#5E0348" fill-rule="nonzero" d="M7.53,101 L7.53,8.88 L50.37,8.88 L63.25,36.46 L70.53,53.54 L69.83,36.46 L69.83,8.88 L102.31,8.88 L102.31,101 L59.47,101 L46.17,73.42 L39.31,56.62 L40.01,73.42 L40.01,101 L7.53,101 Z M160.83,103.52 C130.59,103.52 110.43,87 110.43,54.94 C110.43,22.88 130.59,6.36 160.83,6.36 C191.21,6.36 211.37,22.88 211.37,54.94 C211.37,87 191.21,103.52 160.83,103.52 Z M160.83,71.6 C167.55,71.6 170.35,66.84 170.35,54.94 C170.35,42.9 167.55,38.28 160.83,38.28 C154.11,38.28 151.31,42.9 151.31,54.94 C151.31,66.84 154.11,71.6 160.83,71.6 Z M232.09,101 L232.09,39.68 L214.73,39.68 L214.73,8.88 L288.09,8.88 L288.09,39.68 L270.73,39.68 L270.73,101 L232.09,101 Z M340.45,103.52 C311.61,103.52 295.65,89.52 295.65,65.58 L295.65,8.88 L334.29,8.88 L334.29,63.34 C334.29,68.52 336.81,71.6 341.29,71.6 C345.91,71.6 348.29,68.52 348.29,63.34 L348.29,8.88 L384.97,8.88 L384.97,65.58 C384.97,89.52 369.15,103.52 340.45,103.52 Z M432.99,103.52 C419.97,103.52 409.33,101.7 395.05,97.08 L395.05,68.66 C407.51,74.26 416.75,76.5 427.81,76.5 C434.39,76.5 436.91,75.52 436.91,72.86 C436.91,70.76 435.51,69.78 431.73,69.22 L429.49,68.94 C405.27,65.86 392.81,57.04 392.81,38.14 C392.81,17.28 406.81,6.36 434.11,6.36 C445.17,6.36 457.07,7.9 468.83,10.84 L468.83,39.26 C459.17,35.34 449.09,33.24 439.01,33.24 C433.13,33.24 430.89,34.22 430.89,36.74 C430.89,38.7 432.29,39.68 436.07,40.1 L438.31,40.38 C462.95,43.46 475.55,52.28 475.55,70.48 C475.55,92.18 461.13,103.52 432.99,103.52 Z"/>
    <path fill="#FFF" fill-rule="nonzero" d="M2.53,95 L2.53,2.88 L45.37,2.88 L58.25,30.46 L65.53,47.54 L64.83,30.46 L64.83,2.88 L97.31,2.88 L97.31,95 L54.47,95 L41.17,67.42 L34.31,50.62 L35.01,67.42 L35.01,95 L2.53,95 Z M155.83,97.52 C125.59,97.52 105.43,81 105.43,48.94 C105.43,16.88 125.59,0.36 155.83,0.36 C186.21,0.36 206.37,16.88 206.37,48.94 C206.37,81 186.21,97.52 155.83,97.52 Z M155.83,65.6 C162.55,65.6 165.35,60.84 165.35,48.94 C165.35,36.9 162.55,32.28 155.83,32.28 C149.11,32.28 146.31,36.9 146.31,48.94 C146.31,60.84 149.11,65.6 155.83,65.6 Z M227.09,95 L227.09,33.68 L209.73,33.68 L209.73,2.88 L283.09,2.88 L283.09,33.68 L265.73,33.68 L265.73,95 L227.09,95 Z M335.45,97.52 C306.61,97.52 290.65,83.52 290.65,59.58 L290.65,2.88 L329.29,2.88 L329.29,57.34 C329.29,62.52 331.81,65.6 336.29,65.6 C340.91,65.6 343.29,62.52 343.29,57.34 L343.29,2.88 L379.97,2.88 L379.97,59.58 C379.97,83.52 364.15,97.52 335.45,97.52 Z M427.99,97.52 C414.97,97.52 404.33,95.7 390.05,91.08 L390.05,62.66 C402.51,68.26 411.75,70.5 422.81,70.5 C429.39,70.5 431.91,69.52 431.91,66.86 C431.91,64.76 430.51,63.78 426.73,63.22 L424.49,62.94 C400.27,59.86 387.81,51.04 387.81,32.14 C387.81,11.28 401.81,0.36 429.11,0.36 C440.17,0.36 452.07,1.9 463.83,4.84 L463.83,33.26 C454.17,29.34 444.09,27.24 434.01,27.24 C428.13,27.24 425.89,28.22 425.89,30.74 C425.89,32.7 427.29,33.68 431.07,34.1 L433.31,34.38 C457.95,37.46 470.55,46.28 470.55,64.48 C470.55,86.18 456.13,97.52 427.99,97.52 Z"/>
  </g>
</svg>
