<svg xmlns="http://www.w3.org/2000/svg" viewBox="0 0 615 124">
  <g fill="none" fill-rule="evenodd">
    <path fill="#000" fill-rule="nonzero" d="M146.53,110 L146.53,17.88 L189.37,17.88 L202.25,45.46 L209.53,62.54 L208.83,45.46 L208.83,17.88 L241.31,17.88 L241.31,110 L198.47,110 L185.17,82.42 L178.31,65.62 L179.01,82.42 L179.01,110 L146.53,110 Z M299.83,112.52 C269.59,112.52 249.43,96 249.43,63.94 C249.43,31.88 269.59,15.36 299.83,15.36 C330.21,15.36 350.37,31.88 350.37,63.94 C350.37,96 330.21,112.52 299.83,112.52 Z M299.83,80.6 C306.55,80.6 309.35,75.84 309.35,63.94 C309.35,51.9 306.55,47.28 299.83,47.28 C293.11,47.28 290.31,51.9 290.31,63.94 C290.31,75.84 293.11,80.6 299.83,80.6 Z M371.09,110 L371.09,48.68 L353.73,48.68 L353.73,17.88 L427.09,17.88 L427.09,48.68 L409.73,48.68 L409.73,110 L371.09,110 Z M479.45,112.52 C450.61,112.52 434.65,98.52 434.65,74.58 L434.65,17.88 L473.29,17.88 L473.29,72.34 C473.29,77.52 475.81,80.6 480.29,80.6 C484.91,80.6 487.29,77.52 487.29,72.34 L487.29,17.88 L523.97,17.88 L523.97,74.58 C523.97,98.52 508.15,112.52 479.45,112.52 Z M571.99,112.52 C558.97,112.52 548.33,110.7 534.05,106.08 L534.05,77.66 C546.51,83.26 555.75,85.5 566.81,85.5 C573.39,85.5 575.91,84.52 575.91,81.86 C575.91,79.76 574.51,78.78 570.73,78.22 L568.49,77.94 C544.27,74.86 531.81,66.04 531.81,47.14 C531.81,26.28 545.81,15.36 573.11,15.36 C584.17,15.36 596.07,16.9 607.83,19.84 L607.83,48.26 C598.17,44.34 588.09,42.24 578.01,42.24 C572.13,42.24 569.89,43.22 569.89,45.74 C569.89,47.7 571.29,48.68 575.07,49.1 L577.31,49.38 C601.95,52.46 614.55,61.28 614.55,79.48 C614.55,101.18 600.13,112.52 571.99,112.52 Z"/>
    <g transform="translate(0 .117)">
      <path fill="#000" d="M3.15105132,29.5627783 L55.1230743,1.52260647 C56.8864712,0.571210926 59.0084034,0.562845193 60.7792471,1.50030697 L113.807224,29.5726329 C115.771463,30.6124755 117,32.6529145 117,34.8754145 L117,92.8945788 C117,95.2139653 115.663197,97.3256222 113.566758,98.3178394 L61.8352407,122.801684 C60.2304435,123.561213 58.3716654,123.570998 56.7589612,122.828405 L3.49047813,98.3001716 C1.36296037,97.3205257 -1.80520912e-13,95.1924192 -8.61533067e-14,92.8501899 L2.07389661e-12,34.8432604 C2.15492075e-12,32.6377382 1.21001449,30.610015 3.15105132,29.5627783 Z"/>
      <path fill="#FF30CC" stroke="#000" stroke-width="7" d="M15.5,74.7266837 L58.109362,51.0030005 L101.5,74.7077521 L101.5,86.1581716 L59.0632865,106.884968 L15.5,86.1843831 L15.5,74.7266837 Z"/>
      <path fill="#FFF" stroke="#000" stroke-width="7" d="M15.5,40.7266837 L58.109362,17.0030005 L101.5,40.7077521 L101.5,52.1581716 L59.0632865,72.8849679 L15.5,52.1843831 L15.5,40.7266837 Z"/>
    </g>
  </g>
</svg>
