<svg xmlns="http://www.w3.org/2000/svg" width="170" height="164" viewBox="0 0 170 164">
  <g fill="#FFF" fill-rule="evenodd" transform="translate(-28 -29)">
    <path d="M107,193 L162,136.262706 L162,69 L124,90 C124.209877,96.0837125 122.95679,100.501018 120.240741,103.251917 C117.524691,106.002816 112.944444,107.585511 106.5,108 L107,193 Z"/>
    <path d="M39.7244391,158.94454 L95.5207984,102.290233 L95.69525,35.2971881 L57.5058337,58.2088148 C57.4933479,63.0035882 56.1094833,66.7744775 53.3542396,69.5214827 C50.598996,72.2684879 46.4723734,73.991609 40.9743718,74.690846 L39.7244391,158.94454 Z" transform="rotate(120 67.71 97.12)"/>
    <path d="M101.590944,118.394948 L157.092997,62.0295964 L157.446865,-6.43955155 L118.27828,15.4024265 C118.670538,21.7623759 117.49618,26.3087185 114.755206,29.0414543 C112.014231,31.7741901 107.896527,33.4759071 102.402093,34.1466054 L101.590944,118.394948 Z" transform="rotate(-120 129.519 55.978)"/>
  </g>
</svg>
