<svg xmlns="http://www.w3.org/2000/svg" width="77.14" height="14.4" viewBox="0 0 77.14 14.4">
  <path id="Path_19" d="M6.16-.02A.381.381,0,0,0,6.5.2h.2a.381.381,0,0,0,.34-.22l6.28-13.46a.353.353,0,0,0-.34-.52H10.32a.392.392,0,0,0-.34.22l-3.3,7.3H6.56l-3.3-7.3A.392.392,0,0,0,2.92-14H.26a.353.353,0,0,0-.34.52Zm8.8-.36a.38.38,0,0,0,.38.38h8.28A.38.38,0,0,0,24-.38V-2.56a.38.38,0,0,0-.38-.38H18.08v-2.7h4.56a.38.38,0,0,0,.38-.38V-8.2a.393.393,0,0,0-.38-.38H18.08v-2.48h5.54a.38.38,0,0,0,.38-.38v-2.18a.38.38,0,0,0-.38-.38H15.34a.38.38,0,0,0-.38.38Zm11.72,0a.38.38,0,0,0,.38.38h7.52a.38.38,0,0,0,.38-.38V-2.56a.38.38,0,0,0-.38-.38H29.82V-13.62a.393.393,0,0,0-.38-.38H27.06a.38.38,0,0,0-.38.38Zm9.1-6.6A7.17,7.17,0,0,0,43,.2a6.864,6.864,0,0,0,4.86-1.94.4.4,0,0,0,.02-.54L46.32-3.94a.4.4,0,0,0-.52-.02A4.23,4.23,0,0,1,43.12-3a3.962,3.962,0,0,1-3.94-4.06,3.985,3.985,0,0,1,3.92-4.12,4.086,4.086,0,0,1,2.7,1.02.35.35,0,0,0,.5,0l1.56-1.62a.372.372,0,0,0-.02-.56A6.718,6.718,0,0,0,43-14.2,7.2,7.2,0,0,0,35.78-6.98ZM50.26-.38a.38.38,0,0,0,.38.38h2.38a.393.393,0,0,0,.38-.38v-5.1h1.38l2.66,5.3a.368.368,0,0,0,.32.18h2.66a.378.378,0,0,0,.34-.58L58.02-5.66a4.388,4.388,0,0,0,2.96-4.02A4.349,4.349,0,0,0,56.62-14H50.64a.38.38,0,0,0-.38.38ZM53.4-8.02v-3.12h2.96a1.532,1.532,0,0,1,1.52,1.52,1.6,1.6,0,0,1-1.52,1.6Zm9.24,1.04A7.136,7.136,0,0,0,69.82.2a7.153,7.153,0,0,0,7.2-7.18,7.187,7.187,0,0,0-7.2-7.22A7.17,7.17,0,0,0,62.64-6.98Zm3.2,0A4.025,4.025,0,0,1,69.82-11a4.029,4.029,0,0,1,4,4.02,4.008,4.008,0,0,1-4,3.98A4,4,0,0,1,65.84-6.98Z" transform="translate(0.12 14.2)" fill="#262838"/>
</svg>
