<svg xmlns="http://www.w3.org/2000/svg" xmlns:xlink="http://www.w3.org/1999/xlink" width="583.332" height="268.945" viewBox="0 0 583.332 268.945">
  <defs>
    <clipPath id="clip-path">
      <path id="Path_25"  d="M34.884-128.329l.38-.4,12.757-8.118,2.38,1.37c11.056,6.366,17.664,14.539,19.433,24.446,1.344,7.526-3.954,17.863-13.4,29.6-7.564,9.4-16.885,18.289-22.053,21.009C23-54.431,8.2-59.76,1.89-72.684-3.045-82.8,8.149-100.362,34.884-128.329ZM15.118-90.442c-4.582,7.19-5.973,11.944-5.077,13.779,4.115,8.431,13.378,11.764,20.114,8.219,3.819-2.01,12.361-10.158,19.212-18.67,7.814-9.709,12.247-18.357,11.539-22.321-1.141-6.388-5.281-11.959-12.715-16.769l-7.129,4.537Q22.821-102.543,15.118-90.442Z" transform="translate(2 7)" fill="#fff"/>
    </clipPath>
    <clipPath id="clip-path-2">
      <path id="Path_27"  d="M88.32-93.98l.382-.4,11.664-7.356,2.371,1.353c9.977,5.692,15.968,13.036,17.577,21.964,1.239,6.874-3.536,16.106-12.058,26.6-6.781,8.349-15.133,16.243-19.813,18.684-10.382,5.415-23.871.6-29.62-11.068C54.258-53.47,64.289-69.069,88.32-93.98ZM71.477-59.825A35.047,35.047,0,0,0,67.24-51.4c-.5,1.677-.491,2.706-.256,3.183,3.539,7.186,11.5,10.024,17.253,7.022,3.328-1.736,10.895-8.888,16.958-16.354C108.055-66,111.951-73.53,111.362-76.8c-.973-5.4-4.489-10.144-10.835-14.277l-6.041,3.809Q78.3-70.449,71.477-59.825Z" fill="#fff"/>
    </clipPath>
    <clipPath id="clip-path-3">
      <path id="Path_29"  d="M137.625-61.869l.378-.394,10.228-6.475,2.358,1.351c8.547,4.9,13.711,11.25,15.1,18.994,1.088,6.06-2.989,13.973-10.271,22.974-5.752,7.11-12.829,13.825-16.865,15.938-9.08,4.754-20.841.544-25.837-9.64C108.689-27.333,117.187-40.6,137.625-61.869Zm-13.07,29.632a29.024,29.024,0,0,0-3.482,6.935,6.478,6.478,0,0,0-.31,1.772,1.178,1.178,0,0,0,.054.436c2.809,5.726,9.073,7.968,13.554,5.621,2.695-1.411,8.995-7.389,14.036-13.621,5.644-6.976,8.854-13.207,8.405-15.706-.764-4.256-3.489-8.026-8.437-11.354l-4.624,2.927C134.742-45.822,128.333-38.135,124.555-32.236Z" transform="translate(3.879 3)" fill="#fff"/>
    </clipPath>
    <clipPath id="clip-path-4">
      <path id="Path_31"  d="M42.285-4.038C27.641-5.528,17.3-8.922,10.656-14.07c-5.825-4.51-8.563-10.176-8.612-15.865A19.27,19.27,0,0,1,4.625-40.059c.74-1.314,3.573-5.508,3.566-5.5a31.869,31.869,0,0,1,4.718-5.535L13.93-52.1c-1.12-.955-2.551-2.057-4.281-3.289l-.232-.165L9.2-55.738C3.383-60.584.649-67.43,1.035-75.535Q-1.442-132.1,11.7-172.66a232.473,232.473,0,0,1,4.07-24.153c2.37-9.515,6.413-19.671,12.972-33.838,5.012-10.825,10.321-17.368,17.121-19.311,8.167-2.333,15.075,2.367,20.617,11.6l.3.5,13.974,34.435c5.862,9.343,10.474,15.265,13.353,17.468,7.026,5.375,14.675,6.67,37.874,6.457,15.056-.138,20.863-1.241,33.649-5.6a132.079,132.079,0,0,0,24.057-11.275c5.141-2.994,10.519-6.421,17.252-10.944,2.5-1.681,9.338-6.352,14.095-9.6-1.16-3.245-2.455-6.9-2.716-7.763-.681-2.246-.488-1.149-1.675-8.64-1.576-9.938,4.466-23.756,10.571-28.907.259-.218.527-.457.956-.848l.356-.325c4.489-4.1,8.08-5.969,14.378-6.093a26.739,26.739,0,0,1,13.577,3.424c.907.465,3.8,2.037,3.993,2.139l.533.28a66.082,66.082,0,0,1,13.054,9.575l.281.252.254.279a155.492,155.492,0,0,0,13.3,13.322c1.24,1.048,2.249,1.987,3.262,3.008.094.095,1.361,1.4,1.575,1.6a1.807,1.807,0,0,0,.593.409,21.592,21.592,0,0,0,2.9,1.035,9.823,9.823,0,0,0,3.106.532c4.229-5.9,9.414-9.737,15.525-11.158,7.6-1.767,15.233,1.867,23.2,9.7,6.8,5.47,10,9.177,10,14.106a12.285,12.285,0,0,1-.775,4.178c-.143.413-.3.811-.495,1.309-.052.131-.342.844-.418,1.035-.6,1.517-.7,2.069-.586,2.471-.012-.042.018.014.153.183a8.337,8.337,0,0,0,1.371,1.281,45.666,45.666,0,0,0,6.323,3.843l1.31.7.066-.071.28-.3a19.731,19.731,0,0,1,4.6-3.98,12.1,12.1,0,0,1,9.62-1.393c4.381,1.177,9.554,4.743,14.793,9.53,5.349,4.887,8.964,9.153,9.64,12.872.535,2.939-.682,7.067-2.373,10.639.461.375.937.751,1.416,1.119a42,42,0,0,0,4.437,3.037l.032-.027.465-.394c3.678-3.1,6.669-4.639,11.319-4.531,4.974.116,8.311,1.764,11.914,4.979.18.16,1.477,1.345,1.819,1.643.376.327.7.589,1.013.818a47.142,47.142,0,0,1,11.21,11.239,10.949,10.949,0,0,1,1.873,8.539c-.019.114-.036.212-.055.311a21.706,21.706,0,0,0,2.7,1.913q51.6,25.946,114.946,22.568l3.637-.194,2.4,2.738c28.674,32.691,31.283,61.147,5.539,81.684C542.848-24.617,495.837-13.121,424.579-8.019l-.123.008Q197.8,4.47,101.6-3.966A293.5,293.5,0,0,1,42.285-4.038ZM387.443-172.294c.051-.052.1-.1.145-.153Q387.515-172.368,387.443-172.294ZM29.948-55.823c1.655,4.074.446,7.523-2.1,10.768a29.561,29.561,0,0,1-2.273,2.532c-.486.492-2.223,2.2-2.11,2.087a20.064,20.064,0,0,0-2.658,2.991c-.3.463-2.727,4.058-3.112,4.742a4.416,4.416,0,0,0-.654,2.637c.01,1.15.65,2.473,2.8,4.135,4.125,3.194,11.878,5.74,23.964,6.969a278.433,278.433,0,0,0,56.969,0l.718-.074.719.064q94.808,8.438,321.361-4.015c68.374-4.9,113.009-15.819,133.3-32,17.314-13.811,16.293-31.821-5.128-57.348q-65.24,2.66-119.074-24.468l-.266-.134-.255-.155c-4.534-2.76-7.426-5.38-9.02-8.466a11.852,11.852,0,0,1-1.352-5.387,13.033,13.033,0,0,1,.152-2.083c.021-.142.042-.271.065-.4a32.933,32.933,0,0,0-6.866-6.513c-.69-.5-1.339-1.028-2.017-1.618-.508-.442-1.9-1.717-1.96-1.767-1.177-1.051-1.387-1.154-2.276-1.175-.069,0-.176.053-1.3,1l-.445.377c-.2.17-.356.3-.514.431a13.858,13.858,0,0,1-7.663,3.638c-4.6.557-8.951-1.9-15.117-6.633-1.878-1.442-3.725-3-5.154-4.327-.755-.7-1.386-1.335-1.884-1.9a10.252,10.252,0,0,1-1.092-1.461,7.679,7.679,0,0,1-.918-2.138,7.237,7.237,0,0,1,1.474-6.763c.105-.157.242-.37.394-.616.449-.727.928-1.571,1.345-2.389.237-.464.445-.9.619-1.3l-.088-.1a51.336,51.336,0,0,0-4.361-4.452,51.628,51.628,0,0,0-5.312-4.29,24.1,24.1,0,0,0-2.062-1.287c-.159.165-.344.36-.559.59l-.292.312a16.826,16.826,0,0,1-5.518,4.368,11.836,11.836,0,0,1-10.934-.451l-.591-.317c-.055-.029-1.86-.994-2.388-1.278a57.274,57.274,0,0,1-8.431-5.218c-3.389-2.639-5.733-5.586-6.76-9.283-1.194-4.3-.606-7.74,1.1-12.03l.017-.042a47.926,47.926,0,0,0-4.076-3.579l-.318-.254-.288-.287a27.889,27.889,0,0,0-6.926-5.365,4.308,4.308,0,0,0-2.584-.646c-2.514.585-4.97,2.529-7.411,6.283l-.547.841-.749.668c-4.588,4.091-10.732,4.676-17.662,2.581a34.555,34.555,0,0,1-5.1-1.893,16.621,16.621,0,0,1-4.342-2.993c-.492-.464-2.062-2.078-1.931-1.946-.719-.724-1.41-1.368-2.3-2.117a166.227,166.227,0,0,1-14.445-14.394,51.752,51.752,0,0,0-9.671-7.179c-.211-.11-.426-.222-.647-.34-.335-.178-3.093-1.676-3.807-2.042a12.35,12.35,0,0,0-6.442-1.776c-2.009.039-2.5.3-4.555,2.171l-.361.33c-.561.512-.953.861-1.394,1.233a23.851,23.851,0,0,0-3.568,6c-1.543,3.53-2.216,6.859-1.861,9.1,1,6.335.838,5.394,1.214,6.634.358,1.18,4.14,11.669,4.446,12.532l1.937,5.458-4.79,3.254c-1.443.981-15.118,10.349-18.962,12.93-6.977,4.687-12.607,8.275-18.068,11.455a146.767,146.767,0,0,1-26.765,12.51c-14.222,4.848-21.59,6.247-38.351,6.4-26.391.242-36.593-1.485-47.126-9.543-4.781-3.657-10.379-10.881-17.306-21.988l-.343-.549L53.323-231.115a14.755,14.755,0,0,0-3.53-4.247l-.094-.063c-1.463.753-4.239,4.358-7.349,11.075-6.184,13.357-9.951,22.82-12.028,31.162a226.542,226.542,0,0,0-3.839,23.143l-.091.71-.224.68Q13.63-130.561,16.036-75.834l.018.393-.024.393c-.218,3.6.634,5.91,2.591,7.632C24.82-62.977,28.447-59.519,29.948-55.823Z" fill="#fff"/>
    </clipPath>
    <clipPath id="clip-path-5">
      <path id="Path_33"  d="M78.059-3.5C70.642-.822,63.484,0,50,0,32.405,0,15.757-6.037.238-17.947L8.762-29.053C21.91-18.963,35.595-14,50-14c12,0,17.738-.659,23.3-2.67,4.894-1.769,6.985-2.935,23.618-12.844l1.566-.933,1.822-.051c13.981-.388,22.253.116,32.008,1.646.186.029,10.487,1.754,14.113,2.276,27.4,3.946,72.454,5.166,165.88,2.577C443.137-27.622,523.232-39.517,550.927-58.75l7.986,11.5C528.048-25.817,446.53-13.711,312.694-10c-94.159,2.609-139.9,1.371-168.263-2.715-3.816-.55-14.242-2.3-14.287-2.3-8.477-1.33-15.611-1.8-27.636-1.529C86.2-6.84,84.017-5.658,78.059-3.5Z" fill="#fff"/>
    </clipPath>
    <clipPath id="clip-path-6">
      <path id="Path_35"  d="M0-117.5,7.5-148c.517,5.959,3.587,10.673,6,15.5,3,6,37.977,106.993,88.473,120.764L95-.5C33.159-17.366,26.5-94.5,0-117.5Z" fill="#fff"/>
    </clipPath>
  </defs>
  <g id="velcro--symbol" transform="translate(-1792 129)">
    <g id="Group_7"  transform="translate(2055.245 31.844)">
      <g id="Group_4"  transform="translate(3 1)" clip-path="url(#clip-path)">
        <path id="Path_24"  d="M-4.245-141.844H82.15v96.969H-4.245Z" fill="#fff"/>
      </g>
      <g id="Group_5"  transform="translate(-0.764 7)" clip-path="url(#clip-path-2)">
        <path id="Path_26"  d="M52.75-106.731H124.6v79.913H52.75Z" transform="translate(0.452 0.452)" fill="#fff"/>
      </g>
      <g id="Group_6"  transform="translate(-5 3)" clip-path="url(#clip-path-3)">
        <path id="Path_28"  d="M106.744-73.737h70V4.119h-70Z" fill="#fff"/>
      </g>
    </g>
    <g id="Group_10"  transform="translate(1791.36 140.504)">
      <g id="Group_9"  clip-path="url(#clip-path-4)">
        <path id="Path_30"  d="M-4.36-274.5H588.972V4.44H-4.36Z" fill="#fff"/>
      </g>
    </g>
    <g id="Group_12"  transform="translate(1808.762 110.75)">
      <g id="Group_11"  clip-path="url(#clip-path-5)">
        <path id="Path_32"  d="M-4.762-63.75H563.912V5H-4.762Z" fill="#fff"/>
      </g>
    </g>
    <g id="Group_14"  transform="translate(1809 95)">
      <g id="Group_13"  clip-path="url(#clip-path-6)">
        <path id="Path_34"  d="M-5-153H106.973V4.5H-5Z" fill="#fff"/>
      </g>
    </g>
  </g>
</svg>
