<svg xmlns="http://www.w3.org/2000/svg" width="117" height="124" viewBox="0 0 117 124">
  <g fill="none" fill-rule="evenodd" transform="translate(0 .117)">
    <path fill="#FFF" d="M3.15105132,29.5627783 L55.1230743,1.52260647 C56.8864712,0.571210926 59.0084034,0.562845193 60.7792471,1.50030697 L113.807224,29.5726329 C115.771463,30.6124755 117,32.6529145 117,34.8754145 L117,92.8945788 C117,95.2139653 115.663197,97.3256222 113.566758,98.3178394 L61.8352407,122.801684 C60.2304435,123.561213 58.3716654,123.570998 56.7589612,122.828405 L3.49047813,98.3001716 C1.36296037,97.3205257 1.43694183e-14,95.1924192 0,92.8501899 L0,34.8432604 C-2.04645542e-15,32.6377382 1.21001449,30.610015 3.15105132,29.5627783 Z"/>
    <path fill="#FF30CC" stroke="#FF30CC" stroke-width="5" d="M19.5,75.4934078 L58.1424638,54.1503047 L97.5,75.4799163 L97.5,85.1248024 L59.0160324,103.770814 L19.5,85.1434679 L19.5,75.4934078 Z"/>
    <path fill="#35BFF7" stroke="#FFF" stroke-width="5" d="M14.5,41.2160056 L58.0950499,17.1506642 L102.5,41.2025163 L102.5,51.7467357 L59.0846872,72.7705318 L14.5,51.7653972 L14.5,41.2160056 Z"/>
  </g>
</svg>
